<svg width="32" height="32" viewBox="0 0 32 32" fill="none" xmlns="http://www.w3.org/2000/svg">
<path d="M16.0003 2.66675C8.65366 2.66675 2.66699 8.65341 2.66699 16.0001C2.66699 23.3467 8.65366 29.3334 16.0003 29.3334C23.347 29.3334 29.3337 23.3467 29.3337 16.0001C29.3337 8.65341 23.347 2.66675 16.0003 2.66675ZM21.3337 17.0001H17.0003V21.3334C17.0003 21.8801 16.547 22.3334 16.0003 22.3334C15.4537 22.3334 15.0003 21.8801 15.0003 21.3334V17.0001H10.667C10.1203 17.0001 9.66699 16.5467 9.66699 16.0001C9.66699 15.4534 10.1203 15.0001 10.667 15.0001H15.0003V10.6667C15.0003 10.1201 15.4537 9.66675 16.0003 9.66675C16.547 9.66675 17.0003 10.1201 17.0003 10.6667V15.0001H21.3337C21.8803 15.0001 22.3337 15.4534 22.3337 16.0001C22.3337 16.5467 21.8803 17.0001 21.3337 17.0001Z" fill="#6193FF" fill-opacity="0.7"/>
</svg>
