<?xml version="1.0" encoding="UTF-8"?>
<!DOCTYPE svg PUBLIC "-//W3C//DTD SVG 1.1//EN" "http://www.w3.org/Graphics/SVG/1.1/DTD/svg11.dtd">
<svg xmlns="http://www.w3.org/2000/svg" version="1.1" width="512px" height="512px" style="shape-rendering:geometricPrecision; text-rendering:geometricPrecision; image-rendering:optimizeQuality; fill-rule:evenodd; clip-rule:evenodd" xmlns:xlink="http://www.w3.org/1999/xlink">
<g><path style="opacity:0.976" fill="#73d0f8" d="M 265.5,37.5 C 279.947,42.5581 294.28,47.8914 308.5,53.5C 303.167,60.8333 296.833,67.1667 289.5,72.5C 278.243,68.3031 266.91,64.3031 255.5,60.5C 250.425,61.9693 245.425,63.636 240.5,65.5C 248.833,56.1667 257.167,46.8333 265.5,37.5 Z"/></g>
<g><path style="opacity:0.977" fill="#79d5f8" d="M 265.5,37.5 C 257.167,46.8333 248.833,56.1667 240.5,65.5C 209.25,77.6949 177.916,89.6949 146.5,101.5C 159.131,88.3682 171.965,75.3682 185,62.5C 185.464,61.9056 185.631,61.2389 185.5,60.5C 205.361,52.5962 225.361,44.7629 245.5,37C 252.366,34.8575 259.032,35.0241 265.5,37.5 Z"/></g>
<g><path style="opacity:0.975" fill="#6dccf7" d="M 308.5,53.5 C 321.422,58.6962 334.422,63.6962 347.5,68.5C 341.833,75.1667 336.167,81.8333 330.5,88.5C 316.6,83.5377 302.933,78.2044 289.5,72.5C 296.833,67.1667 303.167,60.8333 308.5,53.5 Z"/></g>
<g><path style="opacity:0.982" fill="#7fd8f9" d="M 185.5,60.5 C 185.631,61.2389 185.464,61.9056 185,62.5C 171.965,75.3682 159.131,88.3682 146.5,101.5C 119.167,112.167 91.8333,122.833 64.5,133.5C 64.3893,132.883 64.056,132.383 63.5,132C 76.7019,118.965 89.7019,105.798 102.5,92.5C 129.934,81.4623 157.601,70.7956 185.5,60.5 Z"/></g>
<g><path style="opacity:0.973" fill="#66c7f6" d="M 347.5,68.5 C 365.5,75.5 383.5,82.5 401.5,89.5C 395.833,96.1667 390.167,102.833 384.5,109.5C 366.5,102.5 348.5,95.5 330.5,88.5C 336.167,81.8333 341.833,75.1667 347.5,68.5 Z"/></g>
<g><path style="opacity:0.975" fill="#72cff8" d="M 275.5,89.5 C 268.757,94.7373 262.423,100.571 256.5,107C 257.737,107.232 258.737,107.732 259.5,108.5C 248.833,107.833 243.833,112.833 244.5,123.5C 243.732,122.737 243.232,121.737 243,120.5C 236.965,126.703 230.798,132.703 224.5,138.5C 222.344,135.563 220.844,132.229 220,128.5C 216.421,106.144 225.255,91.3103 246.5,84C 252.5,83.3333 258.5,83.3333 264.5,84C 268.787,84.81 272.454,86.6433 275.5,89.5 Z"/></g>
<g><path style="opacity:0.981" fill="#6cccf7" d="M 275.5,89.5 C 286.572,96.3048 291.906,106.305 291.5,119.5C 291.059,137.782 282.059,149.615 264.5,155C 247.338,158.345 234.005,152.845 224.5,138.5C 230.798,132.703 236.965,126.703 243,120.5C 243.232,121.737 243.732,122.737 244.5,123.5C 250.543,131.942 257.376,132.609 265,125.5C 268.213,118.129 266.38,112.462 259.5,108.5C 258.737,107.732 257.737,107.232 256.5,107C 262.423,100.571 268.757,94.7373 275.5,89.5 Z"/></g>
<g><path style="opacity:0.996" fill="#83dbf9" d="M 102.5,92.5 C 89.7019,105.798 76.7019,118.965 63.5,132C 64.056,132.383 64.3893,132.883 64.5,133.5C 63.391,133.557 62.391,133.89 61.5,134.5C 52.8805,142.784 44.2138,151.118 35.5,159.5C 35.3335,149.828 35.5002,140.161 36,130.5C 37.8388,121.994 42.6721,115.827 50.5,112C 67.7525,105.195 85.0859,98.6948 102.5,92.5 Z"/></g>
<g><path style="opacity:0.984" fill="#5abaf3" d="M 401.5,89.5 C 414.401,94.1289 427.067,99.1289 439.5,104.5C 432.833,110.5 426.5,116.833 420.5,123.5C 408.579,118.637 396.579,113.971 384.5,109.5C 390.167,102.833 395.833,96.1667 401.5,89.5 Z"/></g>
<g><path style="opacity:0.975" fill="#53b2f0" d="M 439.5,104.5 C 446.876,106.4 453.876,109.066 460.5,112.5C 454.44,118.555 448.774,124.889 443.5,131.5C 435.738,129.119 428.071,126.453 420.5,123.5C 426.5,116.833 432.833,110.5 439.5,104.5 Z"/></g>
<g><path style="opacity:0.983" fill="#4dabee" d="M 460.5,112.5 C 466.167,114.833 470.167,118.833 472.5,124.5C 466.224,132.445 459.224,139.778 451.5,146.5C 453.211,138.909 450.544,133.909 443.5,131.5C 448.774,124.889 454.44,118.555 460.5,112.5 Z"/></g>
<g><path style="opacity:0.996" fill="#48a5ec" d="M 472.5,124.5 C 473.6,126.277 474.434,128.277 475,130.5C 475.5,136.825 475.666,143.158 475.5,149.5C 467.5,157.167 459.5,164.833 451.5,172.5C 451.5,163.833 451.5,155.167 451.5,146.5C 459.224,139.778 466.224,132.445 472.5,124.5 Z"/></g>
<g><path style="opacity:0.991" fill="#7fd8f9" d="M 61.5,134.5 C 61.0133,135.473 60.5133,136.473 60,137.5C 59.3333,150.167 59.3333,162.833 60,175.5C 61.5388,178.521 64.0388,179.854 67.5,179.5C 61.1667,186.167 54.8333,192.833 48.5,199.5C 42.1937,195.911 38.027,190.577 36,183.5C 35.5003,175.507 35.3336,167.507 35.5,159.5C 44.2138,151.118 52.8805,142.784 61.5,134.5 Z"/></g>
<g><path style="opacity:1" fill="#429eea" d="M 475.5,149.5 C 475.667,160.838 475.5,172.172 475,183.5C 469.578,198.078 459.078,204.744 443.5,203.5C 443.5,207.5 443.5,211.5 443.5,215.5C 435.5,223.167 427.5,230.833 419.5,238.5C 419.5,227.167 419.5,215.833 419.5,204.5C 428.167,196.5 436.5,188.167 444.5,179.5C 449.167,179.5 451.5,177.167 451.5,172.5C 459.5,164.833 467.5,157.167 475.5,149.5 Z"/></g>
<g><path style="opacity:1" fill="#78d4f8" d="M 67.5,179.5 C 86.5,179.5 105.5,179.5 124.5,179.5C 116.833,187.5 109.167,195.5 101.5,203.5C 98.1667,203.5 94.8333,203.5 91.5,203.5C 91.5,206.833 91.5,210.167 91.5,213.5C 83.5,221.167 75.5,228.833 67.5,236.5C 67.5,225.5 67.5,214.5 67.5,203.5C 63.4862,203.666 59.4862,203.499 55.5,203C 52.8261,202.33 50.4927,201.163 48.5,199.5C 54.8333,192.833 61.1667,186.167 67.5,179.5 Z"/></g>
<g><path style="opacity:1" fill="#72d0f8" d="M 124.5,179.5 C 144.167,179.5 163.833,179.5 183.5,179.5C 175.833,187.5 168.167,195.5 160.5,203.5C 153.5,203.5 146.5,203.5 139.5,203.5C 139.5,210.5 139.5,217.5 139.5,224.5C 131.5,232.167 123.5,239.833 115.5,247.5C 115.5,232.833 115.5,218.167 115.5,203.5C 110.833,203.5 106.167,203.5 101.5,203.5C 109.167,195.5 116.833,187.5 124.5,179.5 Z"/></g>
<g><path style="opacity:1" fill="#6dccf7" d="M 183.5,179.5 C 201.5,179.5 219.5,179.5 237.5,179.5C 229.833,187.5 222.167,195.5 214.5,203.5C 196.5,203.5 178.5,203.5 160.5,203.5C 168.167,195.5 175.833,187.5 183.5,179.5 Z"/></g>
<g><path style="opacity:1" fill="#67c8f6" d="M 237.5,179.5 C 257.167,179.5 276.833,179.5 296.5,179.5C 288.833,187.5 281.167,195.5 273.5,203.5C 253.833,203.5 234.167,203.5 214.5,203.5C 222.167,195.5 229.833,187.5 237.5,179.5 Z"/></g>
<g><path style="opacity:1" fill="#5ebff4" d="M 296.5,179.5 C 310.167,179.5 323.833,179.5 337.5,179.5C 329.833,187.5 322.167,195.5 314.5,203.5C 300.833,203.5 287.167,203.5 273.5,203.5C 281.167,195.5 288.833,187.5 296.5,179.5 Z"/></g>
<g><path style="opacity:1" fill="#58b8f2" d="M 337.5,179.5 C 346.167,179.5 354.833,179.5 363.5,179.5C 355.833,187.5 348.167,195.5 340.5,203.5C 331.833,203.5 323.167,203.5 314.5,203.5C 322.167,195.5 329.833,187.5 337.5,179.5 Z"/></g>
<g><path style="opacity:1" fill="#53b2f0" d="M 363.5,179.5 C 373.5,179.5 383.5,179.5 393.5,179.5C 385.833,187.5 378.167,195.5 370.5,203.5C 360.5,203.5 350.5,203.5 340.5,203.5C 348.167,195.5 355.833,187.5 363.5,179.5 Z"/></g>
<g><path style="opacity:1" fill="#4cabee" d="M 393.5,179.5 C 401.833,179.5 410.167,179.5 418.5,179.5C 410.833,187.5 403.167,195.5 395.5,203.5C 387.5,211.167 379.5,218.833 371.5,226.5C 371.825,218.648 371.492,210.982 370.5,203.5C 378.167,195.5 385.833,187.5 393.5,179.5 Z"/></g>
<g><path style="opacity:1" fill="#48a5ec" d="M 418.5,179.5 C 427.167,179.5 435.833,179.5 444.5,179.5C 436.5,188.167 428.167,196.5 419.5,204.5C 411.684,203.508 403.684,203.174 395.5,203.5C 403.167,195.5 410.833,187.5 418.5,179.5 Z"/></g>
<g><path style="opacity:1" fill="#48a5ec" d="M 395.5,203.5 C 395.5,212.167 395.5,220.833 395.5,229.5C 387.5,237.167 379.5,244.833 371.5,252.5C 371.5,243.833 371.5,235.167 371.5,226.5C 379.5,218.833 387.5,211.167 395.5,203.5 Z"/></g>
<g><path style="opacity:1" fill="#73d0f8" d="M 91.5,213.5 C 91.5,233.167 91.5,252.833 91.5,272.5C 83.5,280.167 75.5,287.833 67.5,295.5C 67.5,275.833 67.5,256.167 67.5,236.5C 75.5,228.833 83.5,221.167 91.5,213.5 Z"/></g>
<g><path style="opacity:1" fill="#3c97e8" d="M 443.5,215.5 C 443.5,222.5 443.5,229.5 443.5,236.5C 435.5,244.167 427.5,251.833 419.5,259.5C 419.5,252.5 419.5,245.5 419.5,238.5C 427.5,230.833 435.5,223.167 443.5,215.5 Z"/></g>
<g><path style="opacity:1" fill="#6dccf7" d="M 139.5,224.5 C 139.5,242.5 139.5,260.5 139.5,278.5C 131.5,286.167 123.5,293.833 115.5,301.5C 115.5,283.5 115.5,265.5 115.5,247.5C 123.5,239.833 131.5,232.167 139.5,224.5 Z"/></g>
<g><path style="opacity:0.983" fill="#62c4f6" d="M 262.5,229.5 C 250.535,241.965 238.369,254.298 226,266.5C 225.802,268.382 225.302,270.048 224.5,271.5C 224.5,270.167 224.5,268.833 224.5,267.5C 210.838,267.998 206.005,261.665 210,248.5C 211.543,246.622 213.376,245.122 215.5,244C 224.827,243.5 234.161,243.334 243.5,243.5C 243.188,229.456 249.522,224.789 262.5,229.5 Z"/></g>
<g><path style="opacity:1" fill="#429feb" d="M 395.5,229.5 C 395.5,237.833 395.5,246.167 395.5,254.5C 387.5,262.167 379.5,269.833 371.5,277.5C 371.5,269.167 371.5,260.833 371.5,252.5C 379.5,244.833 387.5,237.167 395.5,229.5 Z"/></g>
<g><path style="opacity:0.977" fill="#5cbcf3" d="M 262.5,229.5 C 267.028,232.98 268.695,237.646 267.5,243.5C 276.742,242.803 284.742,245.469 291.5,251.5C 286.536,256.965 281.37,262.298 276,267.5C 275.517,268.448 275.351,269.448 275.5,270.5C 273.484,268.987 271.151,268.153 268.5,268C 262.175,267.5 255.842,267.334 249.5,267.5C 249.5,270.833 249.5,274.167 249.5,277.5C 248.683,275.031 248.183,272.365 248,269.5C 240.298,277.369 232.465,285.036 224.5,292.5C 224.5,285.5 224.5,278.5 224.5,271.5C 225.302,270.048 225.802,268.382 226,266.5C 238.369,254.298 250.535,241.965 262.5,229.5 Z"/></g>
<g><path style="opacity:1" fill="#3792e7" d="M 443.5,236.5 C 443.5,244.833 443.5,253.167 443.5,261.5C 435.5,269.167 427.5,276.833 419.5,284.5C 419.5,276.167 419.5,267.833 419.5,259.5C 427.5,251.833 435.5,244.167 443.5,236.5 Z"/></g>
<g><path style="opacity:1" fill="#328ce5" d="M 443.5,261.5 C 443.5,270.167 443.5,278.833 443.5,287.5C 435.5,295.167 427.5,302.833 419.5,310.5C 419.5,301.833 419.5,293.167 419.5,284.5C 427.5,276.833 435.5,269.167 443.5,261.5 Z"/></g>
<g><path style="opacity:1" fill="#3d98e9" d="M 395.5,254.5 C 395.5,264.5 395.5,274.5 395.5,284.5C 387.5,292.167 379.5,299.833 371.5,307.5C 371.5,297.5 371.5,287.5 371.5,277.5C 379.5,269.833 387.5,262.167 395.5,254.5 Z"/></g>
<g><path style="opacity:0.976" fill="#58b8f2" d="M 249.5,277.5 C 248.897,282.619 249.564,287.285 251.5,291.5C 242.833,300.833 233.833,309.833 224.5,318.5C 224.5,309.833 224.5,301.167 224.5,292.5C 232.465,285.036 240.298,277.369 248,269.5C 248.183,272.365 248.683,275.031 249.5,277.5 Z"/></g>
<g><path style="opacity:0.987" fill="#4dabee" d="M 303.5,269.5 C 306.773,280.345 305.273,290.678 299,300.5C 298.292,301.381 297.458,302.047 296.5,302.5C 290.167,308.167 284.167,314.167 278.5,320.5C 272.596,316.313 265.93,314.647 258.5,315.5C 273.5,300.167 288.5,284.833 303.5,269.5 Z"/></g>
<g><path style="opacity:1" fill="#6dccf7" d="M 91.5,272.5 C 91.5,290.5 91.5,308.5 91.5,326.5C 83.5,334.167 75.5,341.833 67.5,349.5C 67.5,331.5 67.5,313.5 67.5,295.5C 75.5,287.833 83.5,280.167 91.5,272.5 Z"/></g>
<g><path style="opacity:1" fill="#67c8f6" d="M 139.5,278.5 C 139.5,298.167 139.5,317.833 139.5,337.5C 131.5,345.167 123.5,352.833 115.5,360.5C 115.5,340.833 115.5,321.167 115.5,301.5C 123.5,293.833 131.5,286.167 139.5,278.5 Z"/></g>
<g><path style="opacity:1" fill="#2d86e3" d="M 443.5,287.5 C 443.5,295.833 443.5,304.167 443.5,312.5C 435.5,320.167 427.5,327.833 419.5,335.5C 419.5,327.167 419.5,318.833 419.5,310.5C 427.5,302.833 435.5,295.167 443.5,287.5 Z"/></g>
<g><path style="opacity:0.99" fill="#52b1f0" d="M 291.5,251.5 C 297.966,255.74 301.966,261.74 303.5,269.5C 288.5,284.833 273.5,300.167 258.5,315.5C 255.5,315.5 252.5,315.5 249.5,315.5C 249.5,316.833 249.5,318.167 249.5,319.5C 248.691,321.292 248.191,323.292 248,325.5C 235.91,337.086 224.41,349.086 213.5,361.5C 211.066,360.229 209.566,358.229 209,355.5C 207.534,343.798 212.701,338.465 224.5,339.5C 224.5,332.5 224.5,325.5 224.5,318.5C 233.833,309.833 242.833,300.833 251.5,291.5C 257.176,291.666 262.843,291.499 268.5,291C 279.214,288.739 282.381,282.572 278,272.5C 277.292,271.619 276.458,270.953 275.5,270.5C 275.351,269.448 275.517,268.448 276,267.5C 281.37,262.298 286.536,256.965 291.5,251.5 Z"/></g>
<g><path style="opacity:1" fill="#3792e7" d="M 395.5,284.5 C 395.5,292.833 395.5,301.167 395.5,309.5C 387.5,317.167 379.5,324.833 371.5,332.5C 371.5,324.167 371.5,315.833 371.5,307.5C 379.5,299.833 387.5,292.167 395.5,284.5 Z"/></g>
<g><path style="opacity:0.988" fill="#47a4ec" d="M 296.5,302.5 C 301.425,309.359 304.425,317.026 305.5,325.5C 304.883,325.389 304.383,325.056 304,324.5C 285.965,342.368 268.132,360.368 250.5,378.5C 244.193,375.546 241.86,370.546 243.5,363.5C 240.833,363.5 238.167,363.5 235.5,363.5C 243.167,355.5 250.833,347.5 258.5,339.5C 264.918,340.098 270.918,338.931 276.5,336C 280.803,331.291 281.47,326.124 278.5,320.5C 284.167,314.167 290.167,308.167 296.5,302.5 Z"/></g>
<g><path style="opacity:1" fill="#328ce5" d="M 395.5,309.5 C 395.5,318.167 395.5,326.833 395.5,335.5C 387.5,343.167 379.5,350.833 371.5,358.5C 371.5,349.833 371.5,341.167 371.5,332.5C 379.5,324.833 387.5,317.167 395.5,309.5 Z"/></g>
<g><path style="opacity:1" fill="#2880e1" d="M 443.5,312.5 C 443.5,321.167 443.5,329.833 443.5,338.5C 435.5,346.167 427.5,353.833 419.5,361.5C 419.5,352.833 419.5,344.167 419.5,335.5C 427.5,327.833 435.5,320.167 443.5,312.5 Z"/></g>
<g><path style="opacity:0.99" fill="#4dabee" d="M 249.5,319.5 C 249.5,326.167 249.5,332.833 249.5,339.5C 252.5,339.5 255.5,339.5 258.5,339.5C 250.833,347.5 243.167,355.5 235.5,363.5C 228.825,363.666 222.158,363.5 215.5,363C 214.584,362.722 213.918,362.222 213.5,361.5C 224.41,349.086 235.91,337.086 248,325.5C 248.191,323.292 248.691,321.292 249.5,319.5 Z"/></g>
<g><path style="opacity:0.962" fill="#439feb" d="M 305.5,325.5 C 304.358,349.833 291.692,362.5 267.5,363.5C 268.22,376.127 262.553,381.127 250.5,378.5C 268.132,360.368 285.965,342.368 304,324.5C 304.383,325.056 304.883,325.389 305.5,325.5 Z"/></g>
<g><path style="opacity:1" fill="#2d86e3" d="M 395.5,335.5 C 395.5,343.833 395.5,352.167 395.5,360.5C 387.5,368.167 379.5,375.833 371.5,383.5C 371.5,375.167 371.5,366.833 371.5,358.5C 379.5,350.833 387.5,343.167 395.5,335.5 Z"/></g>
<g><path style="opacity:1" fill="#2279df" d="M 443.5,338.5 C 443.5,348.5 443.5,358.5 443.5,368.5C 435.5,376.167 427.5,383.833 419.5,391.5C 419.5,381.5 419.5,371.5 419.5,361.5C 427.5,353.833 435.5,346.167 443.5,338.5 Z"/></g>
<g><path style="opacity:1" fill="#2880e1" d="M 395.5,360.5 C 395.5,369.167 395.5,377.833 395.5,386.5C 381.5,399.833 367.833,413.5 354.5,427.5C 345.833,427.5 337.167,427.5 328.5,427.5C 336.167,419.5 343.833,411.5 351.5,403.5C 358.167,403.5 364.833,403.5 371.5,403.5C 371.5,396.833 371.5,390.167 371.5,383.5C 379.5,375.833 387.5,368.167 395.5,360.5 Z"/></g>
<g><path style="opacity:1" fill="#5ebff4" d="M 139.5,337.5 C 139.5,351.167 139.5,364.833 139.5,378.5C 131.5,386.167 123.5,393.833 115.5,401.5C 115.5,387.833 115.5,374.167 115.5,360.5C 123.5,352.833 131.5,345.167 139.5,337.5 Z"/></g>
<g><path style="opacity:1" fill="#1d73de" d="M 443.5,368.5 C 443.5,376.833 443.5,385.167 443.5,393.5C 431.833,404.5 420.5,415.833 409.5,427.5C 401.167,427.5 392.833,427.5 384.5,427.5C 392.167,419.5 399.833,411.5 407.5,403.5C 411.5,403.5 415.5,403.5 419.5,403.5C 419.5,399.5 419.5,395.5 419.5,391.5C 427.5,383.833 435.5,376.167 443.5,368.5 Z"/></g>
<g><path style="opacity:0.996" fill="#66c7f7" d="M 91.5,326.5 C 91.5,346.167 91.5,365.833 91.5,385.5C 72.8333,403.833 54.1667,422.167 35.5,440.5C 32.7307,416.282 43.3974,403.948 67.5,403.5C 67.5,385.5 67.5,367.5 67.5,349.5C 75.5,341.833 83.5,334.167 91.5,326.5 Z"/></g>
<g><path style="opacity:1" fill="#58b8f2" d="M 139.5,378.5 C 139.5,386.833 139.5,395.167 139.5,403.5C 131.833,411.5 124.167,419.5 116.5,427.5C 107.833,427.5 99.1667,427.5 90.5,427.5C 98.1667,419.5 105.833,411.5 113.5,403.5C 114.833,403.5 115.5,402.833 115.5,401.5C 123.5,393.833 131.5,386.167 139.5,378.5 Z"/></g>
<g><path style="opacity:0.998" fill="#5fc0f5" d="M 91.5,385.5 C 91.5,391.5 91.5,397.5 91.5,403.5C 98.8333,403.5 106.167,403.5 113.5,403.5C 105.833,411.5 98.1667,419.5 90.5,427.5C 80.7274,427.052 71.0607,427.552 61.5,429C 60.8742,429.75 60.3742,430.584 60,431.5C 59.5004,438.158 59.3337,444.825 59.5,451.5C 61.5,451.5 63.5,451.5 65.5,451.5C 58.1667,459.5 50.5,467.167 42.5,474.5C 39.5722,473.409 37.4055,471.409 36,468.5C 35.5002,459.173 35.3335,449.839 35.5,440.5C 54.1667,422.167 72.8333,403.833 91.5,385.5 Z"/></g>
<g><path style="opacity:1" fill="#227adf" d="M 395.5,386.5 C 395.5,392.167 395.5,397.833 395.5,403.5C 399.5,403.5 403.5,403.5 407.5,403.5C 399.833,411.5 392.167,419.5 384.5,427.5C 374.5,427.5 364.5,427.5 354.5,427.5C 367.833,413.5 381.5,399.833 395.5,386.5 Z"/></g>
<g><path style="opacity:0.995" fill="#176ddc" d="M 443.5,393.5 C 443.5,396.833 443.5,400.167 443.5,403.5C 447.514,403.334 451.514,403.501 455.5,404C 456.737,404.232 457.737,404.732 458.5,405.5C 450.221,412.11 442.555,419.444 435.5,427.5C 426.833,427.5 418.167,427.5 409.5,427.5C 420.5,415.833 431.833,404.5 443.5,393.5 Z"/></g>
<g><path style="opacity:1" fill="#53b2f0" d="M 139.5,403.5 C 149.5,403.5 159.5,403.5 169.5,403.5C 161.833,411.5 154.167,419.5 146.5,427.5C 136.5,427.5 126.5,427.5 116.5,427.5C 124.167,419.5 131.833,411.5 139.5,403.5 Z"/></g>
<g><path style="opacity:1" fill="#4dabee" d="M 169.5,403.5 C 177.833,403.5 186.167,403.5 194.5,403.5C 186.833,411.5 179.167,419.5 171.5,427.5C 163.167,427.5 154.833,427.5 146.5,427.5C 154.167,419.5 161.833,411.5 169.5,403.5 Z"/></g>
<g><path style="opacity:1" fill="#48a5ec" d="M 194.5,403.5 C 203.167,403.5 211.833,403.5 220.5,403.5C 212.833,411.5 205.167,419.5 197.5,427.5C 188.833,427.5 180.167,427.5 171.5,427.5C 179.167,419.5 186.833,411.5 194.5,403.5 Z"/></g>
<g><path style="opacity:1" fill="#429feb" d="M 220.5,403.5 C 228.833,403.5 237.167,403.5 245.5,403.5C 237.833,411.5 230.167,419.5 222.5,427.5C 214.167,427.5 205.833,427.5 197.5,427.5C 205.167,419.5 212.833,411.5 220.5,403.5 Z"/></g>
<g><path style="opacity:1" fill="#3d98e9" d="M 245.5,403.5 C 255.5,403.5 265.5,403.5 275.5,403.5C 267.833,411.5 260.167,419.5 252.5,427.5C 242.5,427.5 232.5,427.5 222.5,427.5C 230.167,419.5 237.833,411.5 245.5,403.5 Z"/></g>
<g><path style="opacity:1" fill="#3792e7" d="M 275.5,403.5 C 283.833,403.5 292.167,403.5 300.5,403.5C 292.833,411.5 285.167,419.5 277.5,427.5C 269.167,427.5 260.833,427.5 252.5,427.5C 260.167,419.5 267.833,411.5 275.5,403.5 Z"/></g>
<g><path style="opacity:1" fill="#328ce5" d="M 300.5,403.5 C 309.167,403.5 317.833,403.5 326.5,403.5C 318.833,411.5 311.167,419.5 303.5,427.5C 294.833,427.5 286.167,427.5 277.5,427.5C 285.167,419.5 292.833,411.5 300.5,403.5 Z"/></g>
<g><path style="opacity:1" fill="#2d86e3" d="M 326.5,403.5 C 334.833,403.5 343.167,403.5 351.5,403.5C 343.833,411.5 336.167,419.5 328.5,427.5C 320.167,427.5 311.833,427.5 303.5,427.5C 311.167,419.5 318.833,411.5 326.5,403.5 Z"/></g>
<g><path style="opacity:0.997" fill="#1064d9" d="M 458.5,405.5 C 469.073,409.964 474.739,417.964 475.5,429.5C 459.833,444.5 444.5,459.833 429.5,475.5C 415.5,475.5 401.5,475.5 387.5,475.5C 395.167,467.5 402.833,459.5 410.5,451.5C 424.167,451.5 437.833,451.5 451.5,451.5C 451.929,444.053 451.429,436.719 450,429.5C 449.25,428.874 448.416,428.374 447.5,428C 443.514,427.501 439.514,427.334 435.5,427.5C 442.555,419.444 450.221,412.11 458.5,405.5 Z"/></g>
<g><path style="opacity:1" fill="#095cd7" d="M 475.5,429.5 C 475.964,443.265 475.464,456.932 474,470.5C 472.457,472.378 470.624,473.878 468.5,475C 455.504,475.5 442.504,475.667 429.5,475.5C 444.5,459.833 459.833,444.5 475.5,429.5 Z"/></g>
<g><path style="opacity:0.997" fill="#58b8f2" d="M 65.5,451.5 C 74.1667,451.5 82.8333,451.5 91.5,451.5C 83.8333,459.5 76.1667,467.5 68.5,475.5C 59.6506,475.826 50.9839,475.493 42.5,474.5C 50.5,467.167 58.1667,459.5 65.5,451.5 Z"/></g>
<g><path style="opacity:1" fill="#53b2f0" d="M 91.5,451.5 C 101.5,451.5 111.5,451.5 121.5,451.5C 113.833,459.5 106.167,467.5 98.5,475.5C 88.5,475.5 78.5,475.5 68.5,475.5C 76.1667,467.5 83.8333,459.5 91.5,451.5 Z"/></g>
<g><path style="opacity:1" fill="#4dabee" d="M 121.5,451.5 C 129.833,451.5 138.167,451.5 146.5,451.5C 138.833,459.5 131.167,467.5 123.5,475.5C 115.167,475.5 106.833,475.5 98.5,475.5C 106.167,467.5 113.833,459.5 121.5,451.5 Z"/></g>
<g><path style="opacity:1" fill="#48a5ec" d="M 146.5,451.5 C 155.167,451.5 163.833,451.5 172.5,451.5C 164.833,459.5 157.167,467.5 149.5,475.5C 140.833,475.5 132.167,475.5 123.5,475.5C 131.167,467.5 138.833,459.5 146.5,451.5 Z"/></g>
<g><path style="opacity:1" fill="#429feb" d="M 172.5,451.5 C 180.833,451.5 189.167,451.5 197.5,451.5C 189.833,459.5 182.167,467.5 174.5,475.5C 166.167,475.5 157.833,475.5 149.5,475.5C 157.167,467.5 164.833,459.5 172.5,451.5 Z"/></g>
<g><path style="opacity:1" fill="#3d98e9" d="M 197.5,451.5 C 207.5,451.5 217.5,451.5 227.5,451.5C 219.833,459.5 212.167,467.5 204.5,475.5C 194.5,475.5 184.5,475.5 174.5,475.5C 182.167,467.5 189.833,459.5 197.5,451.5 Z"/></g>
<g><path style="opacity:1" fill="#3792e7" d="M 227.5,451.5 C 235.833,451.5 244.167,451.5 252.5,451.5C 244.833,459.5 237.167,467.5 229.5,475.5C 221.167,475.5 212.833,475.5 204.5,475.5C 212.167,467.5 219.833,459.5 227.5,451.5 Z"/></g>
<g><path style="opacity:1" fill="#328ce5" d="M 252.5,451.5 C 261.167,451.5 269.833,451.5 278.5,451.5C 270.833,459.5 263.167,467.5 255.5,475.5C 246.833,475.5 238.167,475.5 229.5,475.5C 237.167,467.5 244.833,459.5 252.5,451.5 Z"/></g>
<g><path style="opacity:1" fill="#2d86e3" d="M 278.5,451.5 C 286.833,451.5 295.167,451.5 303.5,451.5C 295.833,459.5 288.167,467.5 280.5,475.5C 272.167,475.5 263.833,475.5 255.5,475.5C 263.167,467.5 270.833,459.5 278.5,451.5 Z"/></g>
<g><path style="opacity:1" fill="#2880e1" d="M 303.5,451.5 C 312.167,451.5 320.833,451.5 329.5,451.5C 321.833,459.5 314.167,467.5 306.5,475.5C 297.833,475.5 289.167,475.5 280.5,475.5C 288.167,467.5 295.833,459.5 303.5,451.5 Z"/></g>
<g><path style="opacity:1" fill="#2279df" d="M 329.5,451.5 C 339.5,451.5 349.5,451.5 359.5,451.5C 351.833,459.5 344.167,467.5 336.5,475.5C 326.5,475.5 316.5,475.5 306.5,475.5C 314.167,467.5 321.833,459.5 329.5,451.5 Z"/></g>
<g><path style="opacity:1" fill="#1c73de" d="M 359.5,451.5 C 367.833,451.5 376.167,451.5 384.5,451.5C 376.833,459.5 369.167,467.5 361.5,475.5C 353.167,475.5 344.833,475.5 336.5,475.5C 344.167,467.5 351.833,459.5 359.5,451.5 Z"/></g>
<g><path style="opacity:1" fill="#176ddc" d="M 384.5,451.5 C 393.167,451.5 401.833,451.5 410.5,451.5C 402.833,459.5 395.167,467.5 387.5,475.5C 378.833,475.5 370.167,475.5 361.5,475.5C 369.167,467.5 376.833,459.5 384.5,451.5 Z"/></g>
</svg>
