<?xml version="1.0" encoding="UTF-8"?>
<!DOCTYPE svg PUBLIC "-//W3C//DTD SVG 1.1//EN" "http://www.w3.org/Graphics/SVG/1.1/DTD/svg11.dtd">
<svg xmlns="http://www.w3.org/2000/svg" version="1.1" width="512px" height="512px" style="shape-rendering:geometricPrecision; text-rendering:geometricPrecision; image-rendering:optimizeQuality; fill-rule:evenodd; clip-rule:evenodd" xmlns:xlink="http://www.w3.org/1999/xlink">
<g><path style="opacity:0.986" fill="#438dfe" d="M 511.5,162.5 C 511.5,173.167 511.5,183.833 511.5,194.5C 506.053,230.054 489.22,259.054 461,281.5C 460.667,324.5 460.333,367.5 460,410.5C 454.167,437.667 437.667,454.167 410.5,460C 298.167,460.5 185.834,460.667 73.5,460.5C 65.515,454.883 65.515,449.217 73.5,443.5C 184.335,443.833 295.001,443.499 405.5,442.5C 426.833,439.167 439.167,426.833 442.5,405.5C 443.664,367.669 443.831,329.669 443,291.5C 442.005,292.066 441.172,292.733 440.5,293.5C 435.675,295.324 431.008,297.324 426.5,299.5C 367.566,316.573 318.732,301.573 280,254.5C 259.432,224.495 251.932,191.495 257.5,155.5C 258.404,154.791 258.737,153.791 258.5,152.5C 195.998,152.168 133.664,152.501 71.5,153.5C 51.1377,156.694 38.6377,168.361 34,188.5C 33.5001,205.163 33.3334,221.83 33.5,238.5C 39.1667,238.5 44.8333,238.5 50.5,238.5C 72.1692,238.333 93.8359,238.5 115.5,239C 134.127,241.957 146.294,252.457 152,270.5C 153.592,287.121 153.925,303.788 153,320.5C 149.12,339.379 137.954,351.545 119.5,357C 90.6637,357.168 61.9971,357.668 33.5,358.5C 33.4429,377.523 33.6096,396.523 34,415.5C 29.1651,423.043 23.9984,423.376 18.5,416.5C 17.8519,414.914 17.3519,413.247 17,411.5C 16.833,393.158 16.333,374.824 15.5,356.5C 7.65702,353.112 2.32369,347.445 -0.5,339.5C -0.5,311.833 -0.5,284.167 -0.5,256.5C 2.69895,248.964 8.03228,243.297 15.5,239.5C 16.333,221.176 16.833,202.842 17,184.5C 23.4779,157.023 40.6445,140.856 68.5,136C 133.167,135.667 197.833,135.333 262.5,135C 284.91,81.0291 325.41,52.8624 384,50.5C 431.81,51.7305 468.477,72.3972 494,112.5C 502.958,128.212 508.791,144.879 511.5,162.5 Z"/></g>
<g><path style="opacity:1" fill="#c5d7fb" d="M 412.5,71.5 C 466.413,104.692 486.246,152.359 472,214.5C 461.35,244.969 442.184,268.302 414.5,284.5C 360.917,297.584 318.75,281.251 288,235.5C 264.126,190.016 267.793,147.016 299,106.5C 330.031,72.9909 367.864,61.3243 412.5,71.5 Z"/></g>
<g><path style="opacity:1" fill="#a3c2fd" d="M 412.5,71.5 C 463.707,88.5484 491.04,124.048 494.5,178C 492.343,226.007 469.676,260.34 426.5,281C 422.57,282.477 418.57,283.644 414.5,284.5C 442.184,268.302 461.35,244.969 472,214.5C 486.246,152.359 466.413,104.692 412.5,71.5 Z"/></g>
<g><path style="opacity:1" fill="#458efe" d="M 377.5,84.5 C 400.573,83.9198 413.906,94.9198 417.5,117.5C 415.852,140.893 411.018,163.56 403,185.5C 389.949,210.822 376.949,210.822 364,185.5C 355.981,163.552 351.148,140.885 349.5,117.5C 351.629,100.372 360.962,89.3724 377.5,84.5 Z"/></g>
<g><path style="opacity:1" fill="#e6ecfc" d="M 377.5,102.5 C 391.481,100.336 399.147,106.169 400.5,120C 398.583,138.585 394.75,156.751 389,174.5C 387.694,178.446 385.861,182.112 383.5,185.5C 373.523,164.512 367.857,142.345 366.5,119C 366.788,111.218 370.454,105.718 377.5,102.5 Z"/></g>
<g><path style="opacity:1" fill="#84b3fe" d="M 71.5,153.5 C 133.664,152.501 195.998,152.168 258.5,152.5C 258.737,153.791 258.404,154.791 257.5,155.5C 196.176,153.504 134.509,152.837 72.5,153.5C 72.1667,153.5 71.8333,153.5 71.5,153.5 Z"/></g>
<g><path style="opacity:1" fill="#e7ecfc" d="M 72.5,153.5 C 134.509,152.837 196.176,153.504 257.5,155.5C 251.932,191.495 259.432,224.495 280,254.5C 318.732,301.573 367.566,316.573 426.5,299.5C 426.667,335.168 426.5,370.835 426,406.5C 423.547,421.08 416.714,433.08 405.5,442.5C 295.001,443.499 184.335,443.833 73.5,443.5C 61.2079,434.6 53.7079,422.6 51,407.5C 50.5001,391.17 50.3334,374.837 50.5,358.5C 44.8333,358.5 39.1667,358.5 33.5,358.5C 61.9971,357.668 90.6637,357.168 119.5,357C 137.954,351.545 149.12,339.379 153,320.5C 153.925,303.788 153.592,287.121 152,270.5C 146.294,252.457 134.127,241.957 115.5,239C 93.8359,238.5 72.1692,238.333 50.5,238.5C 50.0675,220.12 50.5675,201.786 52,183.5C 55.5038,171.173 62.3371,161.173 72.5,153.5 Z"/></g>
<g><path style="opacity:1" fill="#fcfdff" d="M 71.5,153.5 C 71.8333,153.5 72.1667,153.5 72.5,153.5C 62.3371,161.173 55.5038,171.173 52,183.5C 50.5675,201.786 50.0675,220.12 50.5,238.5C 44.8333,238.5 39.1667,238.5 33.5,238.5C 33.3334,221.83 33.5001,205.163 34,188.5C 38.6377,168.361 51.1377,156.694 71.5,153.5 Z"/></g>
<g><path style="opacity:1" fill="#458efe" d="M 81.5,170.5 C 87.2896,170.096 92.9562,170.596 98.5,172C 103.194,178.103 102.194,183.103 95.5,187C 90.3822,187.888 85.3822,187.555 80.5,186C 74.9742,180.357 75.3075,175.19 81.5,170.5 Z"/></g>
<g><path style="opacity:1" fill="#478ffe" d="M 123.5,170.5 C 129.621,170.09 135.621,170.59 141.5,172C 146.096,178.086 145.096,183.086 138.5,187C 133.833,187.667 129.167,187.667 124.5,187C 119.845,184.103 118.345,179.937 120,174.5C 121.376,173.295 122.542,171.962 123.5,170.5 Z"/></g>
<g><path style="opacity:1" fill="#488ffe" d="M 166.5,170.5 C 171.844,170.334 177.177,170.501 182.5,171C 189.612,177.421 188.945,182.754 180.5,187C 175.382,187.888 170.382,187.555 165.5,186C 159.974,180.357 160.308,175.19 166.5,170.5 Z"/></g>
<g><path style="opacity:1" fill="#458efe" d="M 209.5,170.5 C 215.29,170.096 220.956,170.596 226.5,172C 231.194,178.103 230.194,183.103 223.5,187C 218.382,187.888 213.382,187.555 208.5,186C 202.974,180.357 203.308,175.19 209.5,170.5 Z"/></g>
<g><path style="opacity:1" fill="#448dfe" d="M 378.5,221.5 C 400.025,221.521 409.858,232.188 408,253.5C 402.899,267.921 392.733,274.088 377.5,272C 360.021,264.925 354.521,252.425 361,234.5C 365.049,227.599 370.882,223.266 378.5,221.5 Z"/></g>
<g><path style="opacity:1" fill="#e4eafc" d="M 380.5,238.5 C 389.207,238.037 392.707,242.037 391,250.5C 388.774,254.861 385.274,256.361 380.5,255C 375.845,252.103 374.345,247.937 376,242.5C 377.397,240.93 378.897,239.596 380.5,238.5 Z"/></g>
<g><path style="opacity:1" fill="#fdfeff" d="M 35.5,255.5 C 35.2914,256.922 34.7914,258.255 34,259.5C 33.3333,285.167 33.3333,310.833 34,336.5C 34.4101,337.901 34.9101,339.234 35.5,340.5C 30.8215,340.666 26.1548,340.499 21.5,340C 19.1853,338.891 17.6853,337.057 17,334.5C 16.3333,309.833 16.3333,285.167 17,260.5C 18.5,259 20,257.5 21.5,256C 26.1548,255.501 30.8215,255.334 35.5,255.5 Z"/></g>
<g><path style="opacity:1" fill="#e7ecfc" d="M 35.5,255.5 C 59.5,255.5 83.5,255.5 107.5,255.5C 117.543,264.954 120.876,276.287 117.5,289.5C 109.392,273.629 97.0589,269.129 80.5,276C 67.0511,285.632 64.2178,297.798 72,312.5C 82.3085,324.601 94.4752,326.768 108.5,319C 112.858,315.774 115.858,311.608 117.5,306.5C 120.454,319.348 117.454,330.682 108.5,340.5C 84.1667,340.5 59.8333,340.5 35.5,340.5C 34.9101,339.234 34.4101,337.901 34,336.5C 33.3333,310.833 33.3333,285.167 34,259.5C 34.7914,258.255 35.2914,256.922 35.5,255.5 Z"/></g>
<g><path style="opacity:1" fill="#c7d7fc" d="M 107.5,255.5 C 122.322,255.324 131.822,262.324 136,276.5C 136.667,290.5 136.667,304.5 136,318.5C 132.564,333.111 123.397,340.445 108.5,340.5C 117.454,330.682 120.454,319.348 117.5,306.5C 118.833,300.833 118.833,295.167 117.5,289.5C 120.876,276.287 117.543,264.954 107.5,255.5 Z"/></g>
<g><path style="opacity:1" fill="#448efe" d="M 117.5,289.5 C 118.833,295.167 118.833,300.833 117.5,306.5C 115.858,311.608 112.858,315.774 108.5,319C 94.4752,326.768 82.3085,324.601 72,312.5C 64.2178,297.798 67.0511,285.632 80.5,276C 97.0589,269.129 109.392,273.629 117.5,289.5 Z"/></g>
<g><path style="opacity:1" fill="#a1c0f7" d="M 90.5,289.5 C 99.2071,289.037 102.707,293.037 101,301.5C 98.4586,306.069 94.6253,307.569 89.5,306C 82.6707,300.003 83.004,294.503 90.5,289.5 Z"/></g>
<g><path style="opacity:1" fill="#a5c4fd" d="M 442.5,405.5 C 443.16,367.818 442.494,330.485 440.5,293.5C 441.172,292.733 442.005,292.066 443,291.5C 443.831,329.669 443.664,367.669 442.5,405.5 Z"/></g>
<g><path style="opacity:1" fill="#c9d8fc" d="M 440.5,293.5 C 442.494,330.485 443.16,367.818 442.5,405.5C 439.167,426.833 426.833,439.167 405.5,442.5C 416.714,433.08 423.547,421.08 426,406.5C 426.5,370.835 426.667,335.168 426.5,299.5C 431.008,297.324 435.675,295.324 440.5,293.5 Z"/></g>
<g><path style="opacity:0.981" fill="#fdfdff" d="M 33.5,358.5 C 39.1667,358.5 44.8333,358.5 50.5,358.5C 50.3334,374.837 50.5001,391.17 51,407.5C 53.7079,422.6 61.2079,434.6 73.5,443.5C 65.515,449.217 65.515,454.883 73.5,460.5C 61.6459,459.994 50.9792,456.327 41.5,449.5C 50.7051,449.794 54.2051,445.46 52,436.5C 47,431.167 42,431.167 37,436.5C 36.3412,439.888 36.5078,443.221 37.5,446.5C 27.9412,438.595 21.6079,428.595 18.5,416.5C 23.9984,423.376 29.1651,423.043 34,415.5C 33.6096,396.523 33.4429,377.523 33.5,358.5 Z"/></g>
<g><path style="opacity:1" fill="#468ffe" d="M 80.5,409.5 C 86.1764,409.334 91.8431,409.501 97.5,410C 103.315,416.145 102.649,421.478 95.5,426C 90.3822,426.888 85.3822,426.555 80.5,425C 75.2215,419.836 75.2215,414.669 80.5,409.5 Z"/></g>
<g><path style="opacity:1" fill="#478ffe" d="M 123.5,409.5 C 129.621,409.09 135.621,409.59 141.5,411C 146.096,417.086 145.096,422.086 138.5,426C 132.574,427.11 126.908,426.444 121.5,424C 118.366,418.566 119.033,413.733 123.5,409.5 Z"/></g>
<g><path style="opacity:1" fill="#4990fe" d="M 166.5,409.5 C 172.621,409.09 178.621,409.59 184.5,411C 189.362,417.696 188.029,422.696 180.5,426C 175.382,426.888 170.382,426.555 165.5,425C 159.974,419.357 160.308,414.19 166.5,409.5 Z"/></g>
<g><path style="opacity:1" fill="#468ffe" d="M 208.5,409.5 C 214.176,409.334 219.843,409.501 225.5,410C 231.315,416.145 230.649,421.478 223.5,426C 218.382,426.888 213.382,426.555 208.5,425C 203.221,419.836 203.221,414.669 208.5,409.5 Z"/></g>
<g><path style="opacity:1" fill="#478ffe" d="M 251.5,409.5 C 257.621,409.09 263.621,409.59 269.5,411C 274.096,417.086 273.096,422.086 266.5,426C 260.574,427.11 254.908,426.444 249.5,424C 246.366,418.566 247.033,413.733 251.5,409.5 Z"/></g>
<g><path style="opacity:1" fill="#4990fe" d="M 294.5,409.5 C 300.621,409.09 306.621,409.59 312.5,411C 317.362,417.696 316.029,422.696 308.5,426C 303.382,426.888 298.382,426.555 293.5,425C 287.974,419.357 288.308,414.19 294.5,409.5 Z"/></g>
<g><path style="opacity:1" fill="#468ffe" d="M 336.5,409.5 C 342.176,409.334 347.843,409.501 353.5,410C 359.315,416.145 358.649,421.478 351.5,426C 346.382,426.888 341.382,426.555 336.5,425C 331.221,419.836 331.221,414.669 336.5,409.5 Z"/></g>
<g><path style="opacity:1" fill="#478ffe" d="M 379.5,409.5 C 385.621,409.09 391.621,409.59 397.5,411C 402.096,417.086 401.096,422.086 394.5,426C 388.574,427.11 382.908,426.444 377.5,424C 374.366,418.566 375.033,413.733 379.5,409.5 Z"/></g>
<g><path style="opacity:1" fill="#488fff" d="M 41.5,449.5 C 39.7697,448.974 38.4363,447.974 37.5,446.5C 36.5078,443.221 36.3412,439.888 37,436.5C 42,431.167 47,431.167 52,436.5C 54.2051,445.46 50.7051,449.794 41.5,449.5 Z"/></g>
</svg>
