<?xml version="1.0" encoding="UTF-8"?>
<!DOCTYPE svg PUBLIC "-//W3C//DTD SVG 1.1//EN" "http://www.w3.org/Graphics/SVG/1.1/DTD/svg11.dtd">
<svg xmlns="http://www.w3.org/2000/svg" version="1.1" width="512px" height="512px" style="shape-rendering:geometricPrecision; text-rendering:geometricPrecision; image-rendering:optimizeQuality; fill-rule:evenodd; clip-rule:evenodd" xmlns:xlink="http://www.w3.org/1999/xlink">
<g><path style="opacity:0.981" fill="#78d4f8" d="M 303.5,61.5 C 296.222,67.1089 289.556,73.4423 283.5,80.5C 242.604,70.1884 208.77,81.1884 182,113.5C 178.452,120.099 174.286,126.265 169.5,132C 128.726,135.441 107.892,157.607 107,198.5C 106.333,199.833 105.667,201.167 105,202.5C 98.2186,205.655 91.3853,208.822 84.5,212C 62.0656,227.973 55.2322,249.14 64,275.5C 66.6777,280.866 69.8444,285.866 73.5,290.5C 67.5,296.167 61.5,301.833 55.5,307.5C 37.4919,287.477 31.3253,264.143 37,237.5C 43.6277,212.506 58.7944,195.173 82.5,185.5C 87.763,142.403 111.763,116.903 154.5,109C 184.853,62.5337 227.52,44.2004 282.5,54C 289.853,55.8375 296.853,58.3375 303.5,61.5 Z"/></g>
<g><path style="opacity:0.977" fill="#6bcbf7" d="M 303.5,61.5 C 325.188,71.1875 342.188,86.1875 354.5,106.5C 348.5,112.833 342.5,119.167 336.5,125.5C 324.588,103.712 306.921,88.7122 283.5,80.5C 289.556,73.4423 296.222,67.1089 303.5,61.5 Z"/></g>
<g><path style="opacity:0.981" fill="#62c4f6" d="M 354.5,106.5 C 355.267,107.172 355.934,108.005 356.5,109C 363.738,110.059 370.738,111.892 377.5,114.5C 370.833,121.5 364.167,128.5 357.5,135.5C 353.181,134.965 348.848,134.465 344.5,134C 340.275,132.609 337.608,129.776 336.5,125.5C 342.5,119.167 348.5,112.833 354.5,106.5 Z"/></g>
<g><path style="opacity:0.98" fill="#5cbdf4" d="M 377.5,114.5 C 389.77,119.132 400.103,126.466 408.5,136.5C 401.889,141.774 395.555,147.44 389.5,153.5C 380.971,143.897 370.305,137.897 357.5,135.5C 364.167,128.5 370.833,121.5 377.5,114.5 Z"/></g>
<g><path style="opacity:0.974" fill="#4fadef" d="M 408.5,136.5 C 417.657,146.814 423.657,158.814 426.5,172.5C 419.113,179.891 411.446,186.891 403.5,193.5C 403.78,178.335 399.113,165.002 389.5,153.5C 395.555,147.44 401.889,141.774 408.5,136.5 Z"/></g>
<g><path style="opacity:0.974" fill="#66c8f6" d="M 305.5,188.5 C 298.222,194.109 291.556,200.442 285.5,207.5C 256.272,200.62 228.272,203.953 201.5,217.5C 201.369,216.761 201.536,216.094 202,215.5C 213.702,203.965 225.202,192.298 236.5,180.5C 254.5,177.664 272.5,178.497 290.5,183C 295.857,184.171 300.857,186.004 305.5,188.5 Z"/></g>
<g><path style="opacity:0.976" fill="#6ccbf7" d="M 236.5,180.5 C 225.202,192.298 213.702,203.965 202,215.5C 201.536,216.094 201.369,216.761 201.5,217.5C 180.5,228.5 164.5,244.5 153.5,265.5C 140.525,276.808 128.192,288.808 116.5,301.5C 124.135,250.37 151.135,213.536 197.5,191C 209.964,185.467 222.964,181.967 236.5,180.5 Z"/></g>
<g><path style="opacity:0.979" fill="#5cbdf4" d="M 305.5,188.5 C 315.165,191.5 324.165,195.833 332.5,201.5C 327.197,208.47 321.197,214.804 314.5,220.5C 305.214,215.188 295.547,210.855 285.5,207.5C 291.556,200.442 298.222,194.109 305.5,188.5 Z"/></g>
<g><path style="opacity:0.976" fill="#44a1eb" d="M 426.5,172.5 C 427.702,176.714 428.369,181.048 428.5,185.5C 436.787,188.307 444.12,192.64 450.5,198.5C 444.5,204.833 438.5,211.167 432.5,217.5C 425.251,212.041 417.251,207.874 408.5,205C 405.051,201.935 403.384,198.102 403.5,193.5C 411.446,186.891 419.113,179.891 426.5,172.5 Z"/></g>
<g><path style="opacity:0.981" fill="#3d98e9" d="M 450.5,198.5 C 455.789,203.091 460.123,208.424 463.5,214.5C 457.5,221.5 451.5,228.5 445.5,235.5C 441.973,228.965 437.64,222.965 432.5,217.5C 438.5,211.167 444.5,204.833 450.5,198.5 Z"/></g>
<g><path style="opacity:0.971" fill="#53b3f1" d="M 332.5,201.5 C 340.089,206.458 347.089,212.125 353.5,218.5C 348.167,224.833 342.833,231.167 337.5,237.5C 330.115,231.448 322.448,225.781 314.5,220.5C 321.197,214.804 327.197,208.47 332.5,201.5 Z"/></g>
<g><path style="opacity:0.98" fill="#49a7ed" d="M 353.5,218.5 C 361.947,226.948 369.28,236.281 375.5,246.5C 375.649,247.552 375.483,248.552 375,249.5C 369.667,254.833 364.333,260.167 359,265.5C 358.617,264.944 358.117,264.611 357.5,264.5C 351.636,254.96 344.969,245.96 337.5,237.5C 342.833,231.167 348.167,224.833 353.5,218.5 Z"/></g>
<g><path style="opacity:0.989" fill="#5dbef4" d="M 267.5,251.5 C 266.761,251.369 266.094,251.536 265.5,252C 251.965,265.702 238.299,279.202 224.5,292.5C 224.5,289.5 224.5,286.5 224.5,283.5C 210.838,283.998 206.005,277.665 210,264.5C 211.543,262.622 213.376,261.122 215.5,260C 224.827,259.5 234.161,259.334 243.5,259.5C 242.649,247.185 248.315,242.018 260.5,244C 263.717,245.715 266.05,248.215 267.5,251.5 Z"/></g>
<g><path style="opacity:0.986" fill="#58b8f2" d="M 267.5,251.5 C 267.5,254.167 267.5,256.833 267.5,259.5C 272.367,259.118 277.034,259.785 281.5,261.5C 274.5,268.833 267.5,276.167 260.5,283.5C 256.833,283.5 253.167,283.5 249.5,283.5C 249.5,286.167 249.5,288.833 249.5,291.5C 242.33,301.346 233.996,310.346 224.5,318.5C 224.5,309.833 224.5,301.167 224.5,292.5C 238.299,279.202 251.965,265.702 265.5,252C 266.094,251.536 266.761,251.369 267.5,251.5 Z"/></g>
<g><path style="opacity:0.988" fill="#2d86e3" d="M 476.5,255.5 C 473.538,296.265 452.205,321.431 412.5,331C 408.179,331.499 403.846,331.666 399.5,331.5C 424.55,305.449 450.217,280.116 476.5,255.5 Z"/></g>
<g><path style="opacity:0.979" fill="#53b2f0" d="M 281.5,261.5 C 288.644,263.987 294.311,268.32 298.5,274.5C 292.528,280.807 286.528,287.14 280.5,293.5C 279.49,289.684 277.157,286.851 273.5,285C 269.23,283.925 264.897,283.425 260.5,283.5C 267.5,276.167 274.5,268.833 281.5,261.5 Z"/></g>
<g><path style="opacity:0.982" fill="#68c9f7" d="M 153.5,265.5 C 139.965,292.379 136.632,320.379 143.5,349.5C 136.442,355.556 130.109,362.222 124.5,369.5C 119.64,357.386 116.64,344.72 115.5,331.5C 91.5865,332.864 71.5865,324.864 55.5,307.5C 61.5,301.833 67.5,296.167 73.5,290.5C 85.0236,302.014 99.0236,307.681 115.5,307.5C 115.517,305.435 115.85,303.435 116.5,301.5C 128.192,288.808 140.525,276.808 153.5,265.5 Z"/></g>
<g><path style="opacity:0.973" fill="#3f9ae9" d="M 375.5,246.5 C 383.293,259.193 388.96,272.86 392.5,287.5C 385.167,294.5 377.833,301.5 370.5,308.5C 368.589,293.101 364.255,278.434 357.5,264.5C 358.117,264.611 358.617,264.944 359,265.5C 364.333,260.167 369.667,254.833 375,249.5C 375.483,248.552 375.649,247.552 375.5,246.5 Z"/></g>
<g><path style="opacity:0.989" fill="#4eadef" d="M 298.5,274.5 C 302.592,280.103 304.926,286.437 305.5,293.5C 292.5,305.833 279.833,318.5 267.5,331.5C 261.5,331.5 255.5,331.5 249.5,331.5C 249.5,337.5 249.5,343.5 249.5,349.5C 239.167,359.167 229.167,369.167 219.5,379.5C 210.291,378.097 206.791,372.764 209,363.5C 211.796,356.517 216.962,353.85 224.5,355.5C 224.5,343.167 224.5,330.833 224.5,318.5C 233.996,310.346 242.33,301.346 249.5,291.5C 249.5,296.833 249.5,302.167 249.5,307.5C 257.561,307.821 265.561,307.321 273.5,306C 278.287,303.264 280.62,299.097 280.5,293.5C 286.528,287.14 292.528,280.807 298.5,274.5 Z"/></g>
<g><path style="opacity:0.975" fill="#48a5ed" d="M 305.5,293.5 C 305.681,303.292 302.681,311.958 296.5,319.5C 297.952,320.94 298.952,322.606 299.5,324.5C 293.5,331.167 287.167,337.5 280.5,343.5C 279.315,336.076 274.982,332.076 267.5,331.5C 279.833,318.5 292.5,305.833 305.5,293.5 Z"/></g>
<g><path style="opacity:0.983" fill="#338ee5" d="M 463.5,214.5 C 471.671,226.821 476.005,240.488 476.5,255.5C 450.217,280.116 424.55,305.449 399.5,331.5C 398.167,331.5 396.833,331.5 395.5,331.5C 395.634,333.292 395.301,334.958 394.5,336.5C 382.833,347.833 371.167,359.167 359.5,370.5C 368.55,350.828 372.216,330.161 370.5,308.5C 377.833,301.5 385.167,294.5 392.5,287.5C 393.686,294.136 394.686,300.802 395.5,307.5C 427.557,304.777 445.557,287.444 449.5,255.5C 448.796,248.688 447.463,242.021 445.5,235.5C 451.5,228.5 457.5,221.5 463.5,214.5 Z"/></g>
<g><path style="opacity:0.986" fill="#429eeb" d="M 299.5,324.5 C 308.562,340.7 306.896,355.867 294.5,370C 286.815,376.84 277.815,380.007 267.5,379.5C 268.351,391.815 262.685,396.982 250.5,395C 244.564,391.961 242.231,387.128 243.5,380.5C 252.167,372.5 260.5,364.167 268.5,355.5C 275.416,354.585 279.416,350.585 280.5,343.5C 287.167,337.5 293.5,331.167 299.5,324.5 Z"/></g>
<g><path style="opacity:0.98" fill="#2e88e4" d="M 394.5,336.5 C 393.608,346.402 391.608,356.068 388.5,365.5C 358.55,393.783 329.216,422.783 300.5,452.5C 282.778,458.963 264.445,461.296 245.5,459.5C 253.5,451.167 261.5,442.833 269.5,434.5C 309.838,427.466 339.838,406.132 359.5,370.5C 371.167,359.167 382.833,347.833 394.5,336.5 Z"/></g>
<g><path style="opacity:0.992" fill="#48a5ec" d="M 249.5,349.5 C 249.5,351.5 249.5,353.5 249.5,355.5C 255.833,355.5 262.167,355.5 268.5,355.5C 260.5,364.167 252.167,372.5 243.5,380.5C 235.684,379.508 227.684,379.174 219.5,379.5C 229.167,369.167 239.167,359.167 249.5,349.5 Z"/></g>
<g><path style="opacity:0.98" fill="#5abaf3" d="M 143.5,349.5 C 147.46,361.755 152.793,373.422 159.5,384.5C 153.108,389.89 147.441,395.89 142.5,402.5C 134.696,392.565 128.696,381.565 124.5,369.5C 130.109,362.222 136.442,355.556 143.5,349.5 Z"/></g>
<g><path style="opacity:0.962" fill="#2982e2" d="M 388.5,365.5 C 373.069,408.598 343.736,437.598 300.5,452.5C 329.216,422.783 358.55,393.783 388.5,365.5 Z"/></g>
<g><path style="opacity:0.982" fill="#51b0f0" d="M 159.5,384.5 C 167.042,394.586 175.709,403.586 185.5,411.5C 180.559,418.11 174.892,424.11 168.5,429.5C 157.806,422.439 149.139,413.439 142.5,402.5C 147.441,395.89 153.108,389.89 159.5,384.5 Z"/></g>
<g><path style="opacity:0.98" fill="#47a5ed" d="M 185.5,411.5 C 191.701,415.764 198.034,419.764 204.5,423.5C 198.44,429.555 192.774,435.889 187.5,442.5C 180.338,439.331 174.005,434.998 168.5,429.5C 174.892,424.11 180.559,418.11 185.5,411.5 Z"/></g>
<g><path style="opacity:0.977" fill="#429eea" d="M 204.5,423.5 C 211.762,426.365 219.095,429.032 226.5,431.5C 220.167,438.167 213.833,444.833 207.5,451.5C 200.29,449.559 193.624,446.559 187.5,442.5C 192.774,435.889 198.44,429.555 204.5,423.5 Z"/></g>
<g><path style="opacity:0.983" fill="#3893e7" d="M 226.5,431.5 C 240.759,434.542 255.093,435.542 269.5,434.5C 261.5,442.833 253.5,451.167 245.5,459.5C 232.264,458.987 219.597,456.321 207.5,451.5C 213.833,444.833 220.167,438.167 226.5,431.5 Z"/></g>
</svg>
