<?xml version="1.0" encoding="UTF-8"?>
<!DOCTYPE svg PUBLIC "-//W3C//DTD SVG 1.1//EN" "http://www.w3.org/Graphics/SVG/1.1/DTD/svg11.dtd">
<svg xmlns="http://www.w3.org/2000/svg" version="1.1" width="512px" height="512px" style="shape-rendering:geometricPrecision; text-rendering:geometricPrecision; image-rendering:optimizeQuality; fill-rule:evenodd; clip-rule:evenodd" xmlns:xlink="http://www.w3.org/1999/xlink">
<g><path style="opacity:0.997" fill="#06a4f5" d="M 462.5,61.5 C 408.5,115.833 354.5,170.167 300.5,224.5C 295.803,222.822 291.803,220.156 288.5,216.5C 339.299,165.201 390.299,114.035 441.5,63C 440.906,62.5357 440.239,62.369 439.5,62.5C 447.025,57.7117 454.691,57.3783 462.5,61.5 Z"/></g>
<g><path style="opacity:0.995" fill="#069ff4" d="M 462.5,61.5 C 471.708,65.5583 477.375,72.5583 479.5,82.5C 451.783,109.216 424.783,136.55 398.5,164.5C 373.996,184.167 349.329,203.667 324.5,223C 316.613,228.162 308.613,228.662 300.5,224.5C 354.5,170.167 408.5,115.833 462.5,61.5 Z"/></g>
<g><path style="opacity:0.988" fill="#07a6f5" d="M 439.5,62.5 C 440.239,62.369 440.906,62.5357 441.5,63C 390.299,114.035 339.299,165.201 288.5,216.5C 284.808,214.656 281.475,212.323 278.5,209.5C 278.369,208.761 278.536,208.094 279,207.5C 307.035,179.632 334.868,151.632 362.5,123.5C 387.298,102.031 412.965,81.6981 439.5,62.5 Z"/></g>
<g><path style="opacity:0.982" fill="#069bf4" d="M 479.5,82.5 C 480.265,90.7056 478.098,98.039 473,104.5C 448.292,124.713 423.459,144.713 398.5,164.5C 424.783,136.55 451.783,109.216 479.5,82.5 Z"/></g>
<g><path style="opacity:0.993" fill="#09c3f9" d="M 227.5,101.5 C 188.035,141.465 148.368,181.299 108.5,221C 108.728,221.399 109.062,221.565 109.5,221.5C 97.3541,231.469 85.0208,241.303 72.5,251C 53.939,259.481 40.439,254.314 32,235.5C 29.4297,226.018 31.0964,217.351 37,209.5C 85.0752,170.547 133.242,131.713 181.5,93C 193.137,85.7432 204.804,85.7432 216.5,93C 220.597,95.3696 224.264,98.2029 227.5,101.5 Z"/></g>
<g><path style="opacity:0.98" fill="#09bff8" d="M 227.5,101.5 C 235.233,106.694 242.567,112.361 249.5,118.5C 236.167,131.5 222.833,144.5 209.5,157.5C 205.037,153.458 200.037,152.624 194.5,155C 166.291,177.381 137.958,199.548 109.5,221.5C 109.062,221.565 108.728,221.399 108.5,221C 148.368,181.299 188.035,141.465 227.5,101.5 Z"/></g>
<g><path style="opacity:0.99" fill="#08b8f7" d="M 249.5,118.5 C 256.738,122.738 263.404,127.738 269.5,133.5C 257.422,147.081 244.756,160.247 231.5,173C 232.252,173.671 232.586,174.504 232.5,175.5C 224.809,169.469 217.142,163.469 209.5,157.5C 222.833,144.5 236.167,131.5 249.5,118.5 Z"/></g>
<g><path style="opacity:0.986" fill="#07abf5" d="M 362.5,123.5 C 334.868,151.632 307.035,179.632 279,207.5C 278.536,208.094 278.369,208.761 278.5,209.5C 270.922,204.883 263.922,199.55 257.5,193.5C 257.389,192.883 257.056,192.383 256.5,192C 269.756,179.247 282.422,166.081 294.5,152.5C 299.502,156.336 304.835,159.669 310.5,162.5C 311.795,161.902 313.128,161.402 314.5,161C 330.394,148.261 346.394,135.761 362.5,123.5 Z"/></g>
<g><path style="opacity:0.989" fill="#07b2f6" d="M 269.5,133.5 C 278.123,139.457 286.456,145.79 294.5,152.5C 282.422,166.081 269.756,179.247 256.5,192C 257.056,192.383 257.389,192.883 257.5,193.5C 249.019,187.755 240.686,181.755 232.5,175.5C 232.586,174.504 232.252,173.671 231.5,173C 244.756,160.247 257.422,147.081 269.5,133.5 Z"/></g>
<g><path style="opacity:0.978" fill="#07b0f6" d="M 216.5,233.5 C 215.761,233.369 215.094,233.536 214.5,234C 200.299,248.369 185.965,262.535 171.5,276.5C 171.176,266.783 171.676,257.116 173,247.5C 180.237,228.805 193.404,222.972 212.5,230C 214.093,230.949 215.426,232.115 216.5,233.5 Z"/></g>
<g><path style="opacity:0.977" fill="#048cf1" d="M 445.5,237.5 C 444.761,237.369 444.094,237.536 443.5,238C 427.965,253.702 412.299,269.202 396.5,284.5C 396.333,273.828 396.5,263.161 397,252.5C 400.663,233.411 412.163,225.244 431.5,228C 437.377,229.435 442.044,232.601 445.5,237.5 Z"/></g>
<g><path style="opacity:0.994" fill="#07abf5" d="M 216.5,233.5 C 223.633,239.783 226.966,247.783 226.5,257.5C 225.71,258.609 225.21,259.942 225,261.5C 207.582,279.421 189.748,296.754 171.5,313.5C 171.5,301.167 171.5,288.833 171.5,276.5C 185.965,262.535 200.299,248.369 214.5,234C 215.094,233.536 215.761,233.369 216.5,233.5 Z"/></g>
<g><path style="opacity:0.985" fill="#0486f0" d="M 445.5,237.5 C 448.105,241.05 449.939,245.05 451,249.5C 451.499,255.491 451.666,261.491 451.5,267.5C 433.167,285.5 414.833,303.5 396.5,321.5C 396.5,309.167 396.5,296.833 396.5,284.5C 412.299,269.202 427.965,253.702 443.5,238C 444.094,237.536 444.761,237.369 445.5,237.5 Z"/></g>
<g><path style="opacity:0.987" fill="#0380ef" d="M 451.5,267.5 C 451.5,282.167 451.5,296.833 451.5,311.5C 433.167,329.5 414.833,347.5 396.5,365.5C 396.5,350.833 396.5,336.167 396.5,321.5C 414.833,303.5 433.167,285.5 451.5,267.5 Z"/></g>
<g><path style="opacity:0.986" fill="#06a5f4" d="M 226.5,257.5 C 226.5,271.167 226.5,284.833 226.5,298.5C 208.535,315.965 190.701,333.632 173,351.5C 172.79,353.058 172.29,354.391 171.5,355.5C 171.5,341.5 171.5,327.5 171.5,313.5C 189.748,296.754 207.582,279.421 225,261.5C 225.21,259.942 225.71,258.609 226.5,257.5 Z"/></g>
<g><path style="opacity:0.995" fill="#0593f2" d="M 338.5,306.5 C 320.418,323.079 302.752,340.246 285.5,358C 284.906,358.464 284.239,358.631 283.5,358.5C 284.28,340.524 284.78,322.524 285,304.5C 291.073,286.877 303.24,280.377 321.5,285C 331.096,289.092 336.763,296.259 338.5,306.5 Z"/></g>
<g><path style="opacity:0.988" fill="#069ff4" d="M 226.5,298.5 C 226.5,310.833 226.5,323.167 226.5,335.5C 208.535,352.965 190.701,370.632 173,388.5C 172.722,387.584 172.222,386.918 171.5,386.5C 171.5,376.167 171.5,365.833 171.5,355.5C 172.29,354.391 172.79,353.058 173,351.5C 190.701,333.632 208.535,315.965 226.5,298.5 Z"/></g>
<g><path style="opacity:0.992" fill="#048cf1" d="M 338.5,306.5 C 339.436,318.129 339.77,329.796 339.5,341.5C 321.527,360.14 303.194,378.473 284.5,396.5C 283.935,383.841 283.602,371.174 283.5,358.5C 284.239,358.631 284.906,358.464 285.5,358C 302.752,340.246 320.418,323.079 338.5,306.5 Z"/></g>
<g><path style="opacity:0.989" fill="#0379ef" d="M 451.5,311.5 C 451.5,324.167 451.5,336.833 451.5,349.5C 433.167,367.5 414.833,385.5 396.5,403.5C 396.5,390.833 396.5,378.167 396.5,365.5C 414.833,347.5 433.167,329.5 451.5,311.5 Z"/></g>
<g><path style="opacity:0.994" fill="#07b2f6" d="M 113.5,335.5 C 95.5,353.167 77.5,370.833 59.5,388.5C 59.3334,369.83 59.5001,351.164 60,332.5C 66.0608,314.883 78.2274,308.383 96.5,313C 106.557,317.219 112.224,324.719 113.5,335.5 Z"/></g>
<g><path style="opacity:0.989" fill="#07abf5" d="M 113.5,335.5 C 114.479,347.42 114.812,359.42 114.5,371.5C 96.8956,389.605 79.0622,407.605 61,425.5C 60.5045,427.473 60.3379,429.473 60.5,431.5C 59.5041,417.343 59.1707,403.01 59.5,388.5C 77.5,370.833 95.5,353.167 113.5,335.5 Z"/></g>
<g><path style="opacity:0.985" fill="#0486f0" d="M 339.5,341.5 C 339.5,354.5 339.5,367.5 339.5,380.5C 338.761,380.369 338.094,380.536 337.5,381C 320.299,398.368 302.965,415.535 285.5,432.5C 284.521,420.58 284.188,408.58 284.5,396.5C 303.194,378.473 321.527,360.14 339.5,341.5 Z"/></g>
<g><path style="opacity:0.988" fill="#0598f3" d="M 226.5,335.5 C 226.5,350.167 226.5,364.833 226.5,379.5C 208.5,396.833 190.833,414.5 173.5,432.5C 172.691,430.708 172.191,428.708 172,426.5C 171.5,413.171 171.333,399.837 171.5,386.5C 172.222,386.918 172.722,387.584 173,388.5C 190.701,370.632 208.535,352.965 226.5,335.5 Z"/></g>
<g><path style="opacity:0.99" fill="#0273ee" d="M 451.5,349.5 C 451.5,362.833 451.5,376.167 451.5,389.5C 450.883,389.389 450.383,389.056 450,388.5C 433.632,405.035 417.132,421.368 400.5,437.5C 398.282,434.281 397.115,430.614 397,426.5C 396.5,418.841 396.334,411.174 396.5,403.5C 414.833,385.5 433.167,367.5 451.5,349.5 Z"/></g>
<g><path style="opacity:0.982" fill="#07a6f5" d="M 114.5,371.5 C 114.5,381.5 114.5,391.5 114.5,401.5C 113.679,398.359 113.179,395.025 113,391.5C 96.6315,407.701 80.4649,424.035 64.5,440.5C 62.0257,438.102 60.6924,435.102 60.5,431.5C 60.3379,429.473 60.5045,427.473 61,425.5C 79.0622,407.605 96.8956,389.605 114.5,371.5 Z"/></g>
<g><path style="opacity:0.994" fill="#0592f2" d="M 226.5,379.5 C 226.667,396.17 226.5,412.837 226,429.5C 222.152,447.012 211.318,454.512 193.5,452C 182.354,450.02 175.688,443.52 173.5,432.5C 190.833,414.5 208.5,396.833 226.5,379.5 Z"/></g>
<g><path style="opacity:0.98" fill="#037fef" d="M 339.5,380.5 C 339.667,396.17 339.5,411.837 339,427.5C 334.438,447.869 321.938,455.703 301.5,451C 293.092,447.43 287.759,441.263 285.5,432.5C 302.965,415.535 320.299,398.368 337.5,381C 338.094,380.536 338.761,380.369 339.5,380.5 Z"/></g>
<g><path style="opacity:0.995" fill="#06a3f4" d="M 114.5,401.5 C 114.87,411.889 114.37,422.223 113,432.5C 107.526,447.824 96.6925,454.324 80.5,452C 73.1292,450.83 67.7959,446.997 64.5,440.5C 80.4649,424.035 96.6315,407.701 113,391.5C 113.179,395.025 113.679,398.359 114.5,401.5 Z"/></g>
<g><path style="opacity:0.988" fill="#026ced" d="M 451.5,389.5 C 451.667,403.171 451.5,416.837 451,430.5C 446.145,447.336 434.978,454.503 417.5,452C 409.326,449.939 403.66,445.106 400.5,437.5C 417.132,421.368 433.632,405.035 450,388.5C 450.383,389.056 450.883,389.389 451.5,389.5 Z"/></g>
</svg>
