<?xml version="1.0" encoding="UTF-8"?>
<!DOCTYPE svg PUBLIC "-//W3C//DTD SVG 1.1//EN" "http://www.w3.org/Graphics/SVG/1.1/DTD/svg11.dtd">
<svg xmlns="http://www.w3.org/2000/svg" version="1.1" width="512px" height="512px" style="shape-rendering:geometricPrecision; text-rendering:geometricPrecision; image-rendering:optimizeQuality; fill-rule:evenodd; clip-rule:evenodd" xmlns:xlink="http://www.w3.org/1999/xlink">
<g><path style="opacity:0.984" fill="#85dcf9" d="M 159.5,35.5 C 151.167,44.1667 142.833,52.8333 134.5,61.5C 94.7201,70.9465 70.3867,95.6132 61.5,135.5C 52.5531,143.11 43.8865,151.11 35.5,159.5C 34.1849,106.947 56.8516,68.78 103.5,45C 121.371,37.2324 140.037,34.0657 159.5,35.5 Z"/></g>
<g><path style="opacity:0.982" fill="#7bd6f8" d="M 159.5,35.5 C 188.679,37.4298 213.346,48.7632 233.5,69.5C 228.833,76.1667 223.167,81.8333 216.5,86.5C 193.053,65.2387 165.72,56.9054 134.5,61.5C 142.833,52.8333 151.167,44.1667 159.5,35.5 Z"/></g>
<g><path style="opacity:0.978" fill="#73d0f8" d="M 233.5,69.5 C 244.596,79.9361 252.93,92.2694 258.5,106.5C 251.833,112.167 245.167,117.833 238.5,123.5C 233.619,109.639 226.286,97.3061 216.5,86.5C 223.167,81.8333 228.833,76.1667 233.5,69.5 Z"/></g>
<g><path style="opacity:0.978" fill="#7ad5f8" d="M 196.5,110.5 C 195.883,110.389 195.383,110.056 195,109.5C 189.243,115.763 183.076,121.43 176.5,126.5C 175.749,122.165 173.416,118.998 169.5,117C 161.561,115.679 153.561,115.179 145.5,115.5C 145.5,123.5 145.5,131.5 145.5,139.5C 151.833,139.5 158.167,139.5 164.5,139.5C 150.535,153.965 136.369,168.299 122,182.5C 121.819,179.305 121.319,176.305 120.5,173.5C 120.5,154.167 120.5,134.833 120.5,115.5C 106.838,115.998 102.005,109.665 106,96.5C 107.543,94.6217 109.376,93.1217 111.5,92C 120.827,91.5002 130.161,91.3335 139.5,91.5C 138.649,79.1847 144.315,74.0181 156.5,76C 162.74,79.3187 165.074,84.4854 163.5,91.5C 178.695,90.9203 189.695,97.2536 196.5,110.5 Z"/></g>
<g><path style="opacity:0.99" fill="#62c4f6" d="M 378.5,115.5 C 377.761,115.369 377.094,115.536 376.5,116C 360.965,131.702 345.299,147.202 329.5,162.5C 327.164,160.996 325.331,158.996 324,156.5C 323.133,152.044 323.466,147.711 325,143.5C 336.5,132 348,120.5 359.5,109C 366.589,105.151 372.755,106.318 378,112.5C 378.483,113.448 378.649,114.448 378.5,115.5 Z"/></g>
<g><path style="opacity:0.983" fill="#72d0f8" d="M 196.5,110.5 C 203.963,124.875 202.63,138.542 192.5,151.5C 206.192,171.757 203.858,189.924 185.5,206C 178.746,210.197 171.413,212.03 163.5,211.5C 164.351,223.815 158.685,228.982 146.5,227C 140.26,223.681 137.926,218.515 139.5,211.5C 130.161,211.666 120.827,211.5 111.5,211C 104.565,206.491 102.732,200.324 106,192.5C 109.781,188.01 114.614,186.343 120.5,187.5C 120.5,182.833 120.5,178.167 120.5,173.5C 121.319,176.305 121.819,179.305 122,182.5C 136.369,168.299 150.535,153.965 164.5,139.5C 171.871,138.457 175.871,134.124 176.5,126.5C 183.076,121.43 189.243,115.763 195,109.5C 195.383,110.056 195.883,110.389 196.5,110.5 Z M 145.5,163.5 C 153.561,163.179 161.561,163.679 169.5,165C 178.833,172 178.833,179 169.5,186C 161.561,187.321 153.561,187.821 145.5,187.5C 145.5,179.5 145.5,171.5 145.5,163.5 Z"/></g>
<g><path style="opacity:0.968" fill="#5ebff4" d="M 378.5,115.5 C 379.989,119.595 379.489,123.595 377,127.5C 373.5,131 370,134.5 366.5,138C 370.486,138.499 374.486,138.666 378.5,138.5C 366.781,151.22 354.448,163.22 341.5,174.5C 337.167,170.833 333.167,166.833 329.5,162.5C 345.299,147.202 360.965,131.702 376.5,116C 377.094,115.536 377.761,115.369 378.5,115.5 Z"/></g>
<g><path style="opacity:0.978" fill="#56b6f2" d="M 378.5,138.5 C 397.167,138.5 415.833,138.5 434.5,138.5C 427.036,146.465 419.369,154.298 411.5,162C 409.292,162.191 407.292,162.691 405.5,163.5C 392.496,163.333 379.496,163.5 366.5,164C 371.034,168.199 375.201,172.699 379,177.5C 380.727,193.051 374.227,198.217 359.5,193C 353.297,186.965 347.297,180.798 341.5,174.5C 354.448,163.22 366.781,151.22 378.5,138.5 Z"/></g>
<g><path style="opacity:0.968" fill="#49a7ed" d="M 434.5,138.5 C 445.505,138.333 456.505,138.5 467.5,139C 475.095,142.473 477.595,148.306 475,156.5C 473.437,159.728 470.937,161.895 467.5,163C 446.836,163.5 426.169,163.667 405.5,163.5C 407.292,162.691 409.292,162.191 411.5,162C 419.369,154.298 427.036,146.465 434.5,138.5 Z"/></g>
<g><path style="opacity:0.98" fill="#69c9f7" d="M 258.5,106.5 C 277.753,158.987 266.753,204.154 225.5,242C 203.595,259.358 178.595,267.858 150.5,267.5C 159.867,257.813 168.867,248.479 177.5,239.5C 223.66,221.895 245.16,188.228 242,138.5C 241.301,133.371 240.134,128.371 238.5,123.5C 245.167,117.833 251.833,112.167 258.5,106.5 Z"/></g>
<g><path style="opacity:0.982" fill="#7bd6f8" d="M 61.5,135.5 C 57.1733,166.514 65.5067,193.514 86.5,216.5C 81.5603,222.778 76.2269,228.778 70.5,234.5C 48.9083,214.308 37.2417,189.308 35.5,159.5C 43.8865,151.11 52.5531,143.11 61.5,135.5 Z"/></g>
<g><path style="opacity:0.976" fill="#6fcdf7" d="M 86.5,216.5 C 112.8,240.325 143.133,247.991 177.5,239.5C 168.867,248.479 159.867,257.813 150.5,267.5C 119.116,267.461 92.449,256.461 70.5,234.5C 76.2269,228.778 81.5603,222.778 86.5,216.5 Z"/></g>
<g><path style="opacity:0.984" fill="#4dabee" d="M 359.5,243.5 C 350.702,252.798 341.702,261.965 332.5,271C 332.728,271.399 333.062,271.565 333.5,271.5C 302.5,281.833 281.833,302.5 271.5,333.5C 271.565,333.062 271.399,332.728 271,332.5C 261.965,341.702 252.798,350.702 243.5,359.5C 242.998,347.18 244.665,335.18 248.5,323.5C 274.45,299.217 299.783,274.217 324.5,248.5C 335.817,244.693 347.483,243.026 359.5,243.5 Z"/></g>
<g><path style="opacity:0.977" fill="#45a3ec" d="M 359.5,243.5 C 372.889,243.079 385.889,245.079 398.5,249.5C 392.558,256.779 386.225,263.779 379.5,270.5C 364.278,267.197 348.945,267.53 333.5,271.5C 333.062,271.565 332.728,271.399 332.5,271C 341.702,261.965 350.702,252.798 359.5,243.5 Z"/></g>
<g><path style="opacity:0.981" fill="#51b0f0" d="M 324.5,248.5 C 299.783,274.217 274.45,299.217 248.5,323.5C 258.219,294.275 276.552,272.108 303.5,257C 310.244,253.476 317.244,250.642 324.5,248.5 Z"/></g>
<g><path style="opacity:0.972" fill="#3d98e9" d="M 398.5,249.5 C 405.878,252.069 412.878,255.402 419.5,259.5C 413.5,265.833 407.5,272.167 401.5,278.5C 394.542,274.847 387.209,272.18 379.5,270.5C 386.225,263.779 392.558,256.779 398.5,249.5 Z"/></g>
<g><path style="opacity:0.969" fill="#348ee6" d="M 419.5,259.5 C 430.33,265.657 439.664,273.657 447.5,283.5C 441.5,289.167 435.5,294.833 429.5,300.5C 421.65,291.322 412.317,283.988 401.5,278.5C 407.5,272.167 413.5,265.833 419.5,259.5 Z"/></g>
<g><path style="opacity:0.983" fill="#429feb" d="M 364.5,284.5 C 351.833,297.5 339.167,310.5 326.5,323.5C 313.903,322.969 309.736,316.636 314,304.5C 315.543,302.622 317.376,301.122 319.5,300C 328.827,299.5 338.161,299.334 347.5,299.5C 346.78,286.873 352.447,281.873 364.5,284.5 Z"/></g>
<g><path style="opacity:0.992" fill="#3d98e9" d="M 364.5,284.5 C 370.807,287.454 373.14,292.454 371.5,299.5C 374.167,299.5 376.833,299.5 379.5,299.5C 371.833,307.5 364.167,315.5 356.5,323.5C 355.5,323.5 354.5,323.5 353.5,323.5C 346.33,333.346 337.996,342.346 328.5,350.5C 329.138,341.105 328.471,332.105 326.5,323.5C 339.167,310.5 351.833,297.5 364.5,284.5 Z"/></g>
<g><path style="opacity:0.972" fill="#2a82e2" d="M 447.5,283.5 C 456.437,293.027 463.104,304.027 467.5,316.5C 466.883,316.389 466.383,316.056 466,315.5C 459.965,321.703 453.798,327.703 447.5,333.5C 443.338,321.51 437.338,310.51 429.5,300.5C 435.5,294.833 441.5,289.167 447.5,283.5 Z"/></g>
<g><path style="opacity:0.98" fill="#3792e7" d="M 379.5,299.5 C 386.221,300.692 391.888,303.692 396.5,308.5C 390.702,313.797 385.035,319.297 379.5,325C 380.056,325.383 380.389,325.883 380.5,326.5C 372.815,323.846 364.815,322.846 356.5,323.5C 364.167,315.5 371.833,307.5 379.5,299.5 Z"/></g>
<g><path style="opacity:0.987" fill="#2f89e4" d="M 396.5,308.5 C 399.298,309.706 401.465,311.706 403,314.5C 410.898,327.049 411.398,339.716 404.5,352.5C 396.865,358.61 389.365,365.61 382,373.5C 381.536,374.094 381.369,374.761 381.5,375.5C 378.963,373.284 375.963,372.117 372.5,372C 366.175,371.5 359.842,371.334 353.5,371.5C 353.5,379.5 353.5,387.5 353.5,395.5C 355.5,395.5 357.5,395.5 359.5,395.5C 351.833,403.5 344.167,411.5 336.5,419.5C 330.824,419.666 325.157,419.499 319.5,419C 312.565,414.491 310.732,408.324 314,400.5C 315.543,398.622 317.376,397.122 319.5,396C 322.992,396.07 325.992,395.237 328.5,393.5C 344.552,378.449 359.885,362.782 374.5,346.5C 381.554,345.072 384.721,340.738 384,333.5C 383.347,330.861 382.18,328.527 380.5,326.5C 380.389,325.883 380.056,325.383 379.5,325C 385.035,319.297 390.702,313.797 396.5,308.5 Z"/></g>
<g><path style="opacity:0.973" fill="#2279df" d="M 467.5,316.5 C 470.568,323.094 472.568,330.094 473.5,337.5C 466.167,345.5 458.5,353.167 450.5,360.5C 450.87,351.333 449.87,342.333 447.5,333.5C 453.798,327.703 459.965,321.703 466,315.5C 466.383,316.056 466.883,316.389 467.5,316.5 Z"/></g>
<g><path style="opacity:0.992" fill="#61c2f5" d="M 173.5,340.5 C 173.414,341.496 173.748,342.329 174.5,343C 164.251,353.417 153.917,363.584 143.5,373.5C 143.611,372.883 143.944,372.383 144.5,372C 129.837,371.5 115.17,371.333 100.5,371.5C 102.292,370.691 104.292,370.191 106.5,370C 114.369,362.298 122.036,354.465 129.5,346.5C 134.511,346.666 139.511,346.499 144.5,346C 138.69,341.709 134.69,336.209 132.5,329.5C 135.106,318.363 141.773,314.863 152.5,319C 159.703,326.035 166.703,333.202 173.5,340.5 Z"/></g>
<g><path style="opacity:0.975" fill="#1c73de" d="M 473.5,337.5 C 475.215,345.264 475.882,353.264 475.5,361.5C 465.868,370.631 456.368,379.964 447,389.5C 446.601,389.272 446.435,388.938 446.5,388.5C 449.35,379.398 450.683,370.065 450.5,360.5C 458.5,353.167 466.167,345.5 473.5,337.5 Z"/></g>
<g><path style="opacity:0.97" fill="#68c9f7" d="M 129.5,346.5 C 122.036,354.465 114.369,362.298 106.5,370C 104.292,370.191 102.292,370.691 100.5,371.5C 81.4971,371.667 62.4971,371.5 43.5,371C 35.9051,367.527 33.4051,361.694 36,353.5C 37.5629,350.272 40.0629,348.105 43.5,347C 72.1647,346.5 100.831,346.333 129.5,346.5 Z"/></g>
<g><path style="opacity:0.995" fill="#348ee6" d="M 353.5,323.5 C 353.5,331.5 353.5,339.5 353.5,347.5C 360.557,347.76 367.557,347.427 374.5,346.5C 359.885,362.782 344.552,378.449 328.5,393.5C 328.5,379.167 328.5,364.833 328.5,350.5C 337.996,342.346 346.33,333.346 353.5,323.5 Z"/></g>
<g><path style="opacity:0.986" fill="#2880e1" d="M 404.5,352.5 C 403.949,355.267 402.616,357.6 400.5,359.5C 403.904,363.642 406.238,368.309 407.5,373.5C 388.5,392.833 369.5,412.167 350.5,431.5C 349.21,430.942 348.377,429.942 348,428.5C 347.502,425.518 347.335,422.518 347.5,419.5C 343.833,419.5 340.167,419.5 336.5,419.5C 344.167,411.5 351.833,403.5 359.5,395.5C 366.909,396.233 373.909,395.066 380.5,392C 385.352,386.765 385.685,381.265 381.5,375.5C 381.369,374.761 381.536,374.094 382,373.5C 389.365,365.61 396.865,358.61 404.5,352.5 Z"/></g>
<g><path style="opacity:0.967" fill="#56b6f2" d="M 173.5,340.5 C 178.497,344.664 182.997,349.331 187,354.5C 187.867,358.956 187.534,363.289 186,367.5C 174.5,379 163,390.5 151.5,402C 144.69,405.781 138.523,404.948 133,399.5C 131,394.5 131,389.5 133,384.5C 136.732,380.938 140.232,377.271 143.5,373.5C 153.917,363.584 164.251,353.417 174.5,343C 173.748,342.329 173.414,341.496 173.5,340.5 Z"/></g>
<g><path style="opacity:0.976" fill="#44a1eb" d="M 271.5,333.5 C 267.989,348.777 267.656,364.11 270.5,379.5C 263.869,385.631 257.369,391.964 251,398.5C 250.722,397.584 250.222,396.918 249.5,396.5C 244.91,384.72 242.91,372.386 243.5,359.5C 252.798,350.702 261.965,341.702 271,332.5C 271.399,332.728 271.565,333.062 271.5,333.5 Z"/></g>
<g><path style="opacity:0.983" fill="#176ddc" d="M 475.5,361.5 C 475.785,372.838 474.119,383.838 470.5,394.5C 469.883,394.389 469.383,394.056 469,393.5C 443.248,418.751 418.081,444.418 393.5,470.5C 383.279,474.2 372.612,475.867 361.5,475.5C 370.631,465.868 379.964,456.368 389.5,447C 389.272,446.601 388.938,446.435 388.5,446.5C 416.833,436.167 436.167,416.833 446.5,388.5C 446.435,388.938 446.601,389.272 447,389.5C 456.368,379.964 465.868,370.631 475.5,361.5 Z"/></g>
<g><path style="opacity:0.968" fill="#237ae0" d="M 407.5,373.5 C 411.856,392.96 405.19,407.46 387.5,417C 382.37,419.08 377.037,419.913 371.5,419.5C 372.351,431.815 366.685,436.982 354.5,435C 352.676,434.34 351.343,433.173 350.5,431.5C 369.5,412.167 388.5,392.833 407.5,373.5 Z"/></g>
<g><path style="opacity:0.971" fill="#3d98e9" d="M 270.5,379.5 C 272.18,387.209 274.847,394.542 278.5,401.5C 272.167,407.5 265.833,413.5 259.5,419.5C 254.805,412.441 251.472,404.775 249.5,396.5C 250.222,396.918 250.722,397.584 251,398.5C 257.369,391.964 263.869,385.631 270.5,379.5 Z"/></g>
<g><path style="opacity:0.986" fill="#1368da" d="M 470.5,394.5 C 461.209,424.298 442.876,446.798 415.5,462C 408.468,465.685 401.135,468.519 393.5,470.5C 418.081,444.418 443.248,418.751 469,393.5C 469.383,394.056 469.883,394.389 470.5,394.5 Z"/></g>
<g><path style="opacity:0.974" fill="#358fe6" d="M 278.5,401.5 C 283.725,410.392 289.725,418.725 296.5,426.5C 290.5,431.833 284.833,437.5 279.5,443.5C 271.414,436.648 264.747,428.648 259.5,419.5C 265.833,413.5 272.167,407.5 278.5,401.5 Z"/></g>
<g><path style="opacity:0.97" fill="#2e87e4" d="M 296.5,426.5 C 302.523,430.865 308.523,435.199 314.5,439.5C 309.559,446.11 303.892,452.11 297.5,457.5C 290.636,453.973 284.636,449.306 279.5,443.5C 284.833,437.5 290.5,431.833 296.5,426.5 Z"/></g>
<g><path style="opacity:0.971" fill="#2880e2" d="M 314.5,439.5 C 320.277,442.388 326.277,444.721 332.5,446.5C 332.649,447.552 332.483,448.552 332,449.5C 326.298,455.37 320.465,461.036 314.5,466.5C 308.065,464.784 302.398,461.784 297.5,457.5C 303.892,452.11 309.559,446.11 314.5,439.5 Z"/></g>
<g><path style="opacity:0.977" fill="#1c73de" d="M 388.5,446.5 C 388.938,446.435 389.272,446.601 389.5,447C 379.964,456.368 370.631,465.868 361.5,475.5C 353.264,475.882 345.264,475.215 337.5,473.5C 345.167,466.5 352.5,459.167 359.5,451.5C 369.303,450.81 378.969,449.144 388.5,446.5 Z"/></g>
<g><path style="opacity:0.978" fill="#2279df" d="M 332.5,446.5 C 341.383,449.368 350.383,451.034 359.5,451.5C 352.5,459.167 345.167,466.5 337.5,473.5C 329.313,472.542 321.646,470.208 314.5,466.5C 320.465,461.036 326.298,455.37 332,449.5C 332.483,448.552 332.649,447.552 332.5,446.5 Z"/></g>
</svg>
