<?xml version="1.0" encoding="UTF-8"?>
<!DOCTYPE svg PUBLIC "-//W3C//DTD SVG 1.1//EN" "http://www.w3.org/Graphics/SVG/1.1/DTD/svg11.dtd">
<svg xmlns="http://www.w3.org/2000/svg" version="1.1" width="512px" height="512px" style="shape-rendering:geometricPrecision; text-rendering:geometricPrecision; image-rendering:optimizeQuality; fill-rule:evenodd; clip-rule:evenodd" xmlns:xlink="http://www.w3.org/1999/xlink">
<g><path style="opacity:0.993" fill="#2488ff" d="M 243.5,-0.5 C 247.5,-0.5 251.5,-0.5 255.5,-0.5C 255.5,170.167 255.5,340.833 255.5,511.5C 251.833,511.5 248.167,511.5 244.5,511.5C 217.048,505.55 199.881,488.883 193,461.5C 191.689,380.19 191.023,298.857 191,217.5C 180.833,227.667 170.667,237.833 160.5,248C 140.424,263.377 118.424,266.711 94.5,258C 60.0334,239.876 48.5334,212.043 60,174.5C 63.2502,167.66 67.2502,161.327 72,155.5C 118.5,109 165,62.5 211.5,16C 220.995,8.08666 231.662,2.58666 243.5,-0.5 Z"/></g>
<g><path style="opacity:1" fill="#006df0" d="M 255.5,-0.5 C 259.167,-0.5 262.833,-0.5 266.5,-0.5C 279.271,2.38631 290.604,8.21965 300.5,17C 346.667,63.1667 392.833,109.333 439,155.5C 457.801,179.059 460.467,204.392 447,231.5C 426.148,260.892 398.648,269.392 364.5,257C 359.565,254.394 354.898,251.394 350.5,248C 340.298,237.965 330.298,227.798 320.5,217.5C 320.217,216.711 319.717,216.044 319,215.5C 318.5,294.833 318.333,374.166 318.5,453.5C 314.5,484.857 297.167,504.191 266.5,511.5C 262.833,511.5 259.167,511.5 255.5,511.5C 255.5,340.833 255.5,170.167 255.5,-0.5 Z"/></g>
<g><path style="opacity:0.361" fill="#107af7" d="M 320.5,217.5 C 319.833,296.167 319.167,374.833 318.5,453.5C 318.333,374.166 318.5,294.833 319,215.5C 319.717,216.044 320.217,216.711 320.5,217.5 Z"/></g>
</svg>
