<?xml version="1.0" encoding="UTF-8"?>
<!DOCTYPE svg PUBLIC "-//W3C//DTD SVG 1.1//EN" "http://www.w3.org/Graphics/SVG/1.1/DTD/svg11.dtd">
<svg xmlns="http://www.w3.org/2000/svg" version="1.1" width="512px" height="512px" style="shape-rendering:geometricPrecision; text-rendering:geometricPrecision; image-rendering:optimizeQuality; fill-rule:evenodd; clip-rule:evenodd" xmlns:xlink="http://www.w3.org/1999/xlink">
<g><path style="opacity:1" fill="#006df0" d="M 244.5,-0.5 C 248.167,-0.5 251.833,-0.5 255.5,-0.5C 255.5,170.167 255.5,340.833 255.5,511.5C 251.833,511.5 248.167,511.5 244.5,511.5C 231.729,508.614 220.396,502.78 210.5,494C 164.333,447.833 118.167,401.667 72,355.5C 53.1995,331.941 50.5328,306.608 64,279.5C 84.8525,250.108 112.352,241.608 146.5,254C 151.435,256.606 156.102,259.606 160.5,263C 170.702,273.035 180.702,283.202 190.5,293.5C 190.783,294.289 191.283,294.956 192,295.5C 192.5,216.167 192.667,136.834 192.5,57.5C 196.5,26.1426 213.833,6.80932 244.5,-0.5 Z"/></g>
<g><path style="opacity:0.993" fill="#2488ff" d="M 255.5,-0.5 C 259.167,-0.5 262.833,-0.5 266.5,-0.5C 293.952,5.45034 311.119,22.117 318,49.5C 319.311,130.81 319.977,212.143 320,293.5C 330.167,283.333 340.333,273.167 350.5,263C 370.576,247.623 392.576,244.289 416.5,253C 450.967,271.124 462.467,298.957 451,336.5C 447.75,343.34 443.75,349.673 439,355.5C 392.5,402 346,448.5 299.5,495C 290.005,502.913 279.338,508.413 267.5,511.5C 263.5,511.5 259.5,511.5 255.5,511.5C 255.5,340.833 255.5,170.167 255.5,-0.5 Z"/></g>
<g><path style="opacity:0.361" fill="#107af7" d="M 192.5,57.5 C 192.667,136.834 192.5,216.167 192,295.5C 191.283,294.956 190.783,294.289 190.5,293.5C 191.167,214.833 191.833,136.167 192.5,57.5 Z"/></g>
</svg>
