<?xml version="1.0" encoding="UTF-8"?>
<!DOCTYPE svg PUBLIC "-//W3C//DTD SVG 1.1//EN" "http://www.w3.org/Graphics/SVG/1.1/DTD/svg11.dtd">
<svg xmlns="http://www.w3.org/2000/svg" version="1.1" width="512px" height="512px" style="shape-rendering:geometricPrecision; text-rendering:geometricPrecision; image-rendering:optimizeQuality; fill-rule:evenodd; clip-rule:evenodd" xmlns:xlink="http://www.w3.org/1999/xlink">
<g><path style="opacity:1" fill="#dadeea" d="M 469.5,285.5 C 453.585,299.123 435.251,307.956 414.5,312C 388.789,314.561 370.622,304.061 360,280.5C 355.088,267.284 352.921,253.617 353.5,239.5C 356.18,207.173 359.18,175.173 362.5,143.5C 364.415,143.784 366.081,143.451 367.5,142.5C 374.74,141.095 379.24,136.762 381,129.5C 383.105,112.79 375.938,103.124 359.5,100.5C 355.805,100.35 352.472,101.35 349.5,103.5C 341.242,86.4359 327.576,76.9359 308.5,75C 299.506,74.5002 290.506,74.3336 281.5,74.5C 279.451,63.1046 272.784,58.438 261.5,60.5C 254.583,63.335 252.25,68.335 254.5,75.5C 245.862,76.0972 237.528,74.2638 229.5,70C 218.513,64.183 209.179,56.3496 201.5,46.5C 287.465,27.212 360.299,49.8787 420,114.5C 461.175,164.175 477.675,221.175 469.5,285.5 Z"/></g>
<g><path style="opacity:1" fill="#c8cde1" d="M 201.5,46.5 C 209.179,56.3496 218.513,64.183 229.5,70C 237.528,74.2638 245.862,76.0972 254.5,75.5C 260.291,84.8433 267.957,86.8433 277.5,81.5C 279.588,79.6644 280.921,77.3311 281.5,74.5C 290.506,74.3336 299.506,74.5002 308.5,75C 327.576,76.9359 341.242,86.4359 349.5,103.5C 342.876,109.307 340.71,116.641 343,125.5C 345.905,135.578 352.405,141.578 362.5,143.5C 359.18,175.173 356.18,207.173 353.5,239.5C 352.921,253.617 355.088,267.284 360,280.5C 370.622,304.061 388.789,314.561 414.5,312C 435.251,307.956 453.585,299.123 469.5,285.5C 466.565,307.63 460.231,328.63 450.5,348.5C 383.929,380.366 318.929,377.533 255.5,340C 222.39,318.729 197.723,290.229 181.5,254.5C 184.286,254.044 185.619,252.377 185.5,249.5C 183.235,238.8 178.235,229.634 170.5,222C 169.552,221.517 168.552,221.351 167.5,221.5C 168.773,218.603 168.439,215.937 166.5,213.5C 167.32,211.86 168.153,210.193 169,208.5C 170.256,193.334 169.256,178.334 166,163.5C 164.755,160.676 163.255,158.009 161.5,155.5C 164.085,116.411 176.085,80.4113 197.5,47.5C 198.708,46.7659 200.041,46.4326 201.5,46.5 Z"/></g>
<g><path style="opacity:0.999" fill="#afb7cf" d="M 197.5,47.5 C 176.085,80.4113 164.085,116.411 161.5,155.5C 156.33,156.164 153.163,159.164 152,164.5C 147.9,179.328 149.233,193.662 156,207.5C 157.739,210.907 160.406,213.24 164,214.5C 164.902,214.257 165.735,213.923 166.5,213.5C 168.439,215.937 168.773,218.603 167.5,221.5C 166.883,221.611 166.383,221.944 166,222.5C 165.015,236.195 170.182,246.862 181.5,254.5C 197.723,290.229 222.39,318.729 255.5,340C 318.929,377.533 383.929,380.366 450.5,348.5C 441.981,366.889 430.981,383.556 417.5,398.5C 417.483,396.972 416.816,396.472 415.5,397C 390.255,416.454 361.921,429.12 330.5,435C 341.882,431.619 349.215,424.285 352.5,413C 352.164,411.97 351.497,411.47 350.5,411.5C 351.473,409.932 351.64,408.265 351,406.5C 343.606,399.033 334.606,395.7 324,396.5C 306.58,396.877 292.58,403.877 282,417.5C 281.503,420.146 281.336,422.813 281.5,425.5C 282.172,428.343 283.505,430.843 285.5,433C 289.682,436.09 294.349,438.09 299.5,439C 276.986,441.615 254.652,439.948 232.5,434C 220.296,430.543 208.296,426.376 196.5,421.5C 192.454,412.363 185.454,408.697 175.5,410.5C 146.552,392.552 122.885,369.219 104.5,340.5C 108.418,344.063 113.085,345.396 118.5,344.5C 118.196,338.032 114.696,334.698 108,334.5C 105.992,334.307 104.492,334.974 103.5,336.5C 102.504,336.586 101.671,336.252 101,335.5C 99.4412,333.783 98.6079,331.783 98.5,329.5C 100.708,328.977 102.208,327.644 103,325.5C 104.963,314.368 100.463,309.701 89.5,311.5C 87.1855,308.205 85.3522,304.538 84,300.5C 58.6722,226.79 68.6722,158.456 114,95.5C 114.667,94.8333 114.667,94.1667 114,93.5C 113.329,94.2524 112.496,94.5858 111.5,94.5C 136.289,72.0986 164.956,56.4319 197.5,47.5 Z"/></g>
<g><path style="opacity:1" fill="#a2acca" d="M 281.5,74.5 C 280.921,77.3311 279.588,79.6644 277.5,81.5C 278.8,75.0588 276.8,69.5588 271.5,65C 268.107,63.38 264.774,61.88 261.5,60.5C 272.784,58.438 279.451,63.1046 281.5,74.5 Z"/></g>
<g><path style="opacity:1" fill="#b0b8cf" d="M 261.5,60.5 C 264.774,61.88 268.107,63.38 271.5,65C 276.8,69.5588 278.8,75.0588 277.5,81.5C 267.957,86.8433 260.291,84.8433 254.5,75.5C 252.25,68.335 254.583,63.335 261.5,60.5 Z"/></g>
<g><path style="opacity:1" fill="#9ea9c8" d="M 89.5,311.5 C 87.8564,312.316 86.6897,313.65 86,315.5C 83.8891,326.211 88.0557,330.878 98.5,329.5C 98.6079,331.783 99.4412,333.783 101,335.5C 101.671,336.252 102.504,336.586 103.5,336.5C 103.433,337.959 103.766,339.292 104.5,340.5C 122.885,369.219 146.552,392.552 175.5,410.5C 171.33,411.957 169.33,414.957 169.5,419.5C 172.169,432.998 180.169,438.164 193.5,435C 196.126,430.908 197.126,426.408 196.5,421.5C 208.296,426.376 220.296,430.543 232.5,434C 254.652,439.948 276.986,441.615 299.5,439C 294.349,438.09 289.682,436.09 285.5,433C 283.505,430.843 282.172,428.343 281.5,425.5C 285.248,428.708 289.582,430.874 294.5,432C 310.057,434.074 324.724,431.408 338.5,424C 343.377,420.624 347.377,416.457 350.5,411.5C 351.497,411.47 352.164,411.97 352.5,413C 349.215,424.285 341.882,431.619 330.5,435C 361.921,429.12 390.255,416.454 415.5,397C 416.816,396.472 417.483,396.972 417.5,398.5C 387.371,432.577 350.037,454.91 305.5,465.5C 215.362,471.341 143.196,438.341 89,366.5C 55.0213,315.43 41.188,259.43 47.5,198.5C 58.6183,157.417 79.9516,122.75 111.5,94.5C 112.496,94.5858 113.329,94.2524 114,93.5C 114.667,94.1667 114.667,94.8333 114,95.5C 68.6722,158.456 58.6722,226.79 84,300.5C 85.3522,304.538 87.1855,308.205 89.5,311.5 Z"/></g>
<g><path style="opacity:1" fill="#b0b8cf" d="M 233.5,96.5 C 242.161,95.3293 245.994,98.9959 245,107.5C 242.565,112.224 238.731,113.724 233.5,112C 229.139,109.774 227.639,106.274 229,101.5C 230.366,99.6383 231.866,97.9717 233.5,96.5 Z"/></g>
<g><path style="opacity:1" fill="#b0b8cf" d="M 359.5,100.5 C 375.049,109.664 378.549,122.331 370,138.5C 368.229,139.304 366.729,140.471 365.5,142C 366.094,142.464 366.761,142.631 367.5,142.5C 366.081,143.451 364.415,143.784 362.5,143.5C 352.405,141.578 345.905,135.578 343,125.5C 340.71,116.641 342.876,109.307 349.5,103.5C 352.472,101.35 355.805,100.35 359.5,100.5 Z"/></g>
<g><path style="opacity:1" fill="#9faac9" d="M 359.5,100.5 C 375.938,103.124 383.105,112.79 381,129.5C 379.24,136.762 374.74,141.095 367.5,142.5C 366.761,142.631 366.094,142.464 365.5,142C 366.729,140.471 368.229,139.304 370,138.5C 378.549,122.331 375.049,109.664 359.5,100.5 Z"/></g>
<g><path style="opacity:1" fill="#8b98b7" d="M 150.5,103.5 C 158.097,104.996 160.93,109.663 159,117.5C 157.334,120.379 154.834,121.212 151.5,120C 146.71,114.587 146.376,109.087 150.5,103.5 Z"/></g>
<g><path style="opacity:1" fill="#9ea9c8" d="M 134.5,107.5 C 142.418,110.503 142.418,113.836 134.5,117.5C 130.853,116.514 129.686,114.181 131,110.5C 132.145,109.364 133.312,108.364 134.5,107.5 Z"/></g>
<g><path style="opacity:1" fill="#9fa9c9" d="M 221.5,165.5 C 228.027,158.059 230.194,149.393 228,139.5C 222.444,123.429 211.278,114.762 194.5,113.5C 209.942,108.37 222.442,112.37 232,125.5C 238.658,137.946 237.824,149.779 229.5,161C 227.183,163.157 224.516,164.657 221.5,165.5 Z"/></g>
<g><path style="opacity:1" fill="#b0b8cf" d="M 194.5,113.5 C 211.278,114.762 222.444,123.429 228,139.5C 230.194,149.393 228.027,158.059 221.5,165.5C 200.281,170.8 186.781,162.8 181,141.5C 179.346,129.142 183.846,119.809 194.5,113.5 Z"/></g>
<g><path style="opacity:1" fill="#9faac9" d="M 118.5,139.5 C 108.644,140.505 102.144,145.839 99,155.5C 98.023,157.74 97.523,160.073 97.5,162.5C 96.71,163.609 96.21,164.942 96,166.5C 94.1654,154.675 97.9987,145.175 107.5,138C 111.705,135.614 115.371,136.114 118.5,139.5 Z"/></g>
<g><path style="opacity:1" fill="#adb5ce" d="M 297.5,135.5 C 307.555,134.505 313.555,138.839 315.5,148.5C 315.519,153.643 313.186,157.143 308.5,159C 295.879,160.713 290.046,155.213 291,142.5C 292.694,139.642 294.861,137.309 297.5,135.5 Z"/></g>
<g><path style="opacity:1" fill="#c8cde1" d="M 118.5,139.5 C 119.469,140.309 120.302,141.309 121,142.5C 122.819,156.364 117.652,166.53 105.5,173C 98.3475,173.319 95.6808,169.819 97.5,162.5C 97.523,160.073 98.023,157.74 99,155.5C 102.144,145.839 108.644,140.505 118.5,139.5 Z"/></g>
<g><path style="opacity:1" fill="#fdfdfd" d="M 161.5,155.5 C 163.255,158.009 164.755,160.676 166,163.5C 169.256,178.334 170.256,193.334 169,208.5C 168.153,210.193 167.32,211.86 166.5,213.5C 165.735,213.923 164.902,214.257 164,214.5C 160.406,213.24 157.739,210.907 156,207.5C 149.233,193.662 147.9,179.328 152,164.5C 153.163,159.164 156.33,156.164 161.5,155.5 Z"/></g>
<g><path style="opacity:1" fill="#c9cee2" d="M 423.5,158.5 C 430.732,158.7 436.565,161.7 441,167.5C 445.66,174.762 443.827,177.595 435.5,176C 430.381,173.215 426.214,169.382 423,164.5C 422.322,162.402 422.489,160.402 423.5,158.5 Z"/></g>
<g><path style="opacity:1" fill="#b0b8cf" d="M 198.5,192.5 C 205.536,191.603 207.203,194.103 203.5,200C 196.354,201.302 194.688,198.802 198.5,192.5 Z"/></g>
<g><path style="opacity:0.996" fill="#8b98b7" d="M 47.5,198.5 C 41.188,259.43 55.0213,315.43 89,366.5C 143.196,438.341 215.362,471.341 305.5,465.5C 222.572,482.799 152.072,460.799 94,399.5C 44.0313,340.492 28.5313,273.492 47.5,198.5 Z"/></g>
<g><path style="opacity:1" fill="#9faac9" d="M 259.5,239.5 C 261.233,228.134 256.9,219.634 246.5,214C 241.688,212.556 237.021,212.056 232.5,212.5C 240.522,207.07 248.522,207.236 256.5,213C 264.553,221.093 265.553,229.926 259.5,239.5 Z"/></g>
<g><path style="opacity:1" fill="#b0b8cf" d="M 232.5,212.5 C 237.021,212.056 241.688,212.556 246.5,214C 256.9,219.634 261.233,228.134 259.5,239.5C 255.986,243.083 251.653,244.75 246.5,244.5C 230.781,242.616 224.614,233.949 228,218.5C 228.792,215.894 230.292,213.894 232.5,212.5 Z"/></g>
<g><path style="opacity:1" fill="#a0aac9" d="M 415.5,240.5 C 411.249,224.184 400.582,217.017 383.5,219C 379.836,220.002 376.669,221.836 374,224.5C 373.601,224.272 373.435,223.938 373.5,223.5C 380.86,212.322 390.86,209.155 403.5,214C 414.436,219.704 418.436,228.537 415.5,240.5 Z"/></g>
<g><path style="opacity:1" fill="#b0b8cf" d="M 415.5,240.5 C 406.193,254.326 394.193,257.159 379.5,249C 371.475,241.805 369.475,233.305 373.5,223.5C 373.435,223.938 373.601,224.272 374,224.5C 376.669,221.836 379.836,220.002 383.5,219C 400.582,217.017 411.249,224.184 415.5,240.5 Z"/></g>
<g><path style="opacity:1" fill="#c8cde1" d="M 107.5,259.5 C 93.7555,254.691 88.2555,245.024 91,230.5C 91.9383,227.743 93.4383,225.41 95.5,223.5C 100.206,219.79 105.206,219.623 110.5,223C 122.743,230.19 125.909,240.357 120,253.5C 117.158,258.558 112.991,260.558 107.5,259.5 Z"/></g>
<g><path style="opacity:1" fill="#fdfdfd" d="M 167.5,221.5 C 168.552,221.351 169.552,221.517 170.5,222C 178.235,229.634 183.235,238.8 185.5,249.5C 185.619,252.377 184.286,254.044 181.5,254.5C 170.182,246.862 165.015,236.195 166,222.5C 166.383,221.944 166.883,221.611 167.5,221.5 Z"/></g>
<g><path style="opacity:1" fill="#9faaca" d="M 95.5,223.5 C 93.4383,225.41 91.9383,227.743 91,230.5C 88.2555,245.024 93.7555,254.691 107.5,259.5C 97.0626,261.505 89.5626,257.172 85,246.5C 81.7891,235.965 84.9557,227.965 94.5,222.5C 95.1067,222.624 95.44,222.957 95.5,223.5 Z"/></g>
<g><path style="opacity:1" fill="#b0b8cf" d="M 311.5,225.5 C 321.818,225.322 324.151,229.489 318.5,238C 312.613,239.565 309.28,237.398 308.5,231.5C 308.628,229.045 309.628,227.045 311.5,225.5 Z"/></g>
<g><path style="opacity:1" fill="#b0b8cf" d="M 328.5,233.5 C 341.999,232.171 348.499,238.171 348,251.5C 344.347,260.41 337.847,263.576 328.5,261C 316.541,251.835 316.541,242.668 328.5,233.5 Z"/></g>
<g><path style="opacity:1" fill="#8b98b7" d="M 149.5,249.5 C 153.153,250.786 154.82,253.453 154.5,257.5C 154.928,260.993 153.594,263.326 150.5,264.5C 147.602,262.704 146.268,260.037 146.5,256.5C 146.667,255.167 146.833,253.833 147,252.5C 148.045,251.627 148.878,250.627 149.5,249.5 Z"/></g>
<g><path style="opacity:1" fill="#8b98b7" d="M 163.5,253.5 C 171.071,253.263 173.904,256.93 172,264.5C 170.754,269.926 167.587,271.593 162.5,269.5C 158.35,263.905 158.684,258.572 163.5,253.5 Z"/></g>
<g><path style="opacity:1" fill="#b1b9d0" d="M 462.5,256.5 C 464.5,256.5 466.5,256.5 468.5,256.5C 467.98,260.536 465.98,263.703 462.5,266C 458.053,269.557 453.053,272.057 447.5,273.5C 446,273.547 445,272.881 444.5,271.5C 445.531,270.3 446.365,268.966 447,267.5C 451.514,262.805 456.681,259.138 462.5,256.5 Z"/></g>
<g><path style="opacity:1" fill="#b0b8cf" d="M 236.5,264.5 C 239.978,264.184 243.312,264.684 246.5,266C 249.845,272.473 247.845,275.973 240.5,276.5C 235.954,276.903 233.288,274.903 232.5,270.5C 232.866,267.744 234.2,265.744 236.5,264.5 Z"/></g>
<g><path style="opacity:1" fill="#b0b8cf" d="M 262.5,275.5 C 271.077,274.935 274.244,278.935 272,287.5C 270.044,294.453 265.711,299.12 259,301.5C 254.036,300.454 251.536,297.288 251.5,292C 252.623,284.726 256.29,279.226 262.5,275.5 Z"/></g>
<g><path style="opacity:1" fill="#8c99b8" d="M 168.5,284.5 C 169.822,284.33 170.989,284.663 172,285.5C 175.658,290.711 175.158,295.377 170.5,299.5C 168.575,299.41 167.408,298.41 167,296.5C 165.994,292.198 166.494,288.198 168.5,284.5 Z"/></g>
<g><path style="opacity:1" fill="#9faac9" d="M 355.5,336.5 C 360.744,317.215 354.077,303.715 335.5,296C 330.26,295.648 325.26,295.481 320.5,295.5C 338.771,286.202 352.605,290.868 362,309.5C 364,315.833 364,322.167 362,328.5C 360.533,331.787 358.366,334.454 355.5,336.5 Z"/></g>
<g><path style="opacity:1" fill="#b0b8cf" d="M 320.5,295.5 C 325.26,295.481 330.26,295.648 335.5,296C 354.077,303.715 360.744,317.215 355.5,336.5C 341.618,344.624 329.451,342.291 319,329.5C 311.312,317.614 311.812,306.281 320.5,295.5 Z"/></g>
<g><path style="opacity:1" fill="#8a97b7" d="M 98.5,329.5 C 88.0557,330.878 83.8891,326.211 86,315.5C 86.6897,313.65 87.8564,312.316 89.5,311.5C 100.463,309.701 104.963,314.368 103,325.5C 102.208,327.644 100.708,328.977 98.5,329.5 Z"/></g>
<g><path style="opacity:1" fill="#c8cde1" d="M 176.5,378.5 C 156.686,381.176 143.186,373.176 136,354.5C 135.036,348.319 135.536,342.319 137.5,336.5C 140.284,332.264 144.284,329.764 149.5,329C 167.769,326.943 180.269,334.443 187,351.5C 188.612,359.734 187.279,367.4 183,374.5C 180.987,376.248 178.82,377.582 176.5,378.5 Z"/></g>
<g><path style="opacity:1" fill="#8a97b7" d="M 104.5,340.5 C 103.766,339.292 103.433,337.959 103.5,336.5C 104.492,334.974 105.992,334.307 108,334.5C 114.696,334.698 118.196,338.032 118.5,344.5C 113.085,345.396 108.418,344.063 104.5,340.5 Z"/></g>
<g><path style="opacity:1" fill="#9fa9c9" d="M 137.5,336.5 C 135.536,342.319 135.036,348.319 136,354.5C 143.186,373.176 156.686,381.176 176.5,378.5C 177.239,378.369 177.906,378.536 178.5,379C 158.284,390.151 142.451,385.651 131,365.5C 127.456,354.282 129.456,344.282 137,335.5C 137.399,335.728 137.565,336.062 137.5,336.5 Z"/></g>
<g><path style="opacity:1" fill="#8b98b7" d="M 261.5,395.5 C 266.139,395.046 270.139,396.38 273.5,399.5C 274.891,403.79 273.224,405.79 268.5,405.5C 263.604,405.562 260.271,403.395 258.5,399C 259.071,397.401 260.071,396.234 261.5,395.5 Z"/></g>
<g><path style="opacity:1" fill="#c8cde1" d="M 350.5,411.5 C 347.377,416.457 343.377,420.624 338.5,424C 324.724,431.408 310.057,434.074 294.5,432C 289.582,430.874 285.248,428.708 281.5,425.5C 281.336,422.813 281.503,420.146 282,417.5C 292.58,403.877 306.58,396.877 324,396.5C 334.606,395.7 343.606,399.033 351,406.5C 351.64,408.265 351.473,409.932 350.5,411.5 Z"/></g>
<g><path style="opacity:1" fill="#c8cde1" d="M 196.5,421.5 C 197.126,426.408 196.126,430.908 193.5,435C 180.169,438.164 172.169,432.998 169.5,419.5C 169.33,414.957 171.33,411.957 175.5,410.5C 185.454,408.697 192.454,412.363 196.5,421.5 Z"/></g>
<g><path style="opacity:1" fill="#8a97b7" d="M 241.5,410.5 C 251.258,409.524 260.591,411.024 269.5,415C 273.771,418.157 273.438,420.49 268.5,422C 257.803,424.074 248.136,421.907 239.5,415.5C 238.218,413.101 238.885,411.434 241.5,410.5 Z"/></g>
</svg>
