<?xml version="1.0" encoding="UTF-8"?>
<!DOCTYPE svg PUBLIC "-//W3C//DTD SVG 1.1//EN" "http://www.w3.org/Graphics/SVG/1.1/DTD/svg11.dtd">
<svg xmlns="http://www.w3.org/2000/svg" version="1.1" width="236px" height="237px" style="shape-rendering:geometricPrecision; text-rendering:geometricPrecision; image-rendering:optimizeQuality; fill-rule:evenodd; clip-rule:evenodd" xmlns:xlink="http://www.w3.org/1999/xlink">
<g><path style="opacity:1" fill="#fdfcfb" d="M 172.5,14.5 C 172.973,15.9063 173.973,16.573 175.5,16.5C 192.399,25.3986 205.732,38.0652 215.5,54.5C 216.172,57.7096 217.172,60.8763 218.5,64C 219.653,66.2092 221.319,67.7092 223.5,68.5C 230.019,80.5828 233.353,93.5828 233.5,107.5C 233.328,108.492 233.662,109.158 234.5,109.5C 234.5,115.167 234.5,120.833 234.5,126.5C 234.167,127.167 233.833,127.833 233.5,128.5C 232.102,152.675 223.435,174.008 207.5,192.5C 206.417,192.461 205.417,192.127 204.5,191.5C 204.167,192.833 203.833,194.167 203.5,195.5C 202.833,195.167 202.167,194.833 201.5,194.5C 199.224,196.949 196.558,198.782 193.5,200C 195.439,200.908 196.439,202.408 196.5,204.5C 185.472,214.689 172.805,222.356 158.5,227.5C 152.761,227.977 147.261,229.31 142,231.5C 138.563,230.025 135.396,230.525 132.5,233C 120.148,233.704 107.815,233.537 95.5,232.5C 71.0813,228.294 50.4146,217.294 33.5,199.5C 33.8039,198.85 34.1373,198.183 34.5,197.5C 32.4411,196.049 31.4411,194.049 31.5,191.5C 30.325,191.719 29.325,191.386 28.5,190.5C 29.8333,187.833 29.1667,187.167 26.5,188.5C 23.9489,185.121 21.6156,181.621 19.5,178C 18.552,177.517 17.552,177.351 16.5,177.5C 14.9752,175.784 13.9752,173.784 13.5,171.5C 13.0075,169.181 12.0075,167.181 10.5,165.5C -4.63165,128.61 -2.46498,92.6105 17,57.5C 21.9825,50.0264 27.4825,43.0264 33.5,36.5C 36.0892,35.5806 38.0892,33.914 39.5,31.5C 40.1667,30.1667 41.1667,29.1667 42.5,28.5C 44.1439,28.2865 45.6439,28.6198 47,29.5C 48.8658,24.301 52.5325,21.301 58,20.5C 59.2613,20.7591 60.2613,21.4258 61,22.5C 60.4782,20.1201 60.6448,17.7868 61.5,15.5C 63.8485,13.659 66.5152,12.3257 69.5,11.5C 71.4008,11.4332 73.2341,11.7665 75,12.5C 78.845,9.19744 83.345,7.69744 88.5,8C 90.2714,6.47564 91.9381,4.97564 93.5,3.5C 120.867,-2.11528 147.2,1.55139 172.5,14.5 Z M 141.5,71.5 C 142.584,74.0041 143.917,76.3374 145.5,78.5C 147.041,83.3646 147.708,88.3646 147.5,93.5C 145.52,105.475 138.853,113.475 127.5,117.5C 123.548,118.272 119.548,118.605 115.5,118.5C 103.481,116.468 95.4806,109.801 91.5,98.5C 88.7109,85.8592 92.0443,75.1926 101.5,66.5C 116.09,58.5823 129.423,60.249 141.5,71.5 Z M 138.5,123.5 C 143.425,125.632 148.092,128.298 152.5,131.5C 160.721,139.116 162.888,148.116 159,158.5C 149.357,171.485 136.357,177.485 120,176.5C 104.639,177.385 91.9719,172.051 82,160.5C 75.6568,144.988 80.1568,133.488 95.5,126C 109.573,121.013 123.906,120.18 138.5,123.5 Z"/></g>
<g><path style="opacity:1" fill="#d6d4c2" d="M 93.5,3.5 C 91.9381,4.97564 90.2714,6.47564 88.5,8C 83.345,7.69744 78.845,9.19744 75,12.5C 73.2341,11.7665 71.4008,11.4332 69.5,11.5C 76.9423,7.46362 84.9423,4.79695 93.5,3.5 Z"/></g>
<g><path style="opacity:0.055" fill="#463b2e" d="M 172.5,14.5 C 174.027,14.427 175.027,15.0937 175.5,16.5C 173.973,16.573 172.973,15.9063 172.5,14.5 Z"/></g>
<g><path style="opacity:1" fill="#dddbc8" d="M 61.5,15.5 C 60.6448,17.7868 60.4782,20.1201 61,22.5C 60.2613,21.4258 59.2613,20.7591 58,20.5C 52.5325,21.301 48.8658,24.301 47,29.5C 45.6439,28.6198 44.1439,28.2865 42.5,28.5C 48.0047,23.002 54.3381,18.6686 61.5,15.5 Z"/></g>
<g><path style="opacity:0.996" fill="#908c72" d="M 39.5,31.5 C 38.0892,33.914 36.0892,35.5806 33.5,36.5C 34.9108,34.086 36.9108,32.4194 39.5,31.5 Z"/></g>
<g><path style="opacity:1" fill="#dbd5c1" d="M 215.5,54.5 C 218.669,58.833 221.336,63.4997 223.5,68.5C 221.319,67.7092 219.653,66.2092 218.5,64C 217.172,60.8763 216.172,57.7096 215.5,54.5 Z"/></g>
<g><path style="opacity:1" fill="#f7f6f2" d="M 114.5,71.5 C 132.976,71.4775 140.143,80.4775 136,98.5C 129.784,108.018 121.284,110.851 110.5,107C 99.8284,99.5296 97.6617,90.0296 104,78.5C 107.154,75.4884 110.654,73.1551 114.5,71.5 Z"/></g>
<g><path style="opacity:0.994" fill="#bfb8a3" d="M 141.5,71.5 C 142.675,71.281 143.675,71.6143 144.5,72.5C 145.348,74.4086 145.682,76.4086 145.5,78.5C 143.917,76.3374 142.584,74.0041 141.5,71.5 Z"/></g>
<g><path style="opacity:1" fill="#d2d0bf" d="M 101.5,66.5 C 92.0443,75.1926 88.7109,85.8592 91.5,98.5C 89.653,91.8195 88.653,84.9862 88.5,78C 90.1495,76.0691 92.3161,73.9025 95,71.5C 96.4381,70.0997 97.2714,68.433 97.5,66.5C 98.8333,66.5 100.167,66.5 101.5,66.5 Z"/></g>
<g><path style="opacity:0.996" fill="#c5bea8" d="M 145.5,78.5 C 147.286,80.6328 148.619,83.1328 149.5,86C 148.984,88.6691 148.317,91.1691 147.5,93.5C 147.708,88.3646 147.041,83.3646 145.5,78.5 Z"/></g>
<g><path style="opacity:0.031" fill="#3d3d1f" d="M 233.5,107.5 C 234.167,107.5 234.833,107.5 235.5,107.5C 235.5,108.167 235.5,108.833 235.5,109.5C 235.167,109.5 234.833,109.5 234.5,109.5C 233.662,109.158 233.328,108.492 233.5,107.5 Z"/></g>
<g><path style="opacity:0.996" fill="#b5a989" d="M 127.5,117.5 C 125.952,118.794 123.952,119.461 121.5,119.5C 119.304,119.495 117.304,119.162 115.5,118.5C 119.548,118.605 123.548,118.272 127.5,117.5 Z"/></g>
<g><path style="opacity:0.998" fill="#cecab3" d="M 138.5,123.5 C 141.32,123.248 143.986,123.748 146.5,125C 147.851,126.617 149.518,127.784 151.5,128.5C 152.127,129.417 152.461,130.417 152.5,131.5C 148.092,128.298 143.425,125.632 138.5,123.5 Z"/></g>
<g><path style="opacity:0.012" fill="#3f2015" d="M 234.5,126.5 C 234.833,126.5 235.167,126.5 235.5,126.5C 235.5,127.5 235.5,128.5 235.5,129.5C 234.833,129.167 234.167,128.833 233.5,128.5C 233.833,127.833 234.167,127.167 234.5,126.5 Z"/></g>
<g><path style="opacity:1" fill="#f9f8f5" d="M 136.5,163.5 C 132.584,163.025 129.251,164.025 126.5,166.5C 113.915,168.354 102.581,165.52 92.5,158C 90.7811,156.13 89.7811,153.963 89.5,151.5C 90.1667,148.5 90.8333,145.5 91.5,142.5C 95.9634,136.755 101.963,133.255 109.5,132C 123.575,128.871 136.241,131.705 147.5,140.5C 153.305,147.851 152.305,154.351 144.5,160C 141.929,161.454 139.262,162.62 136.5,163.5 Z"/></g>
<g><path style="opacity:1" fill="#b2ab95" d="M 91.5,142.5 C 90.8333,145.5 90.1667,148.5 89.5,151.5C 87.9095,148.056 88.5762,145.056 91.5,142.5 Z"/></g>
<g><path style="opacity:0.988" fill="#b1aa90" d="M 136.5,163.5 C 133.495,165.277 130.162,166.277 126.5,166.5C 129.251,164.025 132.584,163.025 136.5,163.5 Z"/></g>
<g><path style="opacity:0.271" fill="#574c29" d="M 10.5,165.5 C 12.0075,167.181 13.0075,169.181 13.5,171.5C 11.461,170.089 10.461,168.089 10.5,165.5 Z"/></g>
<g><path style="opacity:1" fill="#e0dccb" d="M 16.5,177.5 C 17.552,177.351 18.552,177.517 19.5,178C 21.6156,181.621 23.9489,185.121 26.5,188.5C 29.1667,187.167 29.8333,187.833 28.5,190.5C 29.325,191.386 30.325,191.719 31.5,191.5C 31.4411,194.049 32.4411,196.049 34.5,197.5C 34.1373,198.183 33.8039,198.85 33.5,199.5C 26.8768,192.928 21.2102,185.594 16.5,177.5 Z"/></g>
<g><path style="opacity:1" fill="#e9e5d4" d="M 207.5,192.5 C 204.542,197.126 200.876,201.126 196.5,204.5C 196.439,202.408 195.439,200.908 193.5,200C 196.558,198.782 199.224,196.949 201.5,194.5C 202.167,194.833 202.833,195.167 203.5,195.5C 203.833,194.167 204.167,192.833 204.5,191.5C 205.417,192.127 206.417,192.461 207.5,192.5 Z"/></g>
<g><path style="opacity:1" fill="#dad5bb" d="M 158.5,227.5 C 152.505,230.086 146.172,231.92 139.5,233C 140.696,233.654 140.696,234.154 139.5,234.5C 138.707,234.069 137.873,233.735 137,233.5C 122.947,236.391 109.113,236.058 95.5,232.5C 107.815,233.537 120.148,233.704 132.5,233C 135.396,230.525 138.563,230.025 142,231.5C 147.261,229.31 152.761,227.977 158.5,227.5 Z"/></g>
</svg>
