<?xml version="1.0" encoding="UTF-8"?>
<!DOCTYPE svg PUBLIC "-//W3C//DTD SVG 1.1//EN" "http://www.w3.org/Graphics/SVG/1.1/DTD/svg11.dtd">
<svg xmlns="http://www.w3.org/2000/svg" version="1.1" width="236px" height="237px" style="shape-rendering:geometricPrecision; text-rendering:geometricPrecision; image-rendering:optimizeQuality; fill-rule:evenodd; clip-rule:evenodd" xmlns:xlink="http://www.w3.org/1999/xlink">
<g><path style="opacity:0.999" fill="#000001" d="M 59.5,219.5 C 50.6308,211.66 41.6308,203.993 32.5,196.5C 31.5481,194.955 31.2148,193.288 31.5,191.5C 29.4922,189.686 26.8255,188.352 23.5,187.5C 20.0843,183.677 17.4176,179.343 15.5,174.5C 14.5446,168.309 12.2113,162.642 8.5,157.5C 9.02527,156.808 9.69194,156.308 10.5,156C 9.33333,155.5 8.5,154.667 8,153.5C 6.32931,147.169 4.66264,140.836 3,134.5C 2.61742,133.944 2.11742,133.611 1.5,133.5C -2.85164,84.0416 15.4817,45.5416 56.5,18C 101.389,-6.39768 145.056,-4.39768 187.5,24C 227.416,56.4058 241.916,97.9058 231,148.5C 215.984,195.762 184.151,224.262 135.5,234C 108.381,237.942 83.0478,233.109 59.5,219.5 Z M 116.5,61.5 C 137.47,62.4708 147.803,73.4708 147.5,94.5C 145.098,105.901 138.431,113.567 127.5,117.5C 122.562,118.392 117.562,118.726 112.5,118.5C 94.9694,111.781 88.1361,99.1139 92,80.5C 96.2569,69.0715 104.424,62.7382 116.5,61.5 Z M 128.5,121.5 C 140.448,123.055 150.281,128.389 158,137.5C 163.6,149.602 161.1,159.769 150.5,168C 130.705,179.947 110.705,180.28 90.5,169C 76.4981,157.997 75.1647,145.664 86.5,132C 93.8422,126.271 102.176,122.771 111.5,121.5C 117.149,120.426 122.816,120.426 128.5,121.5 Z"/></g>
<g><path style="opacity:0.999" fill="#010204" d="M 114.5,71.5 C 131.158,70.99 138.658,78.99 137,95.5C 130.498,108.828 120.664,111.995 107.5,105C 98.6045,95.6141 98.2711,85.9474 106.5,76C 109.099,74.205 111.766,72.705 114.5,71.5 Z"/></g>
<g><path style="opacity:0.973" fill="#050612" d="M 147.5,94.5 C 147.803,73.4708 137.47,62.4708 116.5,61.5C 120.219,59.8146 123.886,59.1479 127.5,59.5C 133.319,61.6553 138.652,64.6553 143.5,68.5C 143.291,69.086 142.957,69.586 142.5,70C 143.701,70.9025 144.535,72.0692 145,73.5C 147.238,73.7884 149.071,75.1217 150.5,77.5C 147.9,80.041 147.9,82.541 150.5,85C 149.167,86.3333 149.167,87.6667 150.5,89C 150.12,91.3258 149.12,93.1591 147.5,94.5 Z"/></g>
<g><path style="opacity:0.704" fill="#06091d" d="M 127.5,117.5 C 127.433,118.959 127.766,120.292 128.5,121.5C 122.816,120.426 117.149,120.426 111.5,121.5C 111.263,120.209 111.596,119.209 112.5,118.5C 117.562,118.726 122.562,118.392 127.5,117.5 Z"/></g>
<g><path style="opacity:0.998" fill="#010103" d="M 116.5,130.5 C 129.821,129.656 140.988,133.99 150,143.5C 152.372,150.284 150.539,155.784 144.5,160C 130.314,167.467 115.647,168.467 100.5,163C 93.9462,160.451 89.9462,155.785 88.5,149C 90.0108,141.153 94.6774,136.153 102.5,134C 107.224,132.506 111.891,131.339 116.5,130.5 Z"/></g>
<g><path style="opacity:0.979" fill="#060714" d="M 1.5,133.5 C 2.11742,133.611 2.61742,133.944 3,134.5C 4.66264,140.836 6.32931,147.169 8,153.5C 8.5,154.667 9.33333,155.5 10.5,156C 9.69194,156.308 9.02527,156.808 8.5,157.5C 12.2113,162.642 14.5446,168.309 15.5,174.5C 7.67944,162.041 3.01277,148.375 1.5,133.5 Z"/></g>
<g><path style="opacity:0.932" fill="#02030d" d="M 23.5,187.5 C 26.8255,188.352 29.4922,189.686 31.5,191.5C 31.2148,193.288 31.5481,194.955 32.5,196.5C 41.6308,203.993 50.6308,211.66 59.5,219.5C 45.0129,211.682 33.0129,201.016 23.5,187.5 Z"/></g>
</svg>
