<svg width="14" height="17" viewBox="0 0 14 17" fill="none" xmlns="http://www.w3.org/2000/svg">
<path d="M11.3095 10.7883C10.471 10.7883 9.69695 11.1887 9.20242 11.8208L5.22474 9.41872C5.39675 9.06052 5.50425 8.66017 5.50425 8.23875C5.50425 7.81733 5.39675 7.41698 5.22474 7.05877L9.39593 4.50919C9.89046 4.99382 10.557 5.30988 11.3095 5.30988C12.7931 5.30988 13.9971 4.12991 13.9971 2.65494C13.9971 1.17997 12.7931 0 11.3095 0C9.82595 0 8.6219 1.17997 8.6219 2.65494C8.6219 3.07636 8.7294 3.47671 8.90141 3.81384L4.73022 6.36343C4.23569 5.85773 3.52616 5.54166 2.75213 5.54166C1.22556 5.54166 0 6.74271 0 8.23875C0 9.71372 1.24706 10.9358 2.75213 10.9358C3.52616 10.9358 4.23569 10.6198 4.73022 10.1141L8.7939 12.5794C8.6864 12.8954 8.6219 13.2115 8.6219 13.5697C8.6219 15.0868 9.82595 16.33 11.3095 16.33C12.7931 16.33 13.9971 15.0868 13.9971 13.5697C13.9971 12.0526 12.7931 10.7883 11.3095 10.7883Z" fill="#6E6E6E"/>
</svg>
