<?xml version="1.0" encoding="UTF-8"?>
<!DOCTYPE svg PUBLIC "-//W3C//DTD SVG 1.1//EN" "http://www.w3.org/Graphics/SVG/1.1/DTD/svg11.dtd">
<svg xmlns="http://www.w3.org/2000/svg" version="1.1" width="512px" height="512px" style="shape-rendering:geometricPrecision; text-rendering:geometricPrecision; image-rendering:optimizeQuality; fill-rule:evenodd; clip-rule:evenodd" xmlns:xlink="http://www.w3.org/1999/xlink">
<g><path style="opacity:0.995" fill="#ffe076" d="M 184.5,-0.5 C 187.833,-0.5 191.167,-0.5 194.5,-0.5C 205.302,10.1332 216.302,20.6332 227.5,31C 246.167,42.3333 264.833,42.3333 283.5,31C 294.698,20.6332 305.698,10.1332 316.5,-0.5C 319.833,-0.5 323.167,-0.5 326.5,-0.5C 329.2,1.04602 331.033,3.37935 332,6.5C 334.866,18.9645 338.199,31.2978 342,43.5C 352.42,64.1345 369.253,74.8012 392.5,75.5C 411.315,112.071 419.315,150.738 416.5,191.5C 405.178,161.843 386.845,137.51 361.5,118.5C 324.594,90.6836 282.927,78.8502 236.5,83C 172.837,92.0591 126.67,125.226 98,182.5C 80.7939,221.751 77.7939,262.084 89,303.5C 94.9237,325.017 104.757,344.35 118.5,361.5C 137.51,386.845 161.843,405.178 191.5,416.5C 150.774,419.154 112.107,411.154 75.5,392.5C 74.8012,369.253 64.1345,352.42 43.5,342C 31.2978,338.199 18.9645,334.866 6.5,332C 3.37935,331.033 1.04602,329.2 -0.5,326.5C -0.5,323.167 -0.5,319.833 -0.5,316.5C 10.1332,305.698 20.6332,294.698 31,283.5C 42.3333,264.833 42.3333,246.167 31,227.5C 20.6332,216.302 10.1332,205.302 -0.5,194.5C -0.5,191.167 -0.5,187.833 -0.5,184.5C 1.04602,181.8 3.37935,179.967 6.5,179C 22.0588,176.029 37.0588,171.362 51.5,165C 66.3921,154.389 74.3921,139.889 75.5,121.5C 72.5428,106.171 68.8761,91.0043 64.5,76C 65,68.8333 68.8333,65 76,64.5C 91.0043,68.8761 106.171,72.5428 121.5,75.5C 147.762,73.4013 164.595,59.7346 172,34.5C 174.333,25.1667 176.667,15.8333 179,6.5C 179.967,3.37935 181.8,1.04602 184.5,-0.5 Z"/></g>
<g><path style="opacity:1" fill="#ffd15b" d="M 511.5,184.5 C 511.5,187.833 511.5,191.167 511.5,194.5C 500.867,205.302 490.367,216.302 480,227.5C 468.667,246.167 468.667,264.833 480,283.5C 490.367,294.698 500.867,305.698 511.5,316.5C 511.5,319.833 511.5,323.167 511.5,326.5C 509.954,329.2 507.621,331.033 504.5,332C 488.941,334.971 473.941,339.638 459.5,346C 444.608,356.611 436.608,371.111 435.5,389.5C 438.457,404.829 442.124,419.996 446.5,435C 446,442.167 442.167,446 435,446.5C 419.996,442.124 404.829,438.457 389.5,435.5C 363.238,437.599 346.405,451.265 339,476.5C 336.667,485.833 334.333,495.167 332,504.5C 331.033,507.621 329.2,509.954 326.5,511.5C 323.167,511.5 319.833,511.5 316.5,511.5C 305.698,500.867 294.698,490.367 283.5,480C 264.833,468.667 246.167,468.667 227.5,480C 216.302,490.367 205.302,500.867 194.5,511.5C 191.167,511.5 187.833,511.5 184.5,511.5C 181.8,509.954 179.967,507.621 179,504.5C 176.029,488.941 171.362,473.941 165,459.5C 154.389,444.608 139.889,436.608 121.5,435.5C 106.171,438.457 91.0043,442.124 76,446.5C 68.8333,446 65,442.167 64.5,435C 68.4333,420.762 72.1,406.596 75.5,392.5C 112.107,411.154 150.774,419.154 191.5,416.5C 217.095,427.276 243.762,431.109 271.5,428C 341.833,418.933 390.666,381.766 418,316.5C 429.96,281.334 431.626,245.667 423,209.5C 421.517,203.215 419.351,197.215 416.5,191.5C 419.315,150.738 411.315,112.071 392.5,75.5C 406.596,72.1 420.762,68.4333 435,64.5C 442.167,65 446,68.8333 446.5,76C 442.124,91.0043 438.457,106.171 435.5,121.5C 437.599,147.762 451.265,164.595 476.5,172C 485.833,174.333 495.167,176.667 504.5,179C 507.621,179.967 509.954,181.8 511.5,184.5 Z"/></g>
<g><path style="opacity:1" fill="#ffc344" d="M 361.5,118.5 C 394.026,165.734 402.193,217.4 386,273.5C 360.629,342.614 311.462,382.447 238.5,393C 194.37,397.449 154.536,386.616 119,360.5C 118.601,360.728 118.435,361.062 118.5,361.5C 104.757,344.35 94.9237,325.017 89,303.5C 77.7939,262.084 80.7939,221.751 98,182.5C 126.67,125.226 172.837,92.0591 236.5,83C 282.927,78.8502 324.594,90.6836 361.5,118.5 Z"/></g>
<g><path style="opacity:1" fill="#feb237" d="M 361.5,118.5 C 386.845,137.51 405.178,161.843 416.5,191.5C 419.351,197.215 421.517,203.215 423,209.5C 431.626,245.667 429.96,281.334 418,316.5C 390.666,381.766 341.833,418.933 271.5,428C 243.762,431.109 217.095,427.276 191.5,416.5C 161.843,405.178 137.51,386.845 118.5,361.5C 118.435,361.062 118.601,360.728 119,360.5C 154.536,386.616 194.37,397.449 238.5,393C 311.462,382.447 360.629,342.614 386,273.5C 402.193,217.4 394.026,165.734 361.5,118.5 Z"/></g>
</svg>
