<?xml version="1.0" encoding="UTF-8"?>
<!DOCTYPE svg PUBLIC "-//W3C//DTD SVG 1.1//EN" "http://www.w3.org/Graphics/SVG/1.1/DTD/svg11.dtd">
<svg xmlns="http://www.w3.org/2000/svg" version="1.1" width="512px" height="512px" style="shape-rendering:geometricPrecision; text-rendering:geometricPrecision; image-rendering:optimizeQuality; fill-rule:evenodd; clip-rule:evenodd" xmlns:xlink="http://www.w3.org/1999/xlink">
<g><path style="opacity:0.997" fill="#89dffa" d="M 93.5,51.5 C 84.1111,60.8859 75.1111,70.5526 66.5,80.5C 66.1667,81.5 65.5,82.1667 64.5,82.5C 54.5526,91.1111 44.8859,100.111 35.5,109.5C 32.4898,67.8435 51.8231,48.5102 93.5,51.5 Z"/></g>
<g><path style="opacity:0.996" fill="#84dcf9" d="M 93.5,51.5 C 110.167,51.5 126.833,51.5 143.5,51.5C 135.833,59.5 128.167,67.5 120.5,75.5C 104.79,75.0985 89.1232,75.5985 73.5,77C 71.1401,78.1799 68.8068,79.3466 66.5,80.5C 75.1111,70.5526 84.1111,60.8859 93.5,51.5 Z"/></g>
<g><path style="opacity:1" fill="#7fd8f9" d="M 143.5,51.5 C 160.833,51.5 178.167,51.5 195.5,51.5C 187.833,59.5 180.167,67.5 172.5,75.5C 155.167,75.5 137.833,75.5 120.5,75.5C 128.167,67.5 135.833,59.5 143.5,51.5 Z"/></g>
<g><path style="opacity:1" fill="#78d4f8" d="M 195.5,51.5 C 214.5,51.5 233.5,51.5 252.5,51.5C 244.833,59.5 237.167,67.5 229.5,75.5C 210.5,75.5 191.5,75.5 172.5,75.5C 180.167,67.5 187.833,59.5 195.5,51.5 Z"/></g>
<g><path style="opacity:1" fill="#73d0f8" d="M 252.5,51.5 C 272.167,51.5 291.833,51.5 311.5,51.5C 303.833,59.5 296.167,67.5 288.5,75.5C 268.833,75.5 249.167,75.5 229.5,75.5C 237.167,67.5 244.833,59.5 252.5,51.5 Z"/></g>
<g><path style="opacity:1" fill="#6dccf7" d="M 311.5,51.5 C 329.5,51.5 347.5,51.5 365.5,51.5C 357.833,59.5 350.167,67.5 342.5,75.5C 324.5,75.5 306.5,75.5 288.5,75.5C 296.167,67.5 303.833,59.5 311.5,51.5 Z"/></g>
<g><path style="opacity:1" fill="#67c8f6" d="M 365.5,51.5 C 385.167,51.5 404.833,51.5 424.5,51.5C 416.833,59.5 409.167,67.5 401.5,75.5C 381.833,75.5 362.167,75.5 342.5,75.5C 350.167,67.5 357.833,59.5 365.5,51.5 Z"/></g>
<g><path style="opacity:0.989" fill="#5fc0f5" d="M 424.5,51.5 C 437.326,49.5373 448.659,52.5373 458.5,60.5C 451.889,65.7737 445.555,71.4404 439.5,77.5C 426.932,75.6803 414.265,75.0137 401.5,75.5C 409.167,67.5 416.833,59.5 424.5,51.5 Z"/></g>
<g><path style="opacity:0.988" fill="#54b3f1" d="M 458.5,60.5 C 471.091,69.8979 476.758,82.5645 475.5,98.5C 467.5,106.167 459.5,113.833 451.5,121.5C 451.844,110.784 451.344,100.118 450,89.5C 448.037,84.0437 444.537,80.0437 439.5,77.5C 445.555,71.4404 451.889,65.7737 458.5,60.5 Z"/></g>
<g><path style="opacity:0.995" fill="#84dcf9" d="M 64.5,82.5 C 61.8739,86.4241 60.3739,90.7574 60,95.5C 59.5001,109.163 59.3334,122.829 59.5,136.5C 51.5,144.167 43.5,151.833 35.5,159.5C 35.5,142.833 35.5,126.167 35.5,109.5C 44.8859,100.111 54.5526,91.1111 64.5,82.5 Z"/></g>
<g><path style="opacity:1" fill="#4dabee" d="M 475.5,98.5 C 475.5,106.833 475.5,115.167 475.5,123.5C 467.5,131.167 459.5,138.833 451.5,146.5C 451.5,138.167 451.5,129.833 451.5,121.5C 459.5,113.833 467.5,106.167 475.5,98.5 Z"/></g>
<g><path style="opacity:0.988" fill="#7fd9f9" d="M 90.5,99.5 C 99.9402,99.0545 109.274,99.5545 118.5,101C 123.685,105.947 124.851,111.781 122,118.5C 120.457,120.378 118.624,121.878 116.5,123C 107.065,123.945 97.7321,123.611 88.5,122C 83.3154,117.053 82.1487,111.219 85,104.5C 86.7297,102.598 88.563,100.931 90.5,99.5 Z"/></g>
<g><path style="opacity:0.977" fill="#72cff7" d="M 218.5,99.5 C 227.94,99.0545 237.274,99.5545 246.5,101C 251.685,105.947 252.851,111.781 250,118.5C 248.457,120.378 246.624,121.878 244.5,123C 235.065,123.945 225.732,123.611 216.5,122C 211.315,117.053 210.149,111.219 213,104.5C 214.73,102.598 216.563,100.931 218.5,99.5 Z"/></g>
<g><path style="opacity:0.977" fill="#78d4f8" d="M 154.5,99.5 C 163.94,99.0545 173.274,99.5545 182.5,101C 187.685,105.947 188.851,111.781 186,118.5C 184.457,120.378 182.624,121.878 180.5,123C 171.065,123.945 161.732,123.611 152.5,122C 147.315,117.053 146.149,111.219 149,104.5C 150.73,102.598 152.563,100.931 154.5,99.5 Z"/></g>
<g><path style="opacity:1" fill="#48a5ed" d="M 475.5,123.5 C 475.5,132.167 475.5,140.833 475.5,149.5C 467.5,157.167 459.5,164.833 451.5,172.5C 443.684,171.508 435.684,171.174 427.5,171.5C 435.167,163.5 442.833,155.5 450.5,147.5C 451.167,147.5 451.5,147.167 451.5,146.5C 459.5,138.833 467.5,131.167 475.5,123.5 Z"/></g>
<g><path style="opacity:1" fill="#7ed8f9" d="M 59.5,136.5 C 59.5,140.167 59.5,143.833 59.5,147.5C 72.8333,147.5 86.1667,147.5 99.5,147.5C 91.8333,155.5 84.1667,163.5 76.5,171.5C 70.8333,171.5 65.1667,171.5 59.5,171.5C 59.5,177.167 59.5,182.833 59.5,188.5C 51.5,196.167 43.5,203.833 35.5,211.5C 35.5,194.167 35.5,176.833 35.5,159.5C 43.5,151.833 51.5,144.167 59.5,136.5 Z"/></g>
<g><path style="opacity:1" fill="#78d4f8" d="M 99.5,147.5 C 118.5,147.5 137.5,147.5 156.5,147.5C 148.833,155.5 141.167,163.5 133.5,171.5C 114.5,171.5 95.5,171.5 76.5,171.5C 84.1667,163.5 91.8333,155.5 99.5,147.5 Z"/></g>
<g><path style="opacity:1" fill="#73d0f8" d="M 156.5,147.5 C 176.167,147.5 195.833,147.5 215.5,147.5C 207.833,155.5 200.167,163.5 192.5,171.5C 172.833,171.5 153.167,171.5 133.5,171.5C 141.167,163.5 148.833,155.5 156.5,147.5 Z"/></g>
<g><path style="opacity:1" fill="#6dccf7" d="M 215.5,147.5 C 233.5,147.5 251.5,147.5 269.5,147.5C 261.833,155.5 254.167,163.5 246.5,171.5C 228.5,171.5 210.5,171.5 192.5,171.5C 200.167,163.5 207.833,155.5 215.5,147.5 Z"/></g>
<g><path style="opacity:1" fill="#67c8f6" d="M 269.5,147.5 C 289.167,147.5 308.833,147.5 328.5,147.5C 320.833,155.5 313.167,163.5 305.5,171.5C 285.833,171.5 266.167,171.5 246.5,171.5C 254.167,163.5 261.833,155.5 269.5,147.5 Z"/></g>
<g><path style="opacity:1" fill="#5fc0f4" d="M 328.5,147.5 C 342.167,147.5 355.833,147.5 369.5,147.5C 361.833,155.5 354.167,163.5 346.5,171.5C 332.833,171.5 319.167,171.5 305.5,171.5C 313.167,163.5 320.833,155.5 328.5,147.5 Z"/></g>
<g><path style="opacity:1" fill="#58b8f2" d="M 369.5,147.5 C 378.167,147.5 386.833,147.5 395.5,147.5C 387.833,155.5 380.167,163.5 372.5,171.5C 363.833,171.5 355.167,171.5 346.5,171.5C 354.167,163.5 361.833,155.5 369.5,147.5 Z"/></g>
<g><path style="opacity:1" fill="#53b2f0" d="M 395.5,147.5 C 405.5,147.5 415.5,147.5 425.5,147.5C 417.833,155.5 410.167,163.5 402.5,171.5C 392.5,171.5 382.5,171.5 372.5,171.5C 380.167,163.5 387.833,155.5 395.5,147.5 Z"/></g>
<g><path style="opacity:1" fill="#4dabee" d="M 425.5,147.5 C 433.833,147.5 442.167,147.5 450.5,147.5C 442.833,155.5 435.167,163.5 427.5,171.5C 419.167,171.5 410.833,171.5 402.5,171.5C 410.167,163.5 417.833,155.5 425.5,147.5 Z"/></g>
<g><path style="opacity:1" fill="#429feb" d="M 475.5,149.5 C 475.5,157.833 475.5,166.167 475.5,174.5C 467.5,182.167 459.5,189.833 451.5,197.5C 451.5,189.167 451.5,180.833 451.5,172.5C 459.5,164.833 467.5,157.167 475.5,149.5 Z"/></g>
<g><path style="opacity:1" fill="#3d98e9" d="M 475.5,174.5 C 475.5,184.5 475.5,194.5 475.5,204.5C 467.5,212.167 459.5,219.833 451.5,227.5C 451.5,217.5 451.5,207.5 451.5,197.5C 459.5,189.833 467.5,182.167 475.5,174.5 Z"/></g>
<g><path style="opacity:1" fill="#3792e7" d="M 475.5,204.5 C 475.5,212.833 475.5,221.167 475.5,229.5C 467.5,237.167 459.5,244.833 451.5,252.5C 451.5,244.167 451.5,235.833 451.5,227.5C 459.5,219.833 467.5,212.167 475.5,204.5 Z"/></g>
<g><path style="opacity:1" fill="#78d4f8" d="M 59.5,188.5 C 59.5,207.5 59.5,226.5 59.5,245.5C 51.5,253.167 43.5,260.833 35.5,268.5C 35.5,249.5 35.5,230.5 35.5,211.5C 43.5,203.833 51.5,196.167 59.5,188.5 Z"/></g>
<g><path style="opacity:1" fill="#328ce5" d="M 475.5,229.5 C 475.5,238.167 475.5,246.833 475.5,255.5C 467.5,263.167 459.5,270.833 451.5,278.5C 451.5,269.833 451.5,261.167 451.5,252.5C 459.5,244.833 467.5,237.167 475.5,229.5 Z"/></g>
<g><path style="opacity:0.992" fill="#64c6f6" d="M 225.5,266.5 C 218.036,274.465 210.369,282.298 202.5,290C 200.292,290.191 198.292,290.691 196.5,291.5C 190.824,291.666 185.157,291.499 179.5,291C 172.334,288.166 169.834,282.999 172,275.5C 185.167,261.667 198.333,247.833 211.5,234C 219.346,230.617 225.513,232.451 230,239.5C 230.854,243.625 230.52,247.625 229,251.5C 223.532,255.967 218.365,260.8 213.5,266C 217.486,266.499 221.486,266.666 225.5,266.5 Z"/></g>
<g><path style="opacity:1" fill="#73d0f8" d="M 59.5,245.5 C 59.5,265.167 59.5,284.833 59.5,304.5C 51.5,312.167 43.5,319.833 35.5,327.5C 35.5,307.833 35.5,288.167 35.5,268.5C 43.5,260.833 51.5,253.167 59.5,245.5 Z"/></g>
<g><path style="opacity:1" fill="#2d86e3" d="M 475.5,255.5 C 475.5,263.833 475.5,272.167 475.5,280.5C 467.5,288.167 459.5,295.833 451.5,303.5C 451.5,295.167 451.5,286.833 451.5,278.5C 459.5,270.833 467.5,263.167 475.5,255.5 Z"/></g>
<g><path style="opacity:0.961" fill="#5dbdf4" d="M 225.5,266.5 C 233.833,266.5 242.167,266.5 250.5,266.5C 243.036,274.465 235.369,282.298 227.5,290C 228.737,290.232 229.737,290.732 230.5,291.5C 219.167,291.5 207.833,291.5 196.5,291.5C 198.292,290.691 200.292,290.191 202.5,290C 210.369,282.298 218.036,274.465 225.5,266.5 Z"/></g>
<g><path style="opacity:0.968" fill="#58b8f2" d="M 250.5,266.5 C 259.167,266.5 267.833,266.5 276.5,266.5C 269.036,274.465 261.369,282.298 253.5,290C 254.737,290.232 255.737,290.732 256.5,291.5C 247.833,291.5 239.167,291.5 230.5,291.5C 229.737,290.732 228.737,290.232 227.5,290C 235.369,282.298 243.036,274.465 250.5,266.5 Z"/></g>
<g><path style="opacity:0.968" fill="#53b2f0" d="M 276.5,266.5 C 286.5,266.5 296.5,266.5 306.5,266.5C 299.036,274.465 291.369,282.298 283.5,290C 281.292,290.191 279.292,290.691 277.5,291.5C 270.5,291.5 263.5,291.5 256.5,291.5C 255.737,290.732 254.737,290.232 253.5,290C 261.369,282.298 269.036,274.465 276.5,266.5 Z"/></g>
<g><path style="opacity:0.959" fill="#4baaee" d="M 306.5,266.5 C 314.84,266.334 323.173,266.5 331.5,267C 339.095,270.473 341.595,276.306 339,284.5C 337.437,287.728 334.937,289.895 331.5,291C 313.503,291.5 295.503,291.667 277.5,291.5C 279.292,290.691 281.292,290.191 283.5,290C 291.369,282.298 299.036,274.465 306.5,266.5 Z"/></g>
<g><path style="opacity:1" fill="#2880e1" d="M 475.5,280.5 C 475.5,289.167 475.5,297.833 475.5,306.5C 467.5,314.167 459.5,321.833 451.5,329.5C 451.5,320.833 451.5,312.167 451.5,303.5C 459.5,295.833 467.5,288.167 475.5,280.5 Z"/></g>
<g><path style="opacity:1" fill="#6dccf7" d="M 59.5,304.5 C 59.5,322.5 59.5,340.5 59.5,358.5C 51.5,366.167 43.5,373.833 35.5,381.5C 35.5,363.5 35.5,345.5 35.5,327.5C 43.5,319.833 51.5,312.167 59.5,304.5 Z"/></g>
<g><path style="opacity:1" fill="#2279df" d="M 475.5,306.5 C 475.5,316.5 475.5,326.5 475.5,336.5C 467.5,344.167 459.5,351.833 451.5,359.5C 451.5,349.5 451.5,339.5 451.5,329.5C 459.5,321.833 467.5,314.167 475.5,306.5 Z"/></g>
<g><path style="opacity:0.974" fill="#59b9f3" d="M 227.5,315.5 C 219.5,323.833 211.5,332.167 203.5,340.5C 195.826,340.666 188.159,340.5 180.5,340C 176.104,339.27 173.27,336.77 172,332.5C 169.763,325.155 171.93,319.655 178.5,316C 194.83,315.5 211.163,315.333 227.5,315.5 Z"/></g>
<g><path style="opacity:0.984" fill="#53b2f0" d="M 227.5,315.5 C 237.5,315.5 247.5,315.5 257.5,315.5C 249.5,323.833 241.5,332.167 233.5,340.5C 223.5,340.5 213.5,340.5 203.5,340.5C 211.5,332.167 219.5,323.833 227.5,315.5 Z"/></g>
<g><path style="opacity:0.979" fill="#4dabee" d="M 257.5,315.5 C 265.833,315.5 274.167,315.5 282.5,315.5C 274.5,323.833 266.5,332.167 258.5,340.5C 250.167,340.5 241.833,340.5 233.5,340.5C 241.5,332.167 249.5,323.833 257.5,315.5 Z"/></g>
<g><path style="opacity:0.99" fill="#47a4ec" d="M 282.5,315.5 C 292.5,315.5 302.5,315.5 312.5,315.5C 305.036,323.465 297.369,331.298 289.5,339C 291.058,339.21 292.391,339.71 293.5,340.5C 281.833,340.5 270.167,340.5 258.5,340.5C 266.5,332.167 274.5,323.833 282.5,315.5 Z"/></g>
<g><path style="opacity:0.981" fill="#429eeb" d="M 312.5,315.5 C 319.255,315.207 325.922,315.54 332.5,316.5C 317.116,332.885 301.116,348.552 284.5,363.5C 283.514,359.733 284.014,356.066 286,352.5C 289.833,348.667 293.667,344.833 297.5,341C 296.207,340.51 294.873,340.343 293.5,340.5C 292.391,339.71 291.058,339.21 289.5,339C 297.369,331.298 305.036,323.465 312.5,315.5 Z"/></g>
<g><path style="opacity:0.955" fill="#3d99e9" d="M 332.5,316.5 C 339.236,321.205 340.736,327.205 337,334.5C 325.5,346 314,357.5 302.5,369C 294.778,372.737 288.778,370.904 284.5,363.5C 301.116,348.552 317.116,332.885 332.5,316.5 Z"/></g>
<g><path style="opacity:1" fill="#1c73de" d="M 475.5,336.5 C 475.5,344.833 475.5,353.167 475.5,361.5C 467.5,369.167 459.5,376.833 451.5,384.5C 451.5,376.167 451.5,367.833 451.5,359.5C 459.5,351.833 467.5,344.167 475.5,336.5 Z"/></g>
<g><path style="opacity:0.997" fill="#66c7f6" d="M 59.5,358.5 C 59.3334,377.503 59.5001,396.503 60,415.5C 60.3106,419.778 61.4773,423.778 63.5,427.5C 58.1667,433.833 52.8333,440.167 47.5,446.5C 41.6161,440.741 37.7827,433.741 36,425.5C 35.5001,410.837 35.3334,396.17 35.5,381.5C 43.5,373.833 51.5,366.167 59.5,358.5 Z"/></g>
<g><path style="opacity:1" fill="#176ddc" d="M 475.5,361.5 C 475.5,370.167 475.5,378.833 475.5,387.5C 467.5,395.167 459.5,402.833 451.5,410.5C 451.5,401.833 451.5,393.167 451.5,384.5C 459.5,376.833 467.5,369.167 475.5,361.5 Z"/></g>
<g><path style="opacity:1" fill="#1266da" d="M 475.5,387.5 C 475.5,397.167 475.5,406.833 475.5,416.5C 460.833,430.5 446.5,444.833 432.5,459.5C 422.833,459.5 413.167,459.5 403.5,459.5C 411.167,451.5 418.833,443.5 426.5,435.5C 443.167,435.5 451.5,427.167 451.5,410.5C 459.5,402.833 467.5,395.167 475.5,387.5 Z"/></g>
<g><path style="opacity:0.976" fill="#0e61d9" d="M 475.5,416.5 C 474.88,434.579 466.546,447.745 450.5,456C 444.814,458.754 438.814,459.921 432.5,459.5C 446.5,444.833 460.833,430.5 475.5,416.5 Z"/></g>
<g><path style="opacity:0.988" fill="#5abaf3" d="M 63.5,427.5 C 66.2928,430.403 69.6262,432.569 73.5,434C 84.7852,435.356 96.1185,435.856 107.5,435.5C 99.8333,443.5 92.1667,451.5 84.5,459.5C 70.0053,460.893 57.672,456.56 47.5,446.5C 52.8333,440.167 58.1667,433.833 63.5,427.5 Z"/></g>
<g><path style="opacity:1" fill="#53b2f0" d="M 107.5,435.5 C 117.5,435.5 127.5,435.5 137.5,435.5C 129.833,443.5 122.167,451.5 114.5,459.5C 104.5,459.5 94.5,459.5 84.5,459.5C 92.1667,451.5 99.8333,443.5 107.5,435.5 Z"/></g>
<g><path style="opacity:1" fill="#4dabee" d="M 137.5,435.5 C 145.833,435.5 154.167,435.5 162.5,435.5C 154.833,443.5 147.167,451.5 139.5,459.5C 131.167,459.5 122.833,459.5 114.5,459.5C 122.167,451.5 129.833,443.5 137.5,435.5 Z"/></g>
<g><path style="opacity:1" fill="#48a5ec" d="M 162.5,435.5 C 171.167,435.5 179.833,435.5 188.5,435.5C 180.833,443.5 173.167,451.5 165.5,459.5C 156.833,459.5 148.167,459.5 139.5,459.5C 147.167,451.5 154.833,443.5 162.5,435.5 Z"/></g>
<g><path style="opacity:1" fill="#429feb" d="M 188.5,435.5 C 196.833,435.5 205.167,435.5 213.5,435.5C 205.833,443.5 198.167,451.5 190.5,459.5C 182.167,459.5 173.833,459.5 165.5,459.5C 173.167,451.5 180.833,443.5 188.5,435.5 Z"/></g>
<g><path style="opacity:1" fill="#3d98e9" d="M 213.5,435.5 C 223.5,435.5 233.5,435.5 243.5,435.5C 235.833,443.5 228.167,451.5 220.5,459.5C 210.5,459.5 200.5,459.5 190.5,459.5C 198.167,451.5 205.833,443.5 213.5,435.5 Z"/></g>
<g><path style="opacity:1" fill="#3792e7" d="M 243.5,435.5 C 251.833,435.5 260.167,435.5 268.5,435.5C 260.833,443.5 253.167,451.5 245.5,459.5C 237.167,459.5 228.833,459.5 220.5,459.5C 228.167,451.5 235.833,443.5 243.5,435.5 Z"/></g>
<g><path style="opacity:1" fill="#328ce5" d="M 268.5,435.5 C 277.167,435.5 285.833,435.5 294.5,435.5C 286.833,443.5 279.167,451.5 271.5,459.5C 262.833,459.5 254.167,459.5 245.5,459.5C 253.167,451.5 260.833,443.5 268.5,435.5 Z"/></g>
<g><path style="opacity:1" fill="#2d86e3" d="M 294.5,435.5 C 302.833,435.5 311.167,435.5 319.5,435.5C 311.833,443.5 304.167,451.5 296.5,459.5C 288.167,459.5 279.833,459.5 271.5,459.5C 279.167,451.5 286.833,443.5 294.5,435.5 Z"/></g>
<g><path style="opacity:1" fill="#2880e1" d="M 319.5,435.5 C 328.167,435.5 336.833,435.5 345.5,435.5C 337.833,443.5 330.167,451.5 322.5,459.5C 313.833,459.5 305.167,459.5 296.5,459.5C 304.167,451.5 311.833,443.5 319.5,435.5 Z"/></g>
<g><path style="opacity:1" fill="#2279df" d="M 345.5,435.5 C 355.5,435.5 365.5,435.5 375.5,435.5C 367.833,443.5 360.167,451.5 352.5,459.5C 342.5,459.5 332.5,459.5 322.5,459.5C 330.167,451.5 337.833,443.5 345.5,435.5 Z"/></g>
<g><path style="opacity:1" fill="#1c73de" d="M 375.5,435.5 C 383.833,435.5 392.167,435.5 400.5,435.5C 392.833,443.5 385.167,451.5 377.5,459.5C 369.167,459.5 360.833,459.5 352.5,459.5C 360.167,451.5 367.833,443.5 375.5,435.5 Z"/></g>
<g><path style="opacity:1" fill="#176ddc" d="M 400.5,435.5 C 409.167,435.5 417.833,435.5 426.5,435.5C 418.833,443.5 411.167,451.5 403.5,459.5C 394.833,459.5 386.167,459.5 377.5,459.5C 385.167,451.5 392.833,443.5 400.5,435.5 Z"/></g>
</svg>
