<?xml version="1.0" encoding="UTF-8"?>
<!DOCTYPE svg PUBLIC "-//W3C//DTD SVG 1.1//EN" "http://www.w3.org/Graphics/SVG/1.1/DTD/svg11.dtd">
<svg xmlns="http://www.w3.org/2000/svg" version="1.1" width="512px" height="512px" style="shape-rendering:geometricPrecision; text-rendering:geometricPrecision; image-rendering:optimizeQuality; fill-rule:evenodd; clip-rule:evenodd" xmlns:xlink="http://www.w3.org/1999/xlink">
<g><path style="opacity:0.981" fill="#79d5f8" d="M 264.5,38.5 C 258.225,46.1125 251.558,53.4458 244.5,60.5C 205.306,57.3484 174.806,72.0151 153,104.5C 142.288,123.098 138.121,143.098 140.5,164.5C 132.816,171.168 126.149,178.168 120.5,185.5C 114.472,166.813 113.472,147.813 117.5,128.5C 149.45,98.2167 180.784,67.2167 211.5,35.5C 229.371,33.4616 247.038,34.4616 264.5,38.5 Z"/></g>
<g><path style="opacity:0.989" fill="#7fd8f9" d="M 211.5,35.5 C 180.784,67.2167 149.45,98.2167 117.5,128.5C 117.421,127.07 117.754,125.736 118.5,124.5C 108.148,123.233 97.8144,123.399 87.5,125C 67.2024,131.973 58.3691,146.14 61,167.5C 62.312,172.116 64.1453,176.449 66.5,180.5C 56.5,191.167 46.1667,201.5 35.5,211.5C 35.3334,190.497 35.5,169.497 36,148.5C 41.4397,124.393 55.9397,108.559 79.5,101C 95.4666,99.9111 111.467,99.0777 127.5,98.5C 145.271,63.9395 173.271,42.9395 211.5,35.5 Z"/></g>
<g><path style="opacity:0.976" fill="#73d0f8" d="M 264.5,38.5 C 279.162,42.6603 292.162,49.6603 303.5,59.5C 297.806,65.8604 291.806,71.8604 285.5,77.5C 272.974,68.8858 259.308,63.2191 244.5,60.5C 251.558,53.4458 258.225,46.1125 264.5,38.5 Z"/></g>
<g><path style="opacity:0.986" fill="#73d0f8" d="M 261.5,103.5 C 253.889,109.443 246.889,116.109 240.5,123.5C 235.305,123.179 230.305,123.513 225.5,124.5C 224.674,129.316 224.174,134.316 224,139.5C 216.298,147.369 208.465,155.036 200.5,162.5C 200.5,149.5 200.5,136.5 200.5,123.5C 186.838,123.998 182.005,117.665 186,104.5C 187.543,102.622 189.376,101.122 191.5,100C 200.827,99.5002 210.161,99.3335 219.5,99.5C 218.649,87.1847 224.315,82.0181 236.5,84C 242.74,87.3187 245.074,92.4854 243.5,99.5C 250.085,98.7451 256.085,100.078 261.5,103.5 Z"/></g>
<g><path style="opacity:0.985" fill="#69caf7" d="M 303.5,59.5 C 317.234,69.9595 327.901,82.9595 335.5,98.5C 344.141,99.498 352.808,99.8314 361.5,99.5C 348.833,112.833 335.833,125.833 322.5,138.5C 317.989,113.344 305.656,93.0102 285.5,77.5C 291.806,71.8604 297.806,65.8604 303.5,59.5 Z"/></g>
<g><path style="opacity:0.992" fill="#63c5f6" d="M 361.5,99.5 C 370.833,99.5 380.167,99.5 389.5,99.5C 389.918,100.222 390.584,100.722 391.5,101C 383.964,108.368 376.631,115.868 369.5,123.5C 361.14,123.169 352.807,123.502 344.5,124.5C 346.476,131.354 347.476,138.354 347.5,145.5C 338.78,154.223 329.78,162.556 320.5,170.5C 322.342,159.974 323.009,149.307 322.5,138.5C 335.833,125.833 348.833,112.833 361.5,99.5 Z"/></g>
<g><path style="opacity:0.991" fill="#6dccf7" d="M 261.5,103.5 C 274.483,110.433 281.15,121.433 281.5,136.5C 269.702,147.798 258.035,159.298 246.5,171C 247.416,171.278 248.082,171.778 248.5,172.5C 244.026,171.975 239.526,171.641 235,171.5C 231.424,171.515 228.258,172.182 225.5,173.5C 224.672,179.987 224.172,186.654 224,193.5C 215.298,202.035 206.798,210.702 198.5,219.5C 180.5,219.5 162.5,219.5 144.5,219.5C 152.167,211.5 159.833,203.5 167.5,195.5C 178.5,195.5 189.5,195.5 200.5,195.5C 200.5,184.5 200.5,173.5 200.5,162.5C 208.465,155.036 216.298,147.369 224,139.5C 224.174,134.316 224.674,129.316 225.5,124.5C 225.5,132.167 225.5,139.833 225.5,147.5C 233.561,147.821 241.561,147.321 249.5,146C 258.833,139 258.833,132 249.5,125C 246.522,124.304 243.522,123.804 240.5,123.5C 246.889,116.109 253.889,109.443 261.5,103.5 Z"/></g>
<g><path style="opacity:0.99" fill="#5dbef4" d="M 389.5,99.5 C 396.954,100.424 403.621,103.091 409.5,107.5C 403.833,113.833 397.833,119.833 391.5,125.5C 384.276,123.888 376.942,123.222 369.5,123.5C 376.631,115.868 383.964,108.368 391.5,101C 390.584,100.722 389.918,100.222 389.5,99.5 Z"/></g>
<g><path style="opacity:0.975" fill="#58b8f2" d="M 409.5,107.5 C 414.735,111.281 419.068,115.947 422.5,121.5C 416.202,127.297 410.035,133.297 404,139.5C 403.722,138.584 403.222,137.918 402.5,137.5C 400.223,132.223 396.556,128.223 391.5,125.5C 397.833,119.833 403.833,113.833 409.5,107.5 Z"/></g>
<g><path style="opacity:0.988" fill="#53b2f0" d="M 422.5,121.5 C 426.845,129.248 428.512,137.581 427.5,146.5C 419.5,154.167 411.5,161.833 403.5,169.5C 403.679,158.81 403.345,148.143 402.5,137.5C 403.222,137.918 403.722,138.584 404,139.5C 410.035,133.297 416.202,127.297 422.5,121.5 Z"/></g>
<g><path style="opacity:0.98" fill="#68c9f7" d="M 281.5,136.5 C 281.002,145.16 278.002,152.827 272.5,159.5C 277.709,165.919 280.709,173.252 281.5,181.5C 267.885,193.447 254.885,206.114 242.5,219.5C 227.833,219.5 213.167,219.5 198.5,219.5C 206.798,210.702 215.298,202.035 224,193.5C 224.172,186.654 224.672,179.987 225.5,173.5C 225.5,180.833 225.5,188.167 225.5,195.5C 231.842,195.666 238.175,195.5 244.5,195C 255.214,192.739 258.381,186.572 254,176.5C 252.226,175.035 250.392,173.702 248.5,172.5C 248.082,171.778 247.416,171.278 246.5,171C 258.035,159.298 269.702,147.798 281.5,136.5 Z"/></g>
<g><path style="opacity:1" fill="#4dabee" d="M 427.5,146.5 C 427.5,154.833 427.5,163.167 427.5,171.5C 419.5,179.167 411.5,186.833 403.5,194.5C 403.5,186.167 403.5,177.833 403.5,169.5C 411.5,161.833 419.5,154.167 427.5,146.5 Z"/></g>
<g><path style="opacity:0.991" fill="#5dbef4" d="M 347.5,145.5 C 348.07,155.528 347.403,165.528 345.5,175.5C 344.778,175.082 344.278,174.416 344,173.5C 328.632,188.701 313.465,204.035 298.5,219.5C 290.167,219.5 281.833,219.5 273.5,219.5C 281.167,211.5 288.833,203.5 296.5,195.5C 301.762,195.805 306.928,195.471 312,194.5C 316.131,186.939 318.964,178.939 320.5,170.5C 329.78,162.556 338.78,154.223 347.5,145.5 Z"/></g>
<g><path style="opacity:0.991" fill="#73d0f8" d="M 140.5,164.5 C 142.669,174.835 146.169,184.835 151,194.5C 156.407,195.473 161.907,195.807 167.5,195.5C 159.833,203.5 152.167,211.5 144.5,219.5C 124.326,219.83 104.326,219.497 84.5,218.5C 93.1123,211.556 101.112,203.889 108.5,195.5C 113.544,195.827 118.544,195.494 123.5,194.5C 122.199,191.573 121.199,188.573 120.5,185.5C 126.149,178.168 132.816,171.168 140.5,164.5 Z"/></g>
<g><path style="opacity:0.99" fill="#59b9f2" d="M 345.5,175.5 C 344.274,182.067 342.274,188.4 339.5,194.5C 342.086,195.48 344.753,195.813 347.5,195.5C 339.833,203.5 332.167,211.5 324.5,219.5C 315.833,219.5 307.167,219.5 298.5,219.5C 313.465,204.035 328.632,188.701 344,173.5C 344.278,174.416 344.778,175.082 345.5,175.5 Z"/></g>
<g><path style="opacity:1" fill="#48a5ed" d="M 427.5,171.5 C 427.5,179.833 427.5,188.167 427.5,196.5C 420.167,204.167 412.833,211.833 405.5,219.5C 396.833,219.5 388.167,219.5 379.5,219.5C 387.167,211.5 394.833,203.5 402.5,195.5C 403.167,195.5 403.5,195.167 403.5,194.5C 411.5,186.833 419.5,179.167 427.5,171.5 Z"/></g>
<g><path style="opacity:0.995" fill="#79d4f8" d="M 66.5,180.5 C 77.7997,192.603 91.7997,197.603 108.5,195.5C 101.112,203.889 93.1123,211.556 84.5,218.5C 75.4707,217.234 67.304,213.901 60,208.5C 59.5001,220.829 59.3335,233.162 59.5,245.5C 51.5,253.167 43.5,260.833 35.5,268.5C 35.5,249.5 35.5,230.5 35.5,211.5C 46.1667,201.5 56.5,191.167 66.5,180.5 Z"/></g>
<g><path style="opacity:1" fill="#62c4f6" d="M 281.5,181.5 C 281.221,186.227 280.554,190.893 279.5,195.5C 285.167,195.5 290.833,195.5 296.5,195.5C 288.833,203.5 281.167,211.5 273.5,219.5C 263.167,219.5 252.833,219.5 242.5,219.5C 254.885,206.114 267.885,193.447 281.5,181.5 Z"/></g>
<g><path style="opacity:1" fill="#53b2f0" d="M 347.5,195.5 C 357.5,195.5 367.5,195.5 377.5,195.5C 369.833,203.5 362.167,211.5 354.5,219.5C 344.5,219.5 334.5,219.5 324.5,219.5C 332.167,211.5 339.833,203.5 347.5,195.5 Z"/></g>
<g><path style="opacity:1" fill="#4dabee" d="M 377.5,195.5 C 385.833,195.5 394.167,195.5 402.5,195.5C 394.833,203.5 387.167,211.5 379.5,219.5C 371.167,219.5 362.833,219.5 354.5,219.5C 362.167,211.5 369.833,203.5 377.5,195.5 Z"/></g>
<g><path style="opacity:0.979" fill="#439feb" d="M 427.5,196.5 C 433.485,198.488 438.818,201.488 443.5,205.5C 437.833,211.5 432.167,217.5 426.5,223.5C 419.914,220.345 412.914,219.012 405.5,219.5C 412.833,211.833 420.167,204.167 427.5,196.5 Z"/></g>
<g><path style="opacity:0.977" fill="#3d98e9" d="M 443.5,205.5 C 449.79,210.078 454.123,216.078 456.5,223.5C 449.5,230.167 442.5,236.833 435.5,243.5C 435.722,235.284 432.722,228.618 426.5,223.5C 432.167,217.5 437.833,211.5 443.5,205.5 Z"/></g>
<g><path style="opacity:1" fill="#73d0f8" d="M 59.5,245.5 C 59.5,265.167 59.5,284.833 59.5,304.5C 51.5,312.167 43.5,319.833 35.5,327.5C 35.5,307.833 35.5,288.167 35.5,268.5C 43.5,260.833 51.5,253.167 59.5,245.5 Z"/></g>
<g><path style="opacity:0.996" fill="#348ee6" d="M 456.5,223.5 C 457.776,225.562 458.61,227.896 459,230.5C 459.5,244.163 459.667,257.829 459.5,271.5C 449.833,280.5 440.5,289.833 431.5,299.5C 421.332,299.093 411.332,300.093 401.5,302.5C 410.806,293.86 419.806,284.86 428.5,275.5C 430.833,275.5 433.167,275.5 435.5,275.5C 435.5,264.833 435.5,254.167 435.5,243.5C 442.5,236.833 449.5,230.167 456.5,223.5 Z"/></g>
<g><path style="opacity:0.987" fill="#2e87e3" d="M 459.5,271.5 C 459.338,273.527 459.505,275.527 460,277.5C 462.688,279.364 465.188,281.364 467.5,283.5C 462.559,290.11 456.892,296.11 450.5,301.5C 444.382,299.635 438.048,298.968 431.5,299.5C 440.5,289.833 449.833,280.5 459.5,271.5 Z"/></g>
<g><path style="opacity:0.991" fill="#3893e7" d="M 428.5,275.5 C 419.806,284.86 410.806,293.86 401.5,302.5C 392.364,307.634 385.697,314.967 381.5,324.5C 373.698,330.777 366.031,337.944 358.5,346C 357.906,346.464 357.239,346.631 356.5,346.5C 352.318,312.053 366.652,288.886 399.5,277C 409.109,275.641 418.776,275.141 428.5,275.5 Z"/></g>
<g><path style="opacity:0.993" fill="#2880e2" d="M 467.5,283.5 C 474.112,289.665 476.779,297.331 475.5,306.5C 467.5,314.167 459.5,321.833 451.5,329.5C 451.78,320.114 451.447,310.78 450.5,301.5C 456.892,296.11 462.559,290.11 467.5,283.5 Z"/></g>
<g><path style="opacity:1" fill="#6bcbf7" d="M 59.5,304.5 C 59.5,337.167 59.5,369.833 59.5,402.5C 51.5,410.167 43.5,417.833 35.5,425.5C 35.5,392.833 35.5,360.167 35.5,327.5C 43.5,319.833 51.5,312.167 59.5,304.5 Z"/></g>
<g><path style="opacity:1" fill="#2279df" d="M 475.5,306.5 C 475.5,316.5 475.5,326.5 475.5,336.5C 467.5,344.167 459.5,351.833 451.5,359.5C 451.5,349.5 451.5,339.5 451.5,329.5C 459.5,321.833 467.5,314.167 475.5,306.5 Z"/></g>
<g><path style="opacity:0.978" fill="#338de5" d="M 381.5,324.5 C 379.885,332.305 380.218,339.972 382.5,347.5C 376.804,354.197 370.47,360.197 363.5,365.5C 359.415,359.92 357.081,353.587 356.5,346.5C 357.239,346.631 357.906,346.464 358.5,346C 366.031,337.944 373.698,330.777 381.5,324.5 Z"/></g>
<g><path style="opacity:0.999" fill="#1d73de" d="M 475.5,336.5 C 475.5,344.833 475.5,353.167 475.5,361.5C 462.167,374.5 448.833,387.5 435.5,400.5C 435.5,398.833 435.5,397.167 435.5,395.5C 429.167,395.5 422.833,395.5 416.5,395.5C 424.167,387.5 431.833,379.5 439.5,371.5C 449.167,373.167 453.167,369.167 451.5,359.5C 459.5,351.833 467.5,344.167 475.5,336.5 Z"/></g>
<g><path style="opacity:0.974" fill="#2d86e3" d="M 382.5,347.5 C 384.675,353.847 388.342,359.181 393.5,363.5C 387.167,368.833 380.833,374.167 374.5,379.5C 369.388,375.931 365.722,371.264 363.5,365.5C 370.47,360.197 376.804,354.197 382.5,347.5 Z"/></g>
<g><path style="opacity:0.974" fill="#2880e2" d="M 393.5,363.5 C 398.108,366.637 403.108,368.97 408.5,370.5C 408.611,371.117 408.944,371.617 409.5,372C 403.297,378.035 397.297,384.202 391.5,390.5C 384.632,388.574 378.966,384.907 374.5,379.5C 380.833,374.167 387.167,368.833 393.5,363.5 Z"/></g>
<g><path style="opacity:0.983" fill="#176ddc" d="M 475.5,361.5 C 477.537,375.758 472.37,386.425 460,393.5C 459.502,396.817 459.335,400.15 459.5,403.5C 451.5,411.167 443.5,418.833 435.5,426.5C 435.5,417.833 435.5,409.167 435.5,400.5C 448.833,387.5 462.167,374.5 475.5,361.5 Z"/></g>
<g><path style="opacity:0.993" fill="#2279df" d="M 408.5,370.5 C 418.812,371.305 429.146,371.638 439.5,371.5C 431.833,379.5 424.167,387.5 416.5,395.5C 407.555,396.244 399.221,394.578 391.5,390.5C 397.297,384.202 403.297,378.035 409.5,372C 408.944,371.617 408.611,371.117 408.5,370.5 Z"/></g>
<g><path style="opacity:0.997" fill="#59baf3" d="M 155.5,387.5 C 147.833,395.5 140.167,403.5 132.5,411.5C 123.06,411.945 113.726,411.445 104.5,410C 99.3154,405.053 98.1487,399.219 101,392.5C 102.543,390.622 104.376,389.122 106.5,388C 122.83,387.5 139.163,387.333 155.5,387.5 Z"/></g>
<g><path style="opacity:0.979" fill="#50afef" d="M 155.5,387.5 C 164.608,387.057 173.608,387.557 182.5,389C 187.685,393.947 188.851,399.781 186,406.5C 184.457,408.378 182.624,409.878 180.5,411C 164.503,411.5 148.503,411.667 132.5,411.5C 140.167,403.5 147.833,395.5 155.5,387.5 Z"/></g>
<g><path style="opacity:1" fill="#1266da" d="M 459.5,403.5 C 459.5,413.167 459.5,422.833 459.5,432.5C 444.833,446.5 430.5,460.833 416.5,475.5C 406.833,475.5 397.167,475.5 387.5,475.5C 395.167,467.5 402.833,459.5 410.5,451.5C 427.167,451.5 435.5,443.167 435.5,426.5C 443.5,418.833 451.5,411.167 459.5,403.5 Z"/></g>
<g><path style="opacity:0.988" fill="#62c4f6" d="M 59.5,402.5 C 59.237,413.205 59.5704,423.872 60.5,434.5C 59.8826,434.389 59.3826,434.056 59,433.5C 52.9101,440.096 46.4101,446.096 39.5,451.5C 35.9364,443.248 34.603,434.581 35.5,425.5C 43.5,417.833 51.5,410.167 59.5,402.5 Z"/></g>
<g><path style="opacity:0.976" fill="#0e61d9" d="M 459.5,432.5 C 458.88,450.579 450.546,463.745 434.5,472C 428.814,474.754 422.814,475.921 416.5,475.5C 430.5,460.833 444.833,446.5 459.5,432.5 Z"/></g>
<g><path style="opacity:0.99" fill="#5abaf3" d="M 60.5,434.5 C 61.7297,442.233 66.063,447.399 73.5,450C 79.4449,451.162 85.4449,451.662 91.5,451.5C 84.139,459.193 76.8057,466.86 69.5,474.5C 56.0043,471.331 46.0043,463.665 39.5,451.5C 46.4101,446.096 52.9101,440.096 59,433.5C 59.3826,434.056 59.8826,434.389 60.5,434.5 Z"/></g>
<g><path style="opacity:0.995" fill="#53b2f0" d="M 91.5,451.5 C 101.5,451.5 111.5,451.5 121.5,451.5C 113.833,459.5 106.167,467.5 98.5,475.5C 88.6522,475.827 78.9856,475.494 69.5,474.5C 76.8057,466.86 84.139,459.193 91.5,451.5 Z"/></g>
<g><path style="opacity:1" fill="#4dabee" d="M 121.5,451.5 C 129.833,451.5 138.167,451.5 146.5,451.5C 138.833,459.5 131.167,467.5 123.5,475.5C 115.167,475.5 106.833,475.5 98.5,475.5C 106.167,467.5 113.833,459.5 121.5,451.5 Z"/></g>
<g><path style="opacity:1" fill="#48a5ec" d="M 146.5,451.5 C 155.167,451.5 163.833,451.5 172.5,451.5C 164.833,459.5 157.167,467.5 149.5,475.5C 140.833,475.5 132.167,475.5 123.5,475.5C 131.167,467.5 138.833,459.5 146.5,451.5 Z"/></g>
<g><path style="opacity:1" fill="#429feb" d="M 172.5,451.5 C 180.833,451.5 189.167,451.5 197.5,451.5C 189.833,459.5 182.167,467.5 174.5,475.5C 166.167,475.5 157.833,475.5 149.5,475.5C 157.167,467.5 164.833,459.5 172.5,451.5 Z"/></g>
<g><path style="opacity:1" fill="#3d98e9" d="M 197.5,451.5 C 207.5,451.5 217.5,451.5 227.5,451.5C 219.833,459.5 212.167,467.5 204.5,475.5C 194.5,475.5 184.5,475.5 174.5,475.5C 182.167,467.5 189.833,459.5 197.5,451.5 Z"/></g>
<g><path style="opacity:1" fill="#3792e7" d="M 227.5,451.5 C 235.833,451.5 244.167,451.5 252.5,451.5C 244.833,459.5 237.167,467.5 229.5,475.5C 221.167,475.5 212.833,475.5 204.5,475.5C 212.167,467.5 219.833,459.5 227.5,451.5 Z"/></g>
<g><path style="opacity:1" fill="#328ce5" d="M 252.5,451.5 C 261.167,451.5 269.833,451.5 278.5,451.5C 270.833,459.5 263.167,467.5 255.5,475.5C 246.833,475.5 238.167,475.5 229.5,475.5C 237.167,467.5 244.833,459.5 252.5,451.5 Z"/></g>
<g><path style="opacity:1" fill="#2d86e3" d="M 278.5,451.5 C 286.833,451.5 295.167,451.5 303.5,451.5C 295.833,459.5 288.167,467.5 280.5,475.5C 272.167,475.5 263.833,475.5 255.5,475.5C 263.167,467.5 270.833,459.5 278.5,451.5 Z"/></g>
<g><path style="opacity:1" fill="#2880e1" d="M 303.5,451.5 C 312.167,451.5 320.833,451.5 329.5,451.5C 321.833,459.5 314.167,467.5 306.5,475.5C 297.833,475.5 289.167,475.5 280.5,475.5C 288.167,467.5 295.833,459.5 303.5,451.5 Z"/></g>
<g><path style="opacity:1" fill="#2279df" d="M 329.5,451.5 C 339.5,451.5 349.5,451.5 359.5,451.5C 351.833,459.5 344.167,467.5 336.5,475.5C 326.5,475.5 316.5,475.5 306.5,475.5C 314.167,467.5 321.833,459.5 329.5,451.5 Z"/></g>
<g><path style="opacity:1" fill="#1c73de" d="M 359.5,451.5 C 367.833,451.5 376.167,451.5 384.5,451.5C 376.833,459.5 369.167,467.5 361.5,475.5C 353.167,475.5 344.833,475.5 336.5,475.5C 344.167,467.5 351.833,459.5 359.5,451.5 Z"/></g>
<g><path style="opacity:1" fill="#176ddc" d="M 384.5,451.5 C 393.167,451.5 401.833,451.5 410.5,451.5C 402.833,459.5 395.167,467.5 387.5,475.5C 378.833,475.5 370.167,475.5 361.5,475.5C 369.167,467.5 376.833,459.5 384.5,451.5 Z"/></g>
</svg>
