<svg width="115" height="30" viewBox="0 0 115 30" fill="none" xmlns="http://www.w3.org/2000/svg">
<path d="M32.997 22.9535C31.7768 22.3001 30.8174 21.391 30.1191 20.2262C29.4206 19.0607 29.0687 17.7564 29.0631 16.3123C29.0572 14.8688 29.3982 13.5611 30.0876 12.3904C30.7763 11.2196 31.7282 10.3027 32.943 9.63923C34.158 8.97613 35.5226 8.64164 37.0374 8.63546C38.5519 8.62928 39.9193 8.95253 41.1397 9.60603C42.3599 10.2593 43.3192 11.1654 44.0176 12.323C44.7158 13.4812 45.0682 14.7893 45.0741 16.2473C45.0798 17.7056 44.738 19.0167 44.0492 20.1801C43.3603 21.3439 42.4085 22.257 41.1938 22.9204C39.9787 23.5836 38.6142 23.9185 37.0997 23.9248C35.5847 23.9304 34.2172 23.6069 32.997 22.9535ZM39.7624 20.8239C40.5533 20.3748 41.1738 19.7493 41.6233 18.9476C42.0732 18.1461 42.2961 17.2496 42.2921 16.2586C42.288 15.2678 42.058 14.3731 41.6018 13.5753C41.1456 12.7775 40.5201 12.1568 39.7256 11.7141C38.9308 11.2715 38.0383 11.0517 37.0474 11.056C36.0562 11.06 35.1653 11.2867 34.3746 11.7356C33.5832 12.185 32.963 12.8108 32.5135 13.6121C32.0637 14.4137 31.8407 15.3103 31.8448 16.3009C31.8489 17.2923 32.0787 18.1869 32.5351 18.9843C32.991 19.7825 33.6166 20.4029 34.411 20.8455C35.2058 21.2879 36.0984 21.508 37.0897 21.5037C38.0804 21.4997 38.9712 21.2728 39.7624 20.8239Z" fill="#8F96A5"/>
<path d="M55.5369 12.156C56.4093 12.634 57.0945 13.3106 57.5941 14.1863C58.0931 15.0624 58.3448 16.0731 58.3494 17.22C58.3542 18.3664 58.1104 19.3838 57.6188 20.2698C57.1266 21.1569 56.4468 21.8428 55.5783 22.3275C54.7096 22.8124 53.7228 23.0571 52.6187 23.0616C51.0899 23.0678 49.8773 22.5632 48.981 21.5474L49.0032 27.0472L46.3488 27.058L46.2861 11.5987L48.8129 11.5885L48.8189 13.075C49.2553 12.5357 49.7955 12.1298 50.4386 11.8579C51.0815 11.5866 51.7926 11.4493 52.5712 11.4462C53.6757 11.4415 54.6642 11.6784 55.5369 12.156ZM54.7182 19.8039C55.3453 19.1505 55.6569 18.2924 55.6525 17.2308C55.6482 16.169 55.3296 15.3141 54.6973 14.6654C54.0647 14.0165 53.2602 13.6942 52.2832 13.6981C51.6461 13.7006 51.0736 13.8484 50.565 14.1405C50.0566 14.4327 49.6546 14.8486 49.3598 15.3875C49.0647 15.9272 48.9183 16.5505 48.9213 17.2582C48.9241 17.9658 49.0755 18.5883 49.375 19.1249C49.6742 19.6619 50.0795 20.0743 50.5901 20.362C51.101 20.6506 51.6746 20.7931 52.3117 20.7906C53.2889 20.7867 54.0909 20.458 54.7182 19.8039Z" fill="#8F96A5"/>
<path d="M70.908 18.0183L62.0104 18.0545C62.1695 18.889 62.5794 19.5491 63.2394 20.0348C63.8995 20.5205 64.7183 20.7615 65.695 20.7575C66.9405 20.7525 67.9654 20.3378 68.7689 19.5133L70.1984 21.1426C69.6911 21.7535 69.0484 22.2164 68.2716 22.5306C67.494 22.8452 66.6173 23.0044 65.6403 23.0085C64.3944 23.0136 63.2961 22.7702 62.346 22.2783C61.3953 21.7869 60.6598 21.0997 60.1395 20.2168C59.619 19.3342 59.3567 18.3339 59.352 17.2153C59.3475 16.1111 59.5949 15.1158 60.094 14.229C60.5929 13.342 61.2875 12.6492 62.1771 12.15C63.0668 11.6508 64.0709 11.399 65.1896 11.3945C66.2938 11.3899 67.2821 11.6301 68.1546 12.1151C69.0273 12.5997 69.7093 13.2839 70.2015 14.1663C70.6935 15.0493 70.942 16.0714 70.9465 17.232C70.948 17.4164 70.9346 17.6784 70.908 18.0183ZM63.0464 14.281C62.4611 14.7861 62.1059 15.4563 61.982 16.2922L68.4164 16.266C68.2994 15.4454 67.9503 14.7814 67.3675 14.2741C66.7847 13.7669 66.0618 13.5149 65.1986 13.5184C64.3493 13.5218 63.6315 13.7763 63.0464 14.281Z" fill="#8F96A5"/>
<path d="M82.1484 12.5789C83.015 13.4107 83.4521 14.6475 83.4588 16.2894L83.4853 22.7876L80.8306 22.7984L80.8054 16.6401C80.8014 15.6495 80.5648 14.9038 80.0956 14.4029C79.6262 13.9026 78.9599 13.6535 78.0965 13.657C77.1197 13.6609 76.3491 13.9582 75.7854 14.5479C75.2215 15.1376 74.942 15.9844 74.9466 17.0885L74.9696 22.8217L72.3151 22.8328L72.2692 11.4931L74.7963 11.4829L74.8022 12.9486C75.2386 12.423 75.7892 12.0243 76.4535 11.7526C77.1176 11.4811 77.8673 11.3435 78.7027 11.34C80.1329 11.3343 81.2815 11.7474 82.1484 12.5789Z" fill="#8F96A5"/>
<path d="M85.3676 7.02331L88.0221 7.01233L88.0861 22.769L85.4315 22.7796L85.3676 7.02331Z" fill="#8F96A5"/>
<path d="M99.184 12.4567C100.072 13.2532 100.519 14.4581 100.526 16.0718L100.553 22.7182L98.0469 22.7285L98.0414 21.348C97.7177 21.8448 97.2558 22.2256 96.6552 22.4894C96.0544 22.7537 95.3297 22.8878 94.4803 22.8913C93.6309 22.8948 92.8872 22.7523 92.249 22.465C91.6103 22.1777 91.1169 21.776 90.7682 21.2603C90.4187 20.7455 90.2436 20.1623 90.2409 19.5109C90.2367 18.4917 90.612 17.6723 91.3671 17.0537C92.1215 16.4346 93.3131 16.1222 94.9412 16.1153L97.8714 16.1035L97.8706 15.9335C97.8674 15.1409 97.6279 14.533 97.152 14.1101C96.6758 13.6872 95.9708 13.478 95.0364 13.4817C94.3993 13.4843 93.7735 13.5856 93.1584 13.7863C92.5433 13.9874 92.0243 14.2655 91.601 14.6213L90.5525 12.693C91.1452 12.2379 91.8586 11.888 92.6929 11.6436C93.5271 11.3998 94.4117 11.276 95.3457 11.2722C97.0166 11.2656 98.2959 11.6606 99.184 12.4567ZM96.7957 20.4931C97.3112 20.1867 97.6741 19.7498 97.8839 19.1829L97.8788 17.8665L95.1398 17.8774C93.6104 17.8836 92.8482 18.3897 92.8524 19.3943C92.8541 19.8757 93.047 20.2574 93.4303 20.5388C93.8137 20.8203 94.345 20.9596 95.0246 20.957C95.6898 20.9541 96.2803 20.8 96.7957 20.4931Z" fill="#8F96A5"/>
<path d="M112.187 11.9258C113.06 12.4038 113.745 13.0804 114.245 13.9562C114.743 14.8323 114.995 15.8429 115 16.9898C115.005 18.1364 114.761 19.1538 114.269 20.0396C113.777 20.9267 113.097 21.6129 112.229 22.0975C111.36 22.5824 110.373 22.8272 109.269 22.8314C108.49 22.8346 107.779 22.7024 107.133 22.4366C106.488 22.1705 105.945 21.7694 105.504 21.2323L105.51 22.6981L102.983 22.7085L102.919 6.95199L105.574 6.94116L105.597 12.7384C106.048 12.2413 106.581 11.8636 107.196 11.6064C107.81 11.3487 108.485 11.2189 109.222 11.2161C110.326 11.2117 111.315 11.4484 112.187 11.9258ZM111.369 19.5738C111.996 18.9204 112.308 18.0623 112.303 17.0007C112.299 15.9388 111.98 15.0841 111.348 14.4353C110.715 13.7862 109.911 13.4641 108.934 13.4679C108.297 13.4706 107.724 13.6185 107.216 13.9103C106.707 14.2025 106.305 14.6184 106.01 15.1573C105.715 15.697 105.569 16.3204 105.572 17.028C105.575 17.7357 105.726 18.3581 106.025 18.8948C106.325 19.4317 106.73 19.8441 107.241 20.132C107.751 20.4203 108.325 20.563 108.963 20.5603C109.939 20.5566 110.742 20.2279 111.369 19.5738Z" fill="#8F96A5"/>
<path d="M8.5777 11.7873C11.1238 9.49754 14.9903 6.22703 14.9903 6.22703C17.4213 4.4502 16.1821 11.285 15.9946 12.5927C15.8073 13.9003 15.3836 14.2 15.3836 14.2C13.8269 16.1144 9.07869 19.208 5.23106 21.6938C1.38327 24.1799 0.735378 25.0681 0.735378 25.0681C-2.53871 21.6333 6.03178 14.0771 8.5777 11.7873ZM17.6813 0.078082C17.6813 0.078082 18.1268 1.08322 18.3558 5.65853C18.5845 10.2338 18.8896 15.8926 19.7694 18.1983C19.7694 18.1983 19.8171 18.7144 20.8554 19.5306C21.8946 20.3471 27.1941 24.8374 26.8707 21.8439C26.8707 21.8439 25.9717 16.86 25.2619 13.5102C24.5518 10.1608 22.2932 -1.0398 17.6813 0.078082ZM31.1942 27.1693C31.1942 27.1693 30.1011 27.0523 26.0243 24.9634C21.9471 22.8738 16.8945 20.3086 14.4578 19.9178C14.4578 19.9178 13.9868 19.701 12.7609 20.1922C11.5343 20.6836 4.99573 23.028 7.74988 24.2448C7.74988 24.2448 12.5156 25.958 15.7714 27.0179C19.0276 28.0782 29.8568 31.7222 31.1942 27.1693Z" fill="url(#paint0_linear_62_340)"/>
<defs>
<linearGradient id="paint0_linear_62_340" x1="-0.811857" y1="19.1882" x2="28.6286" y2="13.6153" gradientUnits="userSpaceOnUse">
<stop offset="0.0014" stop-color="#3A23FF"/>
<stop offset="0.1358" stop-color="#3829FF"/>
<stop offset="0.3154" stop-color="#313AFF"/>
<stop offset="0.5207" stop-color="#2556FF"/>
<stop offset="0.7449" stop-color="#167DFF"/>
<stop offset="0.9822" stop-color="#02AEFF"/>
<stop offset="1" stop-color="#00B2FF"/>
</linearGradient>
</defs>
</svg>
