<svg width="124" height="32" viewBox="0 0 124 32" fill="none" xmlns="http://www.w3.org/2000/svg">
<path d="M35.3204 24.5694C34.0143 23.87 32.9873 22.8969 32.2399 21.6501C31.4921 20.4026 31.1155 19.0064 31.1095 17.4606C31.1032 15.9155 31.4682 14.5157 32.2061 13.2626C32.9433 12.0094 33.9623 11.0278 35.2626 10.3177C36.5631 9.60791 38.0238 9.24987 39.6453 9.24326C41.2664 9.23664 42.7301 9.58265 44.0364 10.2822C45.3426 10.9814 46.3694 11.9513 47.117 13.1905C47.8644 14.4302 48.2416 15.8304 48.2478 17.391C48.254 18.952 47.8881 20.3555 47.1508 21.6008C46.4133 22.8465 45.3946 23.824 44.0943 24.534C42.7937 25.244 41.3331 25.6024 39.712 25.6091C38.0903 25.6151 36.6265 25.2689 35.3204 24.5694ZM42.5621 22.2899C43.4088 21.8092 44.0729 21.1396 44.5541 20.2815C45.0357 19.4236 45.2742 18.464 45.27 17.4031C45.2656 16.3426 45.0194 15.3849 44.531 14.5309C44.0427 13.677 43.3732 13.0126 42.5227 12.5387C41.672 12.0649 40.7167 11.8297 39.656 11.8343C38.595 11.8385 37.6414 12.0812 36.795 12.5616C35.9479 13.0427 35.284 13.7126 34.8029 14.5703C34.3214 15.4283 34.0827 16.3881 34.087 17.4484C34.0914 18.5096 34.3375 19.4672 34.826 20.3208C35.3139 21.1751 35.9836 21.8392 36.834 22.313C37.6848 22.7866 38.6402 23.0222 39.7013 23.0176C40.7617 23.0133 41.7152 22.7704 42.5621 22.2899Z" fill="white"/>
<path d="M59.4473 13.0118C60.3811 13.5235 61.1146 14.2477 61.6494 15.1851C62.1834 16.1229 62.4529 17.2047 62.4578 18.4324C62.463 19.6595 62.202 20.7486 61.6758 21.6969C61.1489 22.6465 60.4212 23.3807 59.4916 23.8995C58.5617 24.4185 57.5055 24.6805 56.3236 24.6853C54.6871 24.6919 53.3892 24.1519 52.4298 23.0645L52.4535 28.9515L49.6123 28.9631L49.5452 12.4153L52.2499 12.4044L52.2563 13.9956C52.7234 13.4182 53.3017 12.9838 53.99 12.6928C54.6782 12.4023 55.4393 12.2554 56.2727 12.252C57.4551 12.2471 58.5131 12.5006 59.4473 13.0118ZM58.5709 21.1982C59.2422 20.4988 59.5758 19.5803 59.571 18.4439C59.5665 17.3074 59.2253 16.3923 58.5486 15.6979C57.8714 15.0033 57.0103 14.6584 55.9645 14.6625C55.2825 14.6652 54.6697 14.8234 54.1253 15.1361C53.5811 15.4489 53.1508 15.894 52.8353 16.4709C52.5194 17.0486 52.3626 17.7157 52.3659 18.4733C52.3689 19.2307 52.531 19.897 52.8515 20.4714C53.1718 21.0463 53.6056 21.4877 54.1522 21.7957C54.6991 22.1045 55.3131 22.2571 55.995 22.2544C57.041 22.2502 57.8995 21.8983 58.5709 21.1982Z" fill="white"/>
<path d="M75.9007 19.287L66.3767 19.3257C66.547 20.2191 66.9858 20.9256 67.6922 21.4455C68.3987 21.9654 69.2753 22.2234 70.3207 22.2191C71.6539 22.2137 72.751 21.7698 73.6111 20.8872L75.1412 22.6313C74.5982 23.2852 73.9102 23.7807 73.0787 24.1171C72.2463 24.4538 71.3079 24.6241 70.2621 24.6286C68.9286 24.634 67.7529 24.3735 66.7359 23.847C65.7182 23.321 64.931 22.5853 64.374 21.6403C63.8169 20.6956 63.5361 19.6248 63.5311 18.4274C63.5263 17.2456 63.7911 16.1801 64.3253 15.2309C64.8594 14.2815 65.6029 13.5398 66.5551 13.0055C67.5074 12.4711 68.5822 12.2016 69.7797 12.1968C70.9616 12.1919 72.0195 12.449 72.9535 12.9682C73.8877 13.4869 74.6177 14.2193 75.1445 15.1638C75.6712 16.109 75.9372 17.203 75.942 18.4454C75.9435 18.6427 75.9293 18.9231 75.9007 19.287ZM67.4856 15.2866C66.8591 15.8272 66.4789 16.5447 66.3463 17.4394L73.2337 17.4113C73.1085 16.533 72.7348 15.8221 72.1109 15.2792C71.4871 14.7362 70.7133 14.4665 69.7893 14.4702C68.8802 14.4739 68.112 14.7463 67.4856 15.2866Z" fill="white"/>
<path d="M87.9326 13.4646C88.8602 14.355 89.3281 15.6789 89.3352 17.4364L89.3636 24.3921L86.5219 24.4037L86.495 17.8118C86.4908 16.7514 86.2375 15.9532 85.7352 15.417C85.2328 14.8815 84.5196 14.6148 83.5954 14.6186C82.5498 14.6228 81.7249 14.941 81.1216 15.5722C80.518 16.2035 80.2187 17.1099 80.2237 18.2918L80.2484 24.4286L77.4069 24.4405L77.3577 12.3024L80.0628 12.2915L80.0691 13.8603C80.5362 13.2977 81.1256 12.8709 81.8367 12.5801C82.5475 12.2895 83.35 12.1422 84.2443 12.1385C85.7751 12.1324 87.0047 12.5745 87.9326 13.4646Z" fill="white"/>
<path d="M91.3785 7.51761L94.22 7.50586L94.2884 24.3719L91.4469 24.3834L91.3785 7.51761Z" fill="white"/>
<path d="M106.168 13.3337C107.118 14.1862 107.597 15.4759 107.604 17.2033L107.633 24.3176L104.95 24.3287L104.945 22.851C104.598 23.3828 104.104 23.7904 103.461 24.0727C102.818 24.3557 102.042 24.4992 101.133 24.5029C100.224 24.5066 99.4274 24.3541 98.7444 24.0467C98.0607 23.739 97.5326 23.3091 97.1593 22.7571C96.7851 22.2061 96.5977 21.5818 96.5948 20.8846C96.5904 19.7935 96.992 18.9165 97.8003 18.2543C98.6079 17.5916 99.8833 17.2573 101.626 17.2498L104.763 17.2372L104.762 17.0552C104.758 16.2068 104.502 15.5561 103.993 15.1034C103.483 14.6508 102.728 14.4268 101.728 14.4308C101.046 14.4335 100.376 14.542 99.7177 14.7568C99.0593 14.9721 98.5038 15.2697 98.0507 15.6507L96.9284 13.5865C97.5628 13.0995 98.3265 12.7249 99.2195 12.4633C100.112 12.2023 101.059 12.0698 102.059 12.0658C103.848 12.0586 105.217 12.4815 106.168 13.3337ZM103.611 21.9358C104.163 21.6079 104.551 21.1403 104.776 20.5334L104.771 19.1243L101.839 19.136C100.202 19.1427 99.3857 19.6843 99.3902 20.7597C99.392 21.275 99.5985 21.6836 100.009 21.9848C100.419 22.2861 100.988 22.4353 101.715 22.4324C102.427 22.4293 103.059 22.2644 103.611 21.9358Z" fill="white"/>
<path d="M120.087 12.7653C121.021 13.277 121.754 14.0012 122.289 14.9386C122.822 15.8765 123.092 16.9582 123.097 18.1859C123.103 19.4132 122.841 20.5023 122.315 21.4504C121.789 22.4 121.061 23.1345 120.131 23.6532C119.201 24.1722 118.145 24.4343 116.963 24.4388C116.129 24.4422 115.367 24.3007 114.677 24.0162C113.986 23.7314 113.404 23.302 112.933 22.7271L112.939 24.2961L110.234 24.3072L110.166 7.44127L113.007 7.42969L113.032 13.6351C113.515 13.103 114.086 12.6988 114.743 12.4235C115.402 12.1476 116.124 12.0087 116.912 12.0056C118.094 12.0009 119.152 12.2543 120.087 12.7653ZM119.211 20.9518C119.882 20.2524 120.215 19.3339 120.211 18.1975C120.206 17.0608 119.865 16.146 119.188 15.4515C118.511 14.7567 117.65 14.4119 116.604 14.4159C115.922 14.4188 115.309 14.5772 114.765 14.8895C114.22 15.2023 113.79 15.6475 113.474 16.2243C113.159 16.802 113.002 17.4693 113.006 18.2267C113.009 18.9843 113.17 19.6505 113.49 20.225C113.811 20.7997 114.245 21.2411 114.792 21.5493C115.338 21.8579 115.953 22.0106 116.635 22.0078C117.68 22.0038 118.539 21.6519 119.211 20.9518Z" fill="white"/>
<path d="M9.18167 12.6173C11.907 10.1663 16.0458 6.66549 16.0458 6.66549C18.6479 4.76355 17.3215 12.0796 17.1208 13.4793C16.9203 14.8791 16.4668 15.1998 16.4668 15.1998C14.8005 17.249 9.71793 20.5605 5.59939 23.2213C1.48067 25.8824 0.787157 26.8332 0.787157 26.8332C-2.71746 23.1566 6.45649 15.0683 9.18167 12.6173ZM18.9263 0.0835798C18.9263 0.0835798 19.4032 1.15949 19.6483 6.05696C19.8931 10.9544 20.2196 17.0117 21.1613 19.4797C21.1613 19.4797 21.2125 20.0321 22.3239 20.9058C23.4362 21.7797 29.1088 26.5862 28.7627 23.382C28.7627 23.382 27.8005 18.0472 27.0406 14.4615C26.2805 10.8762 23.8629 -1.11301 18.9263 0.0835798ZM33.3907 29.0823C33.3907 29.0823 32.2206 28.9571 27.8567 26.7211C23.4924 24.4844 18.0841 21.7386 15.4758 21.3203C15.4758 21.3203 14.9716 21.0881 13.6594 21.614C12.3464 22.1399 5.34749 24.6495 8.29557 25.9519C8.29557 25.9519 13.3969 27.7858 16.8819 28.9203C20.3674 30.0552 31.9591 33.9558 33.3907 29.0823Z" fill="url(#paint0_linear_60_125)"/>
<defs>
<linearGradient id="paint0_linear_60_125" x1="-0.869021" y1="20.5392" x2="30.6443" y2="14.574" gradientUnits="userSpaceOnUse">
<stop offset="0.0014" stop-color="#3A23FF"/>
<stop offset="0.1358" stop-color="#3829FF"/>
<stop offset="0.3154" stop-color="#313AFF"/>
<stop offset="0.5207" stop-color="#2556FF"/>
<stop offset="0.7449" stop-color="#167DFF"/>
<stop offset="0.9822" stop-color="#02AEFF"/>
<stop offset="1" stop-color="#00B2FF"/>
</linearGradient>
</defs>
</svg>
