<svg width="1980" height="995" viewBox="0 0 1980 995" fill="none" xmlns="http://www.w3.org/2000/svg">
<g filter="url(#filter0_d_60_71)">
<path d="M0 0C0 0 588.5 177.5 936 140.5C1283.5 103.5 1980 0 1980 0V987C1980 987 1192 889.5 1090.5 889.5C836.521 889.5 0 987 0 987V0Z" fill="#6193FF" fill-opacity="0.1" shape-rendering="crispEdges"/>
<path d="M1439.5 0.917309V986.267L1439.47 986.255L1438.87 986.021C1438.46 985.863 1437.96 985.668 1437.37 985.439C1435.53 984.724 1432.81 983.677 1429.32 982.343C1422.34 979.677 1412.26 975.867 1399.84 971.296C1375 962.154 1340.82 949.965 1303.47 937.775C1266.12 925.585 1225.59 913.393 1188.05 904.249C1150.52 895.106 1115.94 889 1090.5 889C963.48 889 690.827 913.378 449.958 937.753C329.517 949.94 217.013 962.128 134.62 971.269C93.423 975.839 59.7538 979.648 36.3836 982.314C24.6986 983.647 15.5883 984.694 9.39922 985.408C6.30468 985.765 3.94045 986.039 2.34983 986.224C1.55452 986.316 0.952616 986.386 0.549525 986.433L0.5 986.438V0.672054C0.769049 0.752573 1.12157 0.857873 1.55612 0.987264C2.68079 1.32215 4.35488 1.81842 6.55305 2.46411C10.9494 3.75548 17.4421 5.64452 25.8287 8.03553C42.6019 12.8175 66.9506 19.6074 97.2547 27.6396C157.863 43.7037 242.293 64.7372 337.585 84.6145C528.152 124.365 762.219 159.506 936.053 140.997C1109.84 122.493 1235.88 87.3582 1318.49 56.844C1359.79 41.587 1390.23 27.4852 1410.34 17.1952C1420.4 12.0501 1427.88 7.85808 1432.85 4.95104C1435.33 3.49751 1437.19 2.36525 1438.42 1.59575C1438.86 1.32362 1439.22 1.09686 1439.5 0.917309Z" stroke="" shape-rendering="crispEdges"/>
</g>
<defs>
<filter id="filter0_d_60_71" x="-4" y="0" width="1980" height="995" filterUnits="userSpaceOnUse" color-interpolation-filters="sRGB">
<feFlood flood-opacity="0" result="BackgroundImageFix"/>
<feColorMatrix in="SourceAlpha" type="matrix" values="0 0 0 0 0 0 0 0 0 0 0 0 0 0 0 0 0 0 127 0" result="hardAlpha"/>
<feOffset dy="4"/>
<feGaussianBlur stdDeviation="2"/>
<feComposite in2="hardAlpha" operator="out"/>
<feColorMatrix type="matrix" values="0 0 0 0 0 0 0 0 0 0 0 0 0 0 0 0 0 0 0.25 0"/>
<feBlend mode="normal" in2="BackgroundImageFix" result="effect1_dropShadow_60_71"/>
<feBlend mode="normal" in="SourceGraphic" in2="effect1_dropShadow_60_71" result="shape"/>
</filter>
</defs>
</svg>
