<svg width="35" height="35" viewBox="0 0 35 35" fill="none" xmlns="http://www.w3.org/2000/svg">
<path d="M32.0833 7.07292V24.4125C32.0833 25.8271 30.9312 27.125 29.5167 27.3L29.0646 27.3583C26.6729 27.6792 23.3042 28.6708 20.5917 29.8083C19.6437 30.2021 18.5938 29.4875 18.5938 28.4521V8.16667C18.5938 7.62708 18.9 7.13125 19.3812 6.86875C22.05 5.425 26.0896 4.14167 28.8313 3.90833H28.9187C30.6687 3.90833 32.0833 5.32292 32.0833 7.07292Z" fill="#292D32"/>
<path d="M15.6187 6.86875C12.95 5.425 8.9104 4.14167 6.16874 3.90833H6.06665C4.31665 3.90833 2.90207 5.32292 2.90207 7.07292V24.4125C2.90207 25.8271 4.05415 27.125 5.46874 27.3L5.92082 27.3583C8.31249 27.6792 11.6812 28.6708 14.3937 29.8083C15.3417 30.2021 16.3917 29.4875 16.3917 28.4521V8.16667C16.3917 7.6125 16.1 7.13125 15.6187 6.86875ZM7.29165 11.2875H10.5729C11.1708 11.2875 11.6667 11.7833 11.6667 12.3812C11.6667 12.9937 11.1708 13.475 10.5729 13.475H7.29165C6.69374 13.475 6.1979 12.9937 6.1979 12.3812C6.1979 11.7833 6.69374 11.2875 7.29165 11.2875ZM11.6667 17.85H7.29165C6.69374 17.85 6.1979 17.3687 6.1979 16.7562C6.1979 16.1583 6.69374 15.6625 7.29165 15.6625H11.6667C12.2646 15.6625 12.7604 16.1583 12.7604 16.7562C12.7604 17.3687 12.2646 17.85 11.6667 17.85Z" fill="#292D32"/>
</svg>
