<svg width="35" height="35" viewBox="0 0 35 35" fill="none" xmlns="http://www.w3.org/2000/svg">
<path d="M32.0833 12.3958C32.0833 17.15 28.5833 21.0729 24.0333 21.7583V21.6708C23.5813 16.0125 18.9875 11.4188 13.2854 10.9667H13.2417C13.9271 6.41667 17.85 2.91667 22.6042 2.91667C27.8396 2.91667 32.0833 7.16042 32.0833 12.3958Z" fill="#292D32"/>
<path d="M21.8458 21.8458C21.4812 17.2229 17.7771 13.5188 13.1542 13.1542C12.9062 13.1396 12.6437 13.125 12.3958 13.125C7.16041 13.125 2.91666 17.3688 2.91666 22.6042C2.91666 27.8396 7.16041 32.0833 12.3958 32.0833C17.6312 32.0833 21.875 27.8396 21.875 22.6042C21.875 22.3562 21.8604 22.0938 21.8458 21.8458ZM13.6792 23.8875L12.3958 26.25L11.1125 23.8875L8.74999 22.6042L11.1125 21.3208L12.3958 18.9583L13.6792 21.3208L16.0417 22.6042L13.6792 23.8875Z" fill="#292D32"/>
</svg>
