<svg width="35" height="35" viewBox="0 0 35 35" fill="none" xmlns="http://www.w3.org/2000/svg">
<path d="M31.1062 21.3937C29.575 19.8625 28.3646 20.3583 27.3146 21.3937L21.2625 27.4458C21.0292 27.6792 20.8104 28.1312 20.7521 28.4521L20.4167 30.7708C20.3 31.6021 20.8833 32.2 21.7146 32.0687L24.0333 31.7333C24.3542 31.6896 24.8062 31.4562 25.0396 31.2229L31.0917 25.1708C32.1562 24.1354 32.6375 22.925 31.1062 21.3937Z" fill="#292D32"/>
<path d="M10.2973 2.96251C10.8496 2.91407 11.3021 3.36777 11.3021 3.92223V10.375C11.3021 10.9273 10.8544 11.375 10.3021 11.375H3.91666C3.36437 11.375 2.91159 10.9261 2.9561 10.3756C3.30665 6.03926 5.97738 3.34138 10.2973 2.96251Z" fill="#292D32"/>
<path d="M30.5229 11.375H24.6979C24.1456 11.375 23.6979 10.9273 23.6979 10.375V3.92291C23.6979 3.36819 24.1513 2.9144 24.7039 2.96331C28.8083 3.32662 31.4273 5.78318 31.9812 9.74166C32.0979 10.6021 31.3979 11.375 30.5229 11.375Z" fill="#292D32"/>
<path d="M10.3021 23.7708C10.8544 23.7708 11.3021 24.2186 11.3021 24.7708V30.5083C11.3021 31.3833 10.5292 32.0833 9.65416 31.9667C5.75674 31.3868 3.35584 28.8115 2.97043 24.783C2.91736 24.2282 3.37216 23.7708 3.92939 23.7708H10.3021Z" fill="#292D32"/>
<path d="M11.3021 14.5625C11.3021 14.0102 10.8544 13.5625 10.3021 13.5625H3.91666C3.36437 13.5625 2.91666 14.0102 2.91666 14.5625V20.5833C2.91666 21.1356 3.36437 21.5833 3.91666 21.5833H10.3021C10.8544 21.5833 11.3021 21.1356 11.3021 20.5833V14.5625Z" fill="#292D32"/>
<path d="M21.5104 14.5625C21.5104 14.0102 21.0627 13.5625 20.5104 13.5625H14.4896C13.9373 13.5625 13.4896 14.0102 13.4896 14.5625V20.5833C13.4896 21.1356 13.9373 21.5833 14.4896 21.5833H20.0521C20.8542 21.5833 21.5104 20.9271 21.5104 20.125V14.5625Z" fill="#292D32"/>
<path d="M21.5104 3.91666C21.5104 3.36437 21.0627 2.91666 20.5104 2.91666H14.4896C13.9373 2.91666 13.4896 3.36437 13.4896 3.91666V10.375C13.4896 10.9273 13.9373 11.375 14.4896 11.375H20.5104C21.0627 11.375 21.5104 10.9273 21.5104 10.375V3.91666Z" fill="#292D32"/>
</svg>
