<svg width="20" height="20" viewBox="0 0 20 20" fill="none" xmlns="http://www.w3.org/2000/svg">
<path d="M13.4917 1.66663H6.50835C3.47502 1.66663 1.66669 3.47496 1.66669 6.50829V13.4833C1.66669 16.525 3.47502 18.3333 6.50835 18.3333H13.4834C16.5167 18.3333 18.325 16.525 18.325 13.4916V6.50829C18.3334 3.47496 16.525 1.66663 13.4917 1.66663ZM10 13.2333C8.21669 13.2333 6.76669 11.7833 6.76669 9.99996C6.76669 8.21663 8.21669 6.76663 10 6.76663C11.7834 6.76663 13.2334 8.21663 13.2334 9.99996C13.2334 11.7833 11.7834 13.2333 10 13.2333ZM14.9334 5.73329C14.8917 5.83329 14.8334 5.92496 14.7584 6.00829C14.675 6.08329 14.5834 6.14163 14.4834 6.18329C14.3834 6.22496 14.275 6.24996 14.1667 6.24996C13.9417 6.24996 13.7334 6.16663 13.575 6.00829C13.5 5.92496 13.4417 5.83329 13.4 5.73329C13.3584 5.63329 13.3334 5.52496 13.3334 5.41663C13.3334 5.30829 13.3584 5.19996 13.4 5.09996C13.4417 4.99163 13.5 4.90829 13.575 4.82496C13.7667 4.63329 14.0584 4.54163 14.325 4.59996C14.3834 4.60829 14.4334 4.62496 14.4834 4.64996C14.5334 4.66663 14.5834 4.69163 14.6334 4.72496C14.675 4.74996 14.7167 4.79163 14.7584 4.82496C14.8334 4.90829 14.8917 4.99163 14.9334 5.09996C14.975 5.19996 15 5.30829 15 5.41663C15 5.52496 14.975 5.63329 14.9334 5.73329Z" fill="#3D7BFF"/>
</svg>
