<svg width="35" height="35" viewBox="0 0 35 35" fill="none" xmlns="http://www.w3.org/2000/svg">
<path d="M6.21054 14.9288L9.66115 16.3596C9.2721 17.3418 8.96175 18.3534 8.73306 19.3848L8.60217 19.9798L13.549 24.9296L14.144 24.8017C15.1754 24.573 16.187 24.2627 17.1692 23.8736L18.6 27.3242C18.614 27.3584 18.6363 27.3886 18.6649 27.412C18.6935 27.4355 18.7274 27.4515 18.7637 27.4585C18.8 27.4656 18.8375 27.4636 18.8728 27.4526C18.908 27.4416 18.9401 27.422 18.9659 27.3956L21.1285 25.233C21.4814 24.8801 21.7564 24.4572 21.9357 23.9914C22.1151 23.5257 22.1947 23.0275 22.1696 22.529L22.0923 21.1399C26.0962 18.1831 30.1477 12.9982 31.2513 3.9493C31.2826 3.72242 31.261 3.49138 31.1884 3.27419C31.1157 3.05699 30.9939 2.85951 30.8324 2.69714C30.6709 2.53476 30.474 2.41187 30.2572 2.33806C30.0404 2.26425 29.8095 2.2415 29.5825 2.27159C20.5365 3.38411 15.3487 7.43858 12.3919 11.4306L11.0057 11.3592C10.5083 11.3321 10.0108 11.4095 9.54513 11.5862C9.07944 11.7629 8.65589 12.0352 8.30173 12.3854L6.13915 14.548C6.10919 14.5735 6.08649 14.6064 6.07336 14.6435C6.06023 14.6806 6.05713 14.7205 6.06438 14.7591C6.07163 14.7978 6.08896 14.8338 6.11463 14.8636C6.1403 14.8934 6.17339 14.9159 6.21054 14.9288ZM20.0844 9.65768C20.4592 9.2842 20.9362 9.03014 21.4553 8.92759C21.9743 8.82505 22.5122 8.87861 23.0008 9.08151C23.4895 9.28441 23.907 9.62756 24.2008 10.0676C24.4946 10.5077 24.6513 11.0249 24.6513 11.554C24.6513 12.0831 24.4946 12.6004 24.2008 13.0404C23.907 13.4805 23.4895 13.8236 23.0008 14.0265C22.5122 14.2294 21.9743 14.283 21.4553 14.1805C20.9362 14.0779 20.4592 13.8239 20.0844 13.4504C19.8348 13.2017 19.6368 12.9061 19.5016 12.5807C19.3665 12.2553 19.297 11.9064 19.297 11.554C19.297 11.2017 19.3665 10.8528 19.5016 10.5274C19.6368 10.2019 19.8348 9.9064 20.0844 9.65768ZM5.56504 25.3252C4.99243 25.1243 4.37752 25.0751 3.78024 25.1824C3.72716 25.1939 3.67203 25.1918 3.62001 25.1762C3.56799 25.1606 3.52078 25.132 3.48278 25.0932C3.43567 25.0463 3.40413 24.986 3.39243 24.9206C3.38072 24.8551 3.38942 24.7877 3.41734 24.7273C4.05094 23.3649 5.73162 20.6253 8.7747 22.8384C8.7906 22.8526 8.80332 22.8701 8.81202 22.8895C8.82073 22.909 8.82523 22.9301 8.82523 22.9514C8.82523 22.9728 8.82073 22.9939 8.81202 23.0134C8.80332 23.0328 8.7906 23.0503 8.7747 23.0645C8.3673 23.3853 8.04111 23.7975 7.82252 24.2678C7.60393 24.7381 7.49907 25.2531 7.51642 25.7714C7.51864 25.8323 7.54379 25.89 7.58683 25.933C7.62988 25.9761 7.68762 26.0012 7.74845 26.0035C8.26453 26.0242 8.77828 25.9236 9.24841 25.7097C9.71855 25.4958 10.1319 25.1746 10.4554 24.7719C10.4696 24.7545 10.4875 24.7405 10.5079 24.7308C10.5282 24.7212 10.5504 24.7162 10.5729 24.7162C10.5954 24.7162 10.6176 24.7212 10.6379 24.7308C10.6582 24.7405 10.6762 24.7545 10.6904 24.7719C11.1128 25.2747 12.2759 26.9167 10.9879 28.5022C10.4255 29.178 9.61986 29.6054 8.74496 29.692C7.4956 29.8259 5.18726 30.2334 4.24429 31.3103C4.20644 31.3551 4.15712 31.3888 4.1016 31.4079C4.04608 31.4269 3.98644 31.4305 3.92903 31.4183C3.87163 31.4061 3.81862 31.3785 3.77565 31.3385C3.73268 31.2985 3.70137 31.2476 3.68506 31.1913C3.35189 30.0549 2.8343 27.5146 5.56504 25.3252Z" fill="#292D32"/>
</svg>
