<svg width="35" height="35" viewBox="0 0 35 35" fill="none" xmlns="http://www.w3.org/2000/svg">
<path d="M29.6917 18.5646C29.1521 18.5646 28.7 18.1562 28.6417 17.6167C28.2917 14.4083 26.5708 11.5208 23.9167 9.68333C23.4354 9.34792 23.3188 8.69167 23.6542 8.21042C23.9896 7.72917 24.6458 7.6125 25.1271 7.94792C28.2917 10.15 30.3333 13.5917 30.7563 17.3979C30.8146 17.9812 30.3917 18.5062 29.8083 18.5646C29.7646 18.5646 29.7354 18.5646 29.6917 18.5646Z" fill="#292D32"/>
<path d="M5.45418 18.6375C5.42501 18.6375 5.38126 18.6375 5.3521 18.6375C4.76876 18.5792 4.34585 18.0542 4.40418 17.4708C4.79793 13.6646 6.81043 10.2229 9.94585 8.00625C10.4125 7.67084 11.0833 7.7875 11.4188 8.25417C11.7542 8.73542 11.6375 9.39167 11.1708 9.72709C8.54585 11.5938 6.8396 14.4813 6.51876 17.675C6.46043 18.2292 5.99376 18.6375 5.45418 18.6375Z" fill="#292D32"/>
<path d="M23.3187 30.7708C21.525 31.6313 19.6 32.0688 17.5875 32.0688C15.4875 32.0688 13.4896 31.6021 11.6229 30.6542C11.0979 30.4063 10.8937 29.7646 11.1562 29.2396C11.4042 28.7146 12.0458 28.5104 12.5708 28.7583C13.4896 29.225 14.4667 29.5458 15.4583 29.7354C16.8 29.9979 18.1708 30.0125 19.5125 29.7792C20.5042 29.6042 21.4812 29.2979 22.3854 28.8604C22.925 28.6125 23.5667 28.8167 23.8 29.3563C24.0625 29.8813 23.8583 30.5229 23.3187 30.7708Z" fill="#292D32"/>
<path d="M17.5729 2.93124C15.3125 2.93124 13.4604 4.76874 13.4604 7.04374C13.4604 9.31874 15.2979 11.1562 17.5729 11.1562C19.8479 11.1562 21.6854 9.31874 21.6854 7.04374C21.6854 4.76874 19.8479 2.93124 17.5729 2.93124Z" fill="#292D32"/>
<path d="M7.36458 20.2271C5.10416 20.2271 3.25208 22.0646 3.25208 24.3396C3.25208 26.6146 5.08958 28.4521 7.36458 28.4521C9.63958 28.4521 11.4771 26.6146 11.4771 24.3396C11.4771 22.0646 9.62499 20.2271 7.36458 20.2271Z" fill="#292D32"/>
<path d="M27.6354 20.2271C25.375 20.2271 23.5229 22.0646 23.5229 24.3396C23.5229 26.6146 25.3604 28.4521 27.6354 28.4521C29.9104 28.4521 31.7479 26.6146 31.7479 24.3396C31.7479 22.0646 29.9104 20.2271 27.6354 20.2271Z" fill="#292D32"/>
</svg>
