<svg width="24" height="13" viewBox="0 0 24 13" fill="none" xmlns="http://www.w3.org/2000/svg">
<rect width="24" height="13" fill="white"/>
<mask id="mask0_784_120" style="mask-type:alpha" maskUnits="userSpaceOnUse" x="0" y="0" width="24" height="13">
<rect width="24" height="13" fill="white"/>
</mask>
<g mask="url(#mask0_784_120)">
<path d="M24.706 7.99976H0V9.00094H24.706V7.99976Z" fill="#CE0538"/>
<path d="M24.706 12.0005H0V12.9999H24.706V12.0005Z" fill="#CE0538"/>
<path d="M24.706 9.99951H0V11.0007H24.706V9.99951Z" fill="#CE0538"/>
<path d="M24.706 5.99927H0V6.99927H24.706V5.99927Z" fill="#CE0538"/>
<path d="M24.706 2.00049H0V2.99932H24.706V2.00049Z" fill="#CE0538"/>
<path d="M24.706 0H0V0.999415H24.706V0Z" fill="#CE0538"/>
<path d="M24.706 4.00024H0V5.00025H24.706V4.00024Z" fill="#CE0538"/>
<path d="M9.87121 0H0V6.98944H9.87121V0Z" fill="#003A78"/>
<path d="M1.58891 0.877441L1.6895 1.18627H2.01362L1.75127 1.37685L1.85127 1.68509L1.58891 1.4945L1.32656 1.68509L1.42715 1.37685L1.16479 1.18627H1.48891L1.58891 0.877441Z" fill="white"/>
<path d="M3.2347 0.877441L3.33471 1.18627H3.65882L3.39647 1.37685L3.49706 1.68509L3.2347 1.4945L2.97235 1.68509L3.07235 1.37685L2.81 1.18627H3.13412L3.2347 0.877441Z" fill="white"/>
<path d="M4.87466 0.877441L4.97466 1.18627H5.29878L5.03642 1.37685L5.13701 1.68509L4.87466 1.4945L4.6123 1.68509L4.7123 1.37685L4.44995 1.18627H4.77407L4.87466 0.877441Z" fill="white"/>
<path d="M6.5341 0.877441L6.63469 1.18627H6.95881L6.69646 1.37685L6.79646 1.68509L6.5341 1.4945L6.27175 1.68509L6.37234 1.37685L6.10999 1.18627H6.4341L6.5341 0.877441Z" fill="white"/>
<path d="M8.17233 0.877441L8.27233 1.18627H8.59645L8.33409 1.37685L8.43468 1.68509L8.17233 1.4945L7.90997 1.68509L8.00997 1.37685L7.74762 1.18627H8.07174L8.17233 0.877441Z" fill="white"/>
<path d="M1.58891 2.30249L1.6895 2.61131H2.01362L1.75127 2.8019L1.85127 3.11014L1.58891 2.91955L1.32656 3.11014L1.42715 2.8019L1.16479 2.61131H1.48891L1.58891 2.30249Z" fill="white"/>
<path d="M3.2347 2.30249L3.33471 2.61131H3.65882L3.39647 2.8019L3.49706 3.11014L3.2347 2.91955L2.97235 3.11014L3.07235 2.8019L2.81 2.61131H3.13412L3.2347 2.30249Z" fill="white"/>
<path d="M4.87466 2.30249L4.97466 2.61131H5.29878L5.03642 2.8019L5.13701 3.11014L4.87466 2.91955L4.6123 3.11014L4.7123 2.8019L4.44995 2.61131H4.77407L4.87466 2.30249Z" fill="white"/>
<path d="M6.5341 2.30249L6.63469 2.61131H6.95881L6.69646 2.8019L6.79646 3.11014L6.5341 2.91955L6.27175 3.11014L6.37234 2.8019L6.10999 2.61131H6.4341L6.5341 2.30249Z" fill="white"/>
<path d="M8.17233 2.30249L8.27233 2.61131H8.59645L8.33409 2.8019L8.43468 3.11014L8.17233 2.91955L7.90997 3.11014L8.00997 2.8019L7.74762 2.61131H8.07174L8.17233 2.30249Z" fill="white"/>
<path d="M1.58891 3.70337L1.6895 4.01161H2.01362L1.75127 4.20219L1.85127 4.51102L1.58891 4.32043L1.32656 4.51102L1.42715 4.20219L1.16479 4.01161H1.48891L1.58891 3.70337Z" fill="white"/>
<path d="M3.2347 3.70337L3.33471 4.01161H3.65882L3.39647 4.20219L3.49706 4.51102L3.2347 4.32043L2.97235 4.51102L3.07235 4.20219L2.81 4.01161H3.13412L3.2347 3.70337Z" fill="white"/>
<path d="M4.87466 3.70337L4.97466 4.01161H5.29878L5.03642 4.20219L5.13701 4.51102L4.87466 4.32043L4.6123 4.51102L4.7123 4.20219L4.44995 4.01161H4.77407L4.87466 3.70337Z" fill="white"/>
<path d="M6.5341 3.70337L6.63469 4.01161H6.95881L6.69646 4.20219L6.79646 4.51102L6.5341 4.32043L6.27175 4.51102L6.37234 4.20219L6.10999 4.01161H6.4341L6.5341 3.70337Z" fill="white"/>
<path d="M8.17233 3.70337L8.27233 4.01161H8.59645L8.33409 4.20219L8.43468 4.51102L8.17233 4.32043L7.90997 4.51102L8.00997 4.20219L7.74762 4.01161H8.07174L8.17233 3.70337Z" fill="white"/>
<path d="M1.58891 5.11914L1.6895 5.42797H2.01362L1.75127 5.61855L1.85127 5.92679L1.58891 5.7362L1.32656 5.92679L1.42715 5.61855L1.16479 5.42797H1.48891L1.58891 5.11914Z" fill="white"/>
<path d="M3.2347 5.11914L3.33471 5.42797H3.65882L3.39647 5.61855L3.49706 5.92679L3.2347 5.7362L2.97235 5.92679L3.07235 5.61855L2.81 5.42797H3.13412L3.2347 5.11914Z" fill="white"/>
<path d="M4.87466 5.11914L4.97466 5.42797H5.29878L5.03642 5.61855L5.13701 5.92679L4.87466 5.7362L4.6123 5.92679L4.7123 5.61855L4.44995 5.42797H4.77407L4.87466 5.11914Z" fill="white"/>
<path d="M6.5341 5.11914L6.63469 5.42797H6.95881L6.69646 5.61855L6.79646 5.92679L6.5341 5.7362L6.27175 5.92679L6.37234 5.61855L6.10999 5.42797H6.4341L6.5341 5.11914Z" fill="white"/>
<path d="M8.17233 5.11914L8.27233 5.42797H8.59645L8.33409 5.61855L8.43468 5.92679L8.17233 5.7362L7.90997 5.92679L8.00997 5.61855L7.74762 5.42797H8.07174L8.17233 5.11914Z" fill="white"/>
<path d="M0.763597 1.58716L0.864185 1.89539H1.1883L0.92595 2.08598L1.02595 2.39481L0.763597 2.20422L0.501243 2.39481L0.601831 2.08598L0.339478 1.89539H0.663596L0.763597 1.58716Z" fill="white"/>
<path d="M2.40939 1.58716L2.50939 1.89539H2.83409L2.57115 2.08598L2.67174 2.39481L2.40939 2.20422L2.14703 2.39481L2.24703 2.08598L1.98468 1.89539H2.3088L2.40939 1.58716Z" fill="white"/>
<path d="M4.0494 1.58716L4.1494 1.89539H4.47411L4.21117 2.08598L4.31176 2.39481L4.0494 2.20422L3.78705 2.39481L3.88705 2.08598L3.62469 1.89539H3.94881L4.0494 1.58716Z" fill="white"/>
<path d="M5.70885 1.58716L5.80944 1.89539H6.13356L5.8712 2.08598L5.9712 2.39481L5.70885 2.20422L5.44649 2.39481L5.54708 2.08598L5.28473 1.89539H5.60885L5.70885 1.58716Z" fill="white"/>
<path d="M7.34701 1.58716L7.44701 1.89539H7.77172L7.50877 2.08598L7.60936 2.39481L7.34701 2.20422L7.08466 2.39481L7.18466 2.08598L6.9223 1.89539H7.24701L7.34701 1.58716Z" fill="white"/>
<path d="M8.99642 1.58716L9.09642 1.89539H9.42054L9.15819 2.08598L9.25878 2.39481L8.99642 2.20422L8.73407 2.39481L8.83407 2.08598L8.57172 1.89539H8.89583L8.99642 1.58716Z" fill="white"/>
<path d="M0.763597 0.173096L0.864185 0.481332H1.1883L0.92595 0.671921L1.02595 0.980157L0.763597 0.789568L0.501243 0.980157L0.601831 0.671921L0.339478 0.481332H0.663596L0.763597 0.173096Z" fill="white"/>
<path d="M2.40939 0.173096L2.50939 0.481332H2.83409L2.57115 0.671921L2.67174 0.980157L2.40939 0.789568L2.14703 0.980157L2.24703 0.671921L1.98468 0.481332H2.3088L2.40939 0.173096Z" fill="white"/>
<path d="M4.0494 0.173096L4.1494 0.481332H4.47411L4.21117 0.671921L4.31176 0.980157L4.0494 0.789568L3.78705 0.980157L3.88705 0.671921L3.62469 0.481332H3.94881L4.0494 0.173096Z" fill="white"/>
<path d="M5.70885 0.173096L5.80944 0.481332H6.13356L5.8712 0.671921L5.9712 0.980157L5.70885 0.789568L5.44649 0.980157L5.54708 0.671921L5.28473 0.481332H5.60885L5.70885 0.173096Z" fill="white"/>
<path d="M7.34701 0.173096L7.44701 0.481332H7.77172L7.50877 0.671921L7.60936 0.980157L7.34701 0.789568L7.08466 0.980157L7.18466 0.671921L6.9223 0.481332H7.24701L7.34701 0.173096Z" fill="white"/>
<path d="M8.99642 0.173096L9.09642 0.481332H9.42054L9.15819 0.671921L9.25878 0.980157L8.99642 0.789568L8.73407 0.980157L8.83407 0.671921L8.57172 0.481332H8.89583L8.99642 0.173096Z" fill="white"/>
<path d="M0.763597 3.00586L0.864185 3.3141H1.1883L0.92595 3.50468L1.02595 3.81351L0.763597 3.62292L0.501243 3.81351L0.601831 3.50468L0.339478 3.3141H0.663596L0.763597 3.00586Z" fill="white"/>
<path d="M2.40939 3.00586L2.50939 3.3141H2.83409L2.57115 3.50468L2.67174 3.81351L2.40939 3.62292L2.14703 3.81351L2.24703 3.50468L1.98468 3.3141H2.3088L2.40939 3.00586Z" fill="white"/>
<path d="M4.0494 3.00586L4.1494 3.3141H4.47411L4.21117 3.50468L4.31176 3.81351L4.0494 3.62292L3.78705 3.81351L3.88705 3.50468L3.62469 3.3141H3.94881L4.0494 3.00586Z" fill="white"/>
<path d="M5.70885 3.00586L5.80944 3.3141H6.13356L5.8712 3.50468L5.9712 3.81351L5.70885 3.62292L5.44649 3.81351L5.54708 3.50468L5.28473 3.3141H5.60885L5.70885 3.00586Z" fill="white"/>
<path d="M7.34701 3.00586L7.44701 3.3141H7.77172L7.50877 3.50468L7.60936 3.81351L7.34701 3.62292L7.08466 3.81351L7.18466 3.50468L6.9223 3.3141H7.24701L7.34701 3.00586Z" fill="white"/>
<path d="M8.99642 3.00586L9.09642 3.3141H9.42054L9.15819 3.50468L9.25878 3.81351L8.99642 3.62292L8.73407 3.81351L8.83407 3.50468L8.57172 3.3141H8.89583L8.99642 3.00586Z" fill="white"/>
<path d="M0.763597 4.42676L0.864185 4.73499H1.1883L0.92595 4.92558L1.02595 5.23441L0.763597 5.04323L0.501243 5.23441L0.601831 4.92558L0.339478 4.73499H0.663596L0.763597 4.42676Z" fill="white"/>
<path d="M2.40939 4.42676L2.50939 4.73499H2.83409L2.57115 4.92558L2.67174 5.23441L2.40939 5.04323L2.14703 5.23441L2.24703 4.92558L1.98468 4.73499H2.3088L2.40939 4.42676Z" fill="white"/>
<path d="M4.0494 4.42676L4.1494 4.73499H4.47411L4.21117 4.92558L4.31176 5.23441L4.0494 5.04323L3.78705 5.23441L3.88705 4.92558L3.62469 4.73499H3.94881L4.0494 4.42676Z" fill="white"/>
<path d="M5.70885 4.42676L5.80944 4.73499H6.13356L5.8712 4.92558L5.9712 5.23441L5.70885 5.04323L5.44649 5.23441L5.54708 4.92558L5.28473 4.73499H5.60885L5.70885 4.42676Z" fill="white"/>
<path d="M7.34701 4.42676L7.44701 4.73499H7.77172L7.50877 4.92558L7.60936 5.23441L7.34701 5.04323L7.08466 5.23441L7.18466 4.92558L6.9223 4.73499H7.24701L7.34701 4.42676Z" fill="white"/>
<path d="M8.99642 4.42676L9.09642 4.73499H9.42054L9.15819 4.92558L9.25878 5.23441L8.99642 5.04323L8.73407 5.23441L8.83407 4.92558L8.57172 4.73499H8.89583L8.99642 4.42676Z" fill="white"/>
<path d="M0.763597 5.81836L0.864185 6.1266H1.1883L0.92595 6.31718L1.02595 6.62601L0.763597 6.43542L0.501243 6.62601L0.601831 6.31718L0.339478 6.1266H0.663596L0.763597 5.81836Z" fill="white"/>
<path d="M2.40939 5.81836L2.50939 6.1266H2.83409L2.57115 6.31718L2.67174 6.62601L2.40939 6.43542L2.14703 6.62601L2.24703 6.31718L1.98468 6.1266H2.3088L2.40939 5.81836Z" fill="white"/>
<path d="M4.0494 5.81836L4.1494 6.1266H4.47411L4.21117 6.31718L4.31176 6.62601L4.0494 6.43542L3.78705 6.62601L3.88705 6.31718L3.62469 6.1266H3.94881L4.0494 5.81836Z" fill="white"/>
<path d="M5.70885 5.81836L5.80944 6.1266H6.13356L5.8712 6.31718L5.9712 6.62601L5.70885 6.43542L5.44649 6.62601L5.54708 6.31718L5.28473 6.1266H5.60885L5.70885 5.81836Z" fill="white"/>
<path d="M7.34701 5.81836L7.44701 6.1266H7.77172L7.50877 6.31718L7.60936 6.62601L7.34701 6.43542L7.08466 6.62601L7.18466 6.31718L6.9223 6.1266H7.24701L7.34701 5.81836Z" fill="white"/>
<path d="M8.99642 5.81836L9.09642 6.1266H9.42054L9.15819 6.31718L9.25878 6.62601L8.99642 6.43542L8.73407 6.62601L8.83407 6.31718L8.57172 6.1266H8.89583L8.99642 5.81836Z" fill="white"/>
</g>
</svg>
