<?xml version="1.0" encoding="utf-8"?>
<!-- Generator: Adobe Illustrator 16.0.0, SVG Export Plug-In . SVG Version: 6.00 Build 0)  -->
<!DOCTYPE svg PUBLIC "-//W3C//DTD SVG 1.1//EN" "http://www.w3.org/Graphics/SVG/1.1/DTD/svg11.dtd">
<svg version="1.1" id="Capa_1" xmlns="http://www.w3.org/2000/svg" xmlns:xlink="http://www.w3.org/1999/xlink" x="0px" y="0px"
	 width="445.145px" height="430.38px" viewBox="0 0 445.145 430.38" enable-background="new 0 0 445.145 430.38"
	 xml:space="preserve">
<linearGradient id="SVGID_1_" gradientUnits="userSpaceOnUse" x1="-803.5977" y1="95.168" x2="-435.2529" y2="95.168" gradientTransform="matrix(0.9826 -0.186 0.186 0.9826 795.5142 20.9548)">
	<stop  offset="0.0014" style="stop-color:#3A23FF"/>
	<stop  offset="0.1358" style="stop-color:#3829FF"/>
	<stop  offset="0.3154" style="stop-color:#313AFF"/>
	<stop  offset="0.5207" style="stop-color:#2556FF"/>
	<stop  offset="0.7449" style="stop-color:#167DFF"/>
	<stop  offset="0.9822" style="stop-color:#02AEFF"/>
	<stop  offset="1" style="stop-color:#00B2FF"/>
</linearGradient>
<path fill="url(#SVGID_1_)" d="M139.035,172.952c31.301-28.152,78.834-68.359,78.834-68.359
	c29.887-21.844,14.654,62.182,12.348,78.258c-2.303,16.076-7.512,19.76-7.512,19.76c-19.137,23.535-77.51,61.568-124.814,92.127
	c-47.303,30.564-55.268,41.484-55.268,41.484C2.371,293.995,107.736,201.101,139.035,172.952z M250.953,28.999
	c0,0,5.475,12.359,8.291,68.607c2.812,56.248,6.562,125.816,17.379,154.162c0,0,0.586,6.344,13.35,16.379
	c12.777,10.037,77.926,65.24,73.951,28.438c0,0-11.051-61.271-19.779-102.453C335.416,152.954,307.65,15.259,250.953,28.999z
	 M417.078,362.054c0,0-13.438-1.438-63.557-27.119c-50.125-25.689-112.24-57.225-142.197-62.029c0,0-5.791-2.666-20.863,3.373
	c-15.078,6.041-95.463,34.863-61.604,49.822c0,0,58.59,21.062,98.615,34.092C267.504,373.228,400.635,418.026,417.078,362.054z"/>
</svg>
